M48
; DRILL file {KiCad 7.0.8} date Tue Jun 11 13:29:35 2024
; FORMAT={-:-/ absolute / metric / decimal}
; #@! TF.CreationDate,2024-06-11T13:29:35+02:00
; #@! TF.GenerationSoftware,Kicad,Pcbnew,7.0.8
; #@! TF.FileFunction,MixedPlating,1,2
FMAT,2
METRIC
; #@! TA.AperFunction,Plated,PTH,ViaDrill
T1C0.300
; #@! TA.AperFunction,Plated,PTH,ComponentDrill
T2C0.750
; #@! TA.AperFunction,Plated,PTH,ComponentDrill
T3C0.800
; #@! TA.AperFunction,Plated,PTH,ComponentDrill
T4C0.900
; #@! TA.AperFunction,Plated,PTH,ComponentDrill
T5C1.000
; #@! TA.AperFunction,NonPlated,NPTH,ComponentDrill
T6C2.200
; #@! TA.AperFunction,NonPlated,NPTH,ComponentDrill
T7C2.500
%
G90
G05
T1
X100.6Y-111.8
X101.2Y-100.8
X101.2Y-102.8
X101.2Y-105.2
X101.2Y-107.6
X101.2Y-110.0
X101.6Y-111.8
X102.2Y-114.5
X102.2Y-115.8
X102.2Y-117.1
X102.2Y-118.4
X102.2Y-119.7
X102.2Y-121.0
X102.2Y-123.6
X102.2Y-124.9
X102.2Y-126.2
X102.2Y-126.2
X102.2Y-127.5
X102.2Y-128.8
X102.6Y-111.8
X103.2Y-100.8
X103.2Y-102.8
X103.2Y-105.2
X103.2Y-107.6
X103.2Y-110.0
X103.6Y-111.8
X104.6Y-111.8
X105.2Y-100.8
X105.2Y-102.8
X105.2Y-105.2
X105.2Y-107.6
X105.2Y-110.0
X105.6Y-111.8
X106.6Y-111.8
X106.7Y-113.7
X106.9Y-114.8
X107.2Y-100.8
X107.2Y-102.8
X107.2Y-105.2
X107.2Y-107.6
X107.2Y-110.0
X107.6Y-111.8
X107.7Y-123.9
X108.6Y-111.8
X108.7Y-121.1
X109.1Y-123.9
X109.2Y-100.8
X109.2Y-102.8
X109.2Y-105.2
X109.2Y-107.6
X109.2Y-110.0
X110.9Y-102.4
X110.9Y-105.8
X112.2Y-101.0
X113.6Y-126.5
X114.4Y-111.8
X116.0Y-116.1
X117.4Y-102.625
X117.4Y-118.0
X117.4Y-120.9
X117.6Y-105.4
X117.6Y-106.6
X118.6Y-117.9
X118.6Y-121.0
X118.8Y-129.2
X120.2Y-104.4
X120.3Y-107.6
X121.3Y-104.4
X121.4Y-107.6
X122.4Y-104.4
X122.5Y-107.6
X123.0Y-127.0
X123.5Y-127.9
X124.0Y-127.0
X129.0Y-105.0
X130.8Y-105.0
X137.0Y-122.0
X137.4Y-111.295
X137.997Y-114.534
X138.0Y-113.135
X139.2Y-100.6
X139.2Y-101.6
X139.2Y-102.6
X139.8Y-108.4
X140.2Y-102.6
X141.1Y-108.4
X141.2Y-102.6
X141.3Y-118.3
X142.2Y-102.6
X142.3Y-108.4
X142.8Y-111.2
X148.24Y-110.4
X148.24Y-111.4
X148.24Y-112.4
T2
X110.73Y-127.76
X112.0Y-126.49
X113.27Y-127.76
T3
X114.797Y-119.4
X118.597Y-119.4
T4
X145.8Y-104.26
X145.8Y-106.8
X145.8Y-109.34
T5
X104.88Y-114.817
X104.88Y-118.317
X104.9Y-123.8
X104.9Y-127.3
X110.6Y-114.135
X110.6Y-116.675
X141.6Y-120.6
X141.6Y-123.1
X141.6Y-125.6
X150.3Y-103.8
X150.3Y-106.34
X150.3Y-108.88
X150.3Y-111.42
X152.84Y-103.8
X152.84Y-106.34
X152.84Y-108.88
X152.84Y-111.42
T6
X148.6Y-118.7
X148.6Y-127.5
T7
X127.5Y-127.0
T0
M30
