%TF.GenerationSoftware,KiCad,Pcbnew,7.0.8*%
%TF.CreationDate,2024-06-11T13:29:39+02:00*%
%TF.ProjectId,LED_Driver,4c45445f-4472-4697-9665-722e6b696361,rev?*%
%TF.SameCoordinates,Original*%
%TF.FileFunction,Copper,L2,Bot*%
%TF.FilePolarity,Positive*%
%FSLAX46Y46*%
G04 Gerber Fmt 4.6, Leading zero omitted, Abs format (unit mm)*
G04 Created by KiCad (PCBNEW 7.0.8) date 2024-06-11 13:29:39*
%MOMM*%
%LPD*%
G01*
G04 APERTURE LIST*
G04 Aperture macros list*
%AMRoundRect*
0 Rectangle with rounded corners*
0 $1 Rounding radius*
0 $2 $3 $4 $5 $6 $7 $8 $9 X,Y pos of 4 corners*
0 Add a 4 corners polygon primitive as box body*
4,1,4,$2,$3,$4,$5,$6,$7,$8,$9,$2,$3,0*
0 Add four circle primitives for the rounded corners*
1,1,$1+$1,$2,$3*
1,1,$1+$1,$4,$5*
1,1,$1+$1,$6,$7*
1,1,$1+$1,$8,$9*
0 Add four rect primitives between the rounded corners*
20,1,$1+$1,$2,$3,$4,$5,0*
20,1,$1+$1,$4,$5,$6,$7,0*
20,1,$1+$1,$6,$7,$8,$9,0*
20,1,$1+$1,$8,$9,$2,$3,0*%
G04 Aperture macros list end*
%TA.AperFunction,ComponentPad*%
%ADD10R,2.000000X2.000000*%
%TD*%
%TA.AperFunction,ComponentPad*%
%ADD11C,2.000000*%
%TD*%
%TA.AperFunction,ComponentPad*%
%ADD12C,1.676400*%
%TD*%
%TA.AperFunction,ComponentPad*%
%ADD13R,1.100000X1.800000*%
%TD*%
%TA.AperFunction,ComponentPad*%
%ADD14RoundRect,0.275000X-0.275000X-0.625000X0.275000X-0.625000X0.275000X0.625000X-0.275000X0.625000X0*%
%TD*%
%TA.AperFunction,ComponentPad*%
%ADD15R,1.600000X1.600000*%
%TD*%
%TA.AperFunction,ComponentPad*%
%ADD16C,1.600000*%
%TD*%
%TA.AperFunction,ComponentPad*%
%ADD17R,1.700000X1.700000*%
%TD*%
%TA.AperFunction,ComponentPad*%
%ADD18O,1.700000X1.700000*%
%TD*%
%TA.AperFunction,WasherPad*%
%ADD19C,4.000000*%
%TD*%
%TA.AperFunction,ComponentPad*%
%ADD20C,1.800000*%
%TD*%
%TA.AperFunction,ViaPad*%
%ADD21C,0.700000*%
%TD*%
%TA.AperFunction,Conductor*%
%ADD22C,0.300000*%
%TD*%
G04 APERTURE END LIST*
D10*
%TO.P,LOAD,1,Pin_1*%
%TO.N,LOAD_OUT*%
X104900000Y-127300000D03*
D11*
%TO.P,LOAD,2,Pin_2*%
%TO.N,VDC*%
X104900000Y-123800000D03*
%TD*%
D12*
%TO.P,SW2,1,A*%
%TO.N,ESP-01_EN*%
X145800000Y-104260000D03*
%TO.P,SW2,2,B*%
%TO.N,+3.3V*%
X145800000Y-106800000D03*
%TO.P,SW2,3,C*%
%TO.N,ESP-01_GPIO1*%
X145800000Y-109340000D03*
%TD*%
D13*
%TO.P,Q2,1,C*%
%TO.N,LOAD_OUT*%
X110730000Y-128160000D03*
D14*
%TO.P,Q2,2,B*%
%TO.N,Net-(Q2-B)*%
X112000000Y-126090000D03*
%TO.P,Q2,3,E*%
%TO.N,GND*%
X113270000Y-128160000D03*
%TD*%
D15*
%TO.P,C1,1*%
%TO.N,VDC*%
X114797349Y-119400000D03*
D16*
%TO.P,C1,2*%
%TO.N,GND*%
X118597349Y-119400000D03*
%TD*%
D17*
%TO.P,SW1,1,A*%
%TO.N,VDC*%
X110600000Y-116675000D03*
D18*
%TO.P,SW1,2,B*%
%TO.N,Net-(J1-Pin_1)*%
X110600000Y-114135000D03*
%TD*%
D17*
%TO.P,U4,1,UTXD*%
%TO.N,ESP-01_GPIO1*%
X152840000Y-111420000D03*
D18*
%TO.P,U4,2,GND*%
%TO.N,GND*%
X150300000Y-111420000D03*
%TO.P,U4,3,CH_PD*%
%TO.N,ESP-01_EN*%
X152840000Y-108880000D03*
%TO.P,U4,4,GPIO2*%
X150300000Y-108880000D03*
%TO.P,U4,5,RST*%
%TO.N,unconnected-(U4-RST-Pad5)*%
X152840000Y-106340000D03*
%TO.P,U4,6,GPIO0*%
%TO.N,ESP-01_EN*%
X150300000Y-106340000D03*
%TO.P,U4,7,VCC*%
X152840000Y-103800000D03*
%TO.P,U4,8,URXD*%
%TO.N,unconnected-(U4-URXD-Pad8)*%
X150300000Y-103800000D03*
%TD*%
D10*
%TO.P,PWR,1,Pin_1*%
%TO.N,Net-(J1-Pin_1)*%
X104880000Y-118317500D03*
D11*
%TO.P,PWR,2,Pin_2*%
%TO.N,GND*%
X104880000Y-114817500D03*
%TD*%
D19*
%TO.P,RV1,*%
%TO.N,*%
X148600000Y-118700000D03*
X148600000Y-127500000D03*
D20*
%TO.P,RV1,1,1*%
%TO.N,Net-(D2-K)*%
X141600000Y-125600000D03*
%TO.P,RV1,2,2*%
%TO.N,Net-(U2-THR)*%
X141600000Y-123100000D03*
%TO.P,RV1,3,3*%
%TO.N,Net-(D3-A)*%
X141600000Y-120600000D03*
%TD*%
D21*
%TO.N,GND*%
X109200000Y-100800000D03*
X105200000Y-105200000D03*
X102200000Y-114500000D03*
X102200000Y-117100000D03*
X101200000Y-107600000D03*
X109200000Y-107600000D03*
X109100000Y-123900000D03*
X141300000Y-118300000D03*
X107700000Y-123900000D03*
X106900000Y-114800000D03*
X105200000Y-107600000D03*
X117400000Y-120900000D03*
X110900000Y-105800000D03*
X101200000Y-100800000D03*
X105200000Y-102800000D03*
X130800000Y-105000000D03*
X102200000Y-124900000D03*
X102200000Y-115800000D03*
X109200000Y-105200000D03*
X102600000Y-111800000D03*
X114400000Y-111800000D03*
X112200000Y-101000000D03*
X102200000Y-126200000D03*
X118600000Y-117900000D03*
X102200000Y-128800000D03*
X107200000Y-110000000D03*
X102200000Y-118400000D03*
X142200000Y-102600000D03*
X124000000Y-127000000D03*
X137000000Y-122000000D03*
X103200000Y-110000000D03*
X102200000Y-119700000D03*
X107200000Y-107600000D03*
X103200000Y-102800000D03*
X118600000Y-121000000D03*
X139800000Y-108400000D03*
X101200000Y-110000000D03*
X106600000Y-111800000D03*
X117400000Y-102625000D03*
X102200000Y-126200000D03*
X120200000Y-104400000D03*
X107200000Y-105200000D03*
X148240000Y-112400000D03*
X122400000Y-104400000D03*
X140200000Y-102600000D03*
X102200000Y-123600000D03*
X122500000Y-107600000D03*
X105200000Y-110000000D03*
X106700000Y-113700000D03*
X117400000Y-118000000D03*
X121300000Y-104400000D03*
X118800000Y-129200000D03*
X142300000Y-108400000D03*
X102200000Y-127500000D03*
X103200000Y-107600000D03*
X139200000Y-100600000D03*
X100600000Y-111800000D03*
X104600000Y-111800000D03*
X109200000Y-102800000D03*
X103200000Y-100800000D03*
X108700000Y-121100000D03*
X137400000Y-111295000D03*
X121400000Y-107600000D03*
X101600000Y-111800000D03*
X142800000Y-111200000D03*
X139200000Y-102600000D03*
X120300000Y-107600000D03*
X105600000Y-111800000D03*
X105200000Y-100800000D03*
X103200000Y-105200000D03*
X123000000Y-127000000D03*
X148240000Y-110400000D03*
X129000000Y-105000000D03*
X117600000Y-106600000D03*
X101200000Y-102800000D03*
X102200000Y-121000000D03*
X116000000Y-116100000D03*
X141200000Y-102600000D03*
X110900000Y-102400000D03*
X107200000Y-102800000D03*
X113600000Y-126500000D03*
X117600000Y-105400000D03*
X108600000Y-111800000D03*
X101200000Y-105200000D03*
X141100000Y-108400000D03*
X107200000Y-100800000D03*
X139200000Y-101600000D03*
X103600000Y-111800000D03*
X123500000Y-127900000D03*
X109200000Y-110000000D03*
X107600000Y-111800000D03*
X148240000Y-111400000D03*
%TO.N,Net-(D2-A)*%
X138000000Y-113135500D03*
X137996773Y-114534500D03*
%TD*%
D22*
%TO.N,Net-(D2-A)*%
X137996773Y-114534500D02*
X137996773Y-113138727D01*
X137996773Y-113138727D02*
X138000000Y-113135500D01*
%TD*%
%TA.AperFunction,Conductor*%
%TO.N,GND*%
G36*
X154845788Y-100019454D02*
G01*
X154926570Y-100073430D01*
X154980546Y-100154212D01*
X154999500Y-100249500D01*
X154999500Y-129750500D01*
X154980546Y-129845788D01*
X154926570Y-129926570D01*
X154845788Y-129980546D01*
X154750500Y-129999500D01*
X150510018Y-129999500D01*
X150414730Y-129980546D01*
X150333948Y-129926570D01*
X150279972Y-129845788D01*
X150261018Y-129750500D01*
X150279972Y-129655212D01*
X150333948Y-129574430D01*
X150356456Y-129554491D01*
X150394026Y-129525056D01*
X150394026Y-129525055D01*
X150394036Y-129525048D01*
X150625048Y-129294036D01*
X150826530Y-129036863D01*
X150995545Y-128757279D01*
X151129627Y-128459361D01*
X151226821Y-128147453D01*
X151285710Y-127826104D01*
X151305436Y-127500000D01*
X151285710Y-127173896D01*
X151278179Y-127132803D01*
X151248417Y-126970394D01*
X151226821Y-126852547D01*
X151129627Y-126540639D01*
X150995545Y-126242721D01*
X150995543Y-126242717D01*
X150826533Y-125963141D01*
X150625053Y-125705970D01*
X150625051Y-125705968D01*
X150625048Y-125705964D01*
X150394036Y-125474952D01*
X150394031Y-125474948D01*
X150394029Y-125474946D01*
X150136858Y-125273466D01*
X149857282Y-125104456D01*
X149559366Y-124970375D01*
X149559364Y-124970374D01*
X149559361Y-124970373D01*
X149376436Y-124913371D01*
X149247454Y-124873179D01*
X149247445Y-124873177D01*
X148926114Y-124814291D01*
X148926116Y-124814291D01*
X148926106Y-124814290D01*
X148926104Y-124814290D01*
X148600000Y-124794564D01*
X148273896Y-124814290D01*
X148273893Y-124814290D01*
X148273884Y-124814291D01*
X147952554Y-124873177D01*
X147952545Y-124873179D01*
X147640633Y-124970375D01*
X147342717Y-125104456D01*
X147063141Y-125273466D01*
X146805970Y-125474946D01*
X146574946Y-125705970D01*
X146373466Y-125963141D01*
X146204456Y-126242717D01*
X146070375Y-126540633D01*
X146070373Y-126540638D01*
X146070373Y-126540639D01*
X146069432Y-126543659D01*
X145973179Y-126852545D01*
X145973177Y-126852554D01*
X145914291Y-127173884D01*
X145914290Y-127173893D01*
X145914290Y-127173896D01*
X145894564Y-127500000D01*
X145914133Y-127823514D01*
X145914291Y-127826115D01*
X145973177Y-128147445D01*
X145973179Y-128147454D01*
X146013371Y-128276436D01*
X146038354Y-128356609D01*
X146070375Y-128459366D01*
X146204456Y-128757282D01*
X146373466Y-129036858D01*
X146574946Y-129294029D01*
X146574948Y-129294031D01*
X146574952Y-129294036D01*
X146805964Y-129525048D01*
X146805968Y-129525051D01*
X146805973Y-129525056D01*
X146843544Y-129554491D01*
X146906865Y-129628177D01*
X146937166Y-129720486D01*
X146929837Y-129817364D01*
X146885991Y-129904062D01*
X146812305Y-129967383D01*
X146719996Y-129997684D01*
X146689982Y-129999500D01*
X111932296Y-129999500D01*
X111837008Y-129980546D01*
X111756226Y-129926570D01*
X111702250Y-129845788D01*
X111683296Y-129750500D01*
X111702250Y-129655212D01*
X111756223Y-129574433D01*
X111835472Y-129495185D01*
X111923478Y-129349606D01*
X111974086Y-129187196D01*
X111980500Y-129116616D01*
X111980500Y-127939500D01*
X111999454Y-127844212D01*
X112053430Y-127763430D01*
X112134212Y-127709454D01*
X112229500Y-127690500D01*
X112331590Y-127690500D01*
X112360245Y-127687951D01*
X112447985Y-127680151D01*
X112638728Y-127625573D01*
X112814579Y-127533716D01*
X112968340Y-127408340D01*
X113093716Y-127254579D01*
X113161750Y-127124335D01*
X125999500Y-127124335D01*
X126007768Y-127173884D01*
X126040428Y-127369610D01*
X126040430Y-127369621D01*
X126121172Y-127604811D01*
X126239529Y-127823514D01*
X126392257Y-128019738D01*
X126392262Y-128019744D01*
X126392265Y-128019747D01*
X126392269Y-128019751D01*
X126575214Y-128188163D01*
X126575221Y-128188169D01*
X126702001Y-128270997D01*
X126783393Y-128324173D01*
X127011119Y-128424063D01*
X127252179Y-128485108D01*
X127252182Y-128485108D01*
X127252186Y-128485109D01*
X127437928Y-128500500D01*
X127437933Y-128500500D01*
X127562072Y-128500500D01*
X127747813Y-128485109D01*
X127747815Y-128485108D01*
X127747821Y-128485108D01*
X127988881Y-128424063D01*
X128216607Y-128324173D01*
X128374690Y-128220892D01*
X128424778Y-128188169D01*
X128424780Y-128188167D01*
X128424785Y-128188164D01*
X128607738Y-128019744D01*
X128760474Y-127823509D01*
X128878828Y-127604810D01*
X128946274Y-127408346D01*
X128959569Y-127369621D01*
X128959569Y-127369618D01*
X128959571Y-127369614D01*
X129000500Y-127124335D01*
X129000500Y-126875665D01*
X128959571Y-126630386D01*
X128959569Y-126630382D01*
X128959569Y-126630378D01*
X128878827Y-126395188D01*
X128832996Y-126310500D01*
X128760474Y-126176491D01*
X128760471Y-126176487D01*
X128760470Y-126176485D01*
X128607742Y-125980261D01*
X128607741Y-125980260D01*
X128607738Y-125980256D01*
X128607733Y-125980252D01*
X128607730Y-125980248D01*
X128424785Y-125811836D01*
X128424778Y-125811830D01*
X128257302Y-125702414D01*
X128216607Y-125675827D01*
X128216604Y-125675825D01*
X128216603Y-125675825D01*
X128117037Y-125632151D01*
X128043751Y-125600005D01*
X139994551Y-125600005D01*
X140014316Y-125851145D01*
X140073126Y-126096108D01*
X140073129Y-126096116D01*
X140169533Y-126328858D01*
X140169537Y-126328864D01*
X140301158Y-126543652D01*
X140301160Y-126543654D01*
X140301163Y-126543657D01*
X140301164Y-126543659D01*
X140464776Y-126735224D01*
X140656341Y-126898836D01*
X140656345Y-126898839D01*
X140656347Y-126898841D01*
X140828971Y-127004624D01*
X140871141Y-127030466D01*
X141103889Y-127126873D01*
X141348852Y-127185683D01*
X141420608Y-127191330D01*
X141599995Y-127205449D01*
X141600000Y-127205449D01*
X141600005Y-127205449D01*
X141756967Y-127193095D01*
X141851148Y-127185683D01*
X142096111Y-127126873D01*
X142328859Y-127030466D01*
X142450974Y-126955633D01*
X142543652Y-126898841D01*
X142543654Y-126898839D01*
X142543653Y-126898839D01*
X142543659Y-126898836D01*
X142735224Y-126735224D01*
X142898836Y-126543659D01*
X142898839Y-126543653D01*
X142898841Y-126543652D01*
X142955633Y-126450974D01*
X143030466Y-126328859D01*
X143126873Y-126096111D01*
X143185683Y-125851148D01*
X143199481Y-125675827D01*
X143205449Y-125600005D01*
X143205449Y-125599994D01*
X143185683Y-125348854D01*
X143177446Y-125314542D01*
X143126873Y-125103889D01*
X143030466Y-124871141D01*
X142995628Y-124814290D01*
X142898841Y-124656347D01*
X142898839Y-124656345D01*
X142898833Y-124656338D01*
X142775309Y-124511709D01*
X142727839Y-124426946D01*
X142716420Y-124330464D01*
X142742791Y-124236957D01*
X142775307Y-124188292D01*
X142898836Y-124043659D01*
X142898839Y-124043653D01*
X142898841Y-124043652D01*
X142955633Y-123950974D01*
X143030466Y-123828859D01*
X143126873Y-123596111D01*
X143185683Y-123351148D01*
X143205449Y-123100000D01*
X143202309Y-123060107D01*
X143185683Y-122848854D01*
X143183411Y-122839388D01*
X143126873Y-122603889D01*
X143030466Y-122371141D01*
X143001084Y-122323194D01*
X142898841Y-122156347D01*
X142898839Y-122156345D01*
X142850289Y-122099500D01*
X142775309Y-122011709D01*
X142727839Y-121926946D01*
X142716420Y-121830464D01*
X142742791Y-121736957D01*
X142775307Y-121688292D01*
X142898836Y-121543659D01*
X142898839Y-121543653D01*
X142898841Y-121543652D01*
X142983540Y-121405435D01*
X143030466Y-121328859D01*
X143126873Y-121096111D01*
X143185683Y-120851148D01*
X143205449Y-120600000D01*
X143197109Y-120494036D01*
X143185683Y-120348854D01*
X143180484Y-120327196D01*
X143126873Y-120103889D01*
X143030466Y-119871141D01*
X142957875Y-119752683D01*
X142898841Y-119656347D01*
X142898839Y-119656345D01*
X142856785Y-119607106D01*
X142735224Y-119464776D01*
X142543659Y-119301164D01*
X142543657Y-119301163D01*
X142543654Y-119301160D01*
X142543652Y-119301158D01*
X142328864Y-119169537D01*
X142328858Y-119169533D01*
X142096116Y-119073129D01*
X142096108Y-119073126D01*
X141851145Y-119014316D01*
X141600005Y-118994551D01*
X141599995Y-118994551D01*
X141348854Y-119014316D01*
X141103891Y-119073126D01*
X141103883Y-119073129D01*
X140871141Y-119169533D01*
X140871135Y-119169537D01*
X140656347Y-119301158D01*
X140656345Y-119301160D01*
X140464779Y-119464773D01*
X140464773Y-119464779D01*
X140301160Y-119656345D01*
X140301158Y-119656347D01*
X140169537Y-119871135D01*
X140169533Y-119871141D01*
X140073129Y-120103883D01*
X140073126Y-120103891D01*
X140014316Y-120348854D01*
X139994551Y-120599994D01*
X139994551Y-120600005D01*
X140014316Y-120851145D01*
X140073126Y-121096108D01*
X140073129Y-121096116D01*
X140169533Y-121328858D01*
X140169537Y-121328864D01*
X140301158Y-121543652D01*
X140301165Y-121543661D01*
X140424688Y-121688288D01*
X140472160Y-121773055D01*
X140483579Y-121869537D01*
X140457207Y-121963044D01*
X140424688Y-122011712D01*
X140301165Y-122156338D01*
X140301158Y-122156347D01*
X140169537Y-122371135D01*
X140169533Y-122371141D01*
X140073129Y-122603883D01*
X140073126Y-122603891D01*
X140014316Y-122848854D01*
X139994551Y-123099994D01*
X139994551Y-123100005D01*
X140014316Y-123351145D01*
X140073126Y-123596108D01*
X140073129Y-123596116D01*
X140169533Y-123828858D01*
X140169537Y-123828864D01*
X140301158Y-124043652D01*
X140301165Y-124043661D01*
X140424688Y-124188288D01*
X140472160Y-124273055D01*
X140483579Y-124369537D01*
X140457207Y-124463044D01*
X140424688Y-124511712D01*
X140301165Y-124656338D01*
X140301158Y-124656347D01*
X140169537Y-124871135D01*
X140169533Y-124871141D01*
X140073129Y-125103883D01*
X140073126Y-125103891D01*
X140014316Y-125348854D01*
X139994551Y-125599994D01*
X139994551Y-125600005D01*
X128043751Y-125600005D01*
X127988881Y-125575937D01*
X127988879Y-125575936D01*
X127988878Y-125575936D01*
X127988874Y-125575935D01*
X127747831Y-125514894D01*
X127747813Y-125514890D01*
X127562072Y-125499500D01*
X127562067Y-125499500D01*
X127437933Y-125499500D01*
X127437928Y-125499500D01*
X127252186Y-125514890D01*
X127252168Y-125514894D01*
X127011125Y-125575935D01*
X127011121Y-125575936D01*
X126783396Y-125675825D01*
X126783391Y-125675828D01*
X126575221Y-125811830D01*
X126575214Y-125811836D01*
X126392269Y-125980248D01*
X126392257Y-125980261D01*
X126239529Y-126176485D01*
X126121172Y-126395188D01*
X126040430Y-126630378D01*
X126040428Y-126630389D01*
X126007985Y-126824815D01*
X125999500Y-126875665D01*
X125999500Y-127124335D01*
X113161750Y-127124335D01*
X113185573Y-127078728D01*
X113240151Y-126887985D01*
X113250500Y-126771586D01*
X113250500Y-125408414D01*
X113240151Y-125292015D01*
X113185573Y-125101272D01*
X113093716Y-124925421D01*
X113093712Y-124925416D01*
X113093711Y-124925414D01*
X112968346Y-124771667D01*
X112968344Y-124771665D01*
X112968340Y-124771660D01*
X112968334Y-124771655D01*
X112968332Y-124771653D01*
X112814585Y-124646288D01*
X112814581Y-124646285D01*
X112814579Y-124646284D01*
X112638728Y-124554427D01*
X112638724Y-124554425D01*
X112638722Y-124554425D01*
X112447991Y-124499850D01*
X112447985Y-124499849D01*
X112424705Y-124497779D01*
X112331590Y-124489500D01*
X112331586Y-124489500D01*
X111668414Y-124489500D01*
X111668410Y-124489500D01*
X111552015Y-124499849D01*
X111552008Y-124499850D01*
X111361277Y-124554425D01*
X111361272Y-124554427D01*
X111185421Y-124646284D01*
X111185414Y-124646288D01*
X111031667Y-124771653D01*
X111031653Y-124771667D01*
X110906288Y-124925414D01*
X110906284Y-124925421D01*
X110814427Y-125101272D01*
X110814425Y-125101277D01*
X110759850Y-125292008D01*
X110759849Y-125292015D01*
X110749500Y-125408410D01*
X110749500Y-126310500D01*
X110730546Y-126405788D01*
X110676570Y-126486570D01*
X110595788Y-126540546D01*
X110500500Y-126559500D01*
X110123369Y-126559500D01*
X110052811Y-126565912D01*
X110052803Y-126565914D01*
X109890391Y-126616522D01*
X109744816Y-126704527D01*
X109624527Y-126824816D01*
X109536522Y-126970391D01*
X109485914Y-127132803D01*
X109485912Y-127132811D01*
X109479500Y-127203369D01*
X109479500Y-129116630D01*
X109485912Y-129187188D01*
X109485914Y-129187196D01*
X109536522Y-129349608D01*
X109611553Y-129473723D01*
X109624528Y-129495185D01*
X109703776Y-129574433D01*
X109757750Y-129655212D01*
X109776704Y-129750500D01*
X109757750Y-129845788D01*
X109703774Y-129926570D01*
X109622992Y-129980546D01*
X109527704Y-129999500D01*
X100249500Y-129999500D01*
X100154212Y-129980546D01*
X100073430Y-129926570D01*
X100019454Y-129845788D01*
X100000500Y-129750500D01*
X100000500Y-123800000D01*
X103194732Y-123800000D01*
X103213777Y-124054154D01*
X103270489Y-124302629D01*
X103270495Y-124302645D01*
X103363600Y-124539872D01*
X103363605Y-124539884D01*
X103363607Y-124539888D01*
X103491041Y-124760612D01*
X103491045Y-124760617D01*
X103649945Y-124959872D01*
X103649948Y-124959875D01*
X103649950Y-124959877D01*
X103802338Y-125101272D01*
X103836784Y-125133233D01*
X103868855Y-125155099D01*
X103936908Y-125224438D01*
X103973246Y-125314542D01*
X103972336Y-125411692D01*
X103934318Y-125501100D01*
X103864979Y-125569153D01*
X103785297Y-125601723D01*
X103785382Y-125601995D01*
X103782233Y-125602976D01*
X103777172Y-125605045D01*
X103772807Y-125605913D01*
X103610391Y-125656522D01*
X103464816Y-125744527D01*
X103344527Y-125864816D01*
X103256522Y-126010391D01*
X103205914Y-126172803D01*
X103205912Y-126172811D01*
X103199500Y-126243369D01*
X103199500Y-128356630D01*
X103205912Y-128427188D01*
X103205914Y-128427196D01*
X103256522Y-128589608D01*
X103331553Y-128713723D01*
X103344528Y-128735185D01*
X103464815Y-128855472D01*
X103526873Y-128892987D01*
X103610391Y-128943477D01*
X103610393Y-128943477D01*
X103610394Y-128943478D01*
X103772804Y-128994086D01*
X103772808Y-128994086D01*
X103772811Y-128994087D01*
X103843369Y-129000499D01*
X103843377Y-129000499D01*
X103843384Y-129000500D01*
X103843390Y-129000500D01*
X105956610Y-129000500D01*
X105956616Y-129000500D01*
X105956623Y-129000499D01*
X105956630Y-129000499D01*
X106027188Y-128994087D01*
X106027189Y-128994086D01*
X106027196Y-128994086D01*
X106189606Y-128943478D01*
X106335185Y-128855472D01*
X106455472Y-128735185D01*
X106543478Y-128589606D01*
X106594086Y-128427196D01*
X106600500Y-128356616D01*
X106600500Y-126243384D01*
X106600440Y-126242721D01*
X106594087Y-126172811D01*
X106594086Y-126172808D01*
X106594086Y-126172804D01*
X106543478Y-126010394D01*
X106543477Y-126010393D01*
X106543477Y-126010391D01*
X106492987Y-125926873D01*
X106455472Y-125864815D01*
X106335185Y-125744528D01*
X106271393Y-125705964D01*
X106189608Y-125656522D01*
X106098912Y-125628261D01*
X106027196Y-125605914D01*
X106027193Y-125605913D01*
X106027188Y-125605912D01*
X106022830Y-125605045D01*
X106018044Y-125603062D01*
X106014618Y-125601995D01*
X106014715Y-125601683D01*
X105933071Y-125567864D01*
X105864374Y-125499163D01*
X105827196Y-125409403D01*
X105827199Y-125312248D01*
X105864380Y-125222489D01*
X105931144Y-125155098D01*
X105963217Y-125133232D01*
X106150050Y-124959877D01*
X106308959Y-124760612D01*
X106436393Y-124539888D01*
X106529508Y-124302637D01*
X106586222Y-124054157D01*
X106605268Y-123800000D01*
X106586222Y-123545843D01*
X106541784Y-123351148D01*
X106529510Y-123297370D01*
X106529508Y-123297367D01*
X106529508Y-123297363D01*
X106436393Y-123060112D01*
X106308959Y-122839388D01*
X106275609Y-122797568D01*
X106150054Y-122640127D01*
X105963214Y-122466765D01*
X105752637Y-122323196D01*
X105752632Y-122323194D01*
X105523010Y-122212613D01*
X105523005Y-122212611D01*
X105279464Y-122137488D01*
X105279461Y-122137487D01*
X105171448Y-122121206D01*
X105027435Y-122099500D01*
X104772565Y-122099500D01*
X104646553Y-122118493D01*
X104520538Y-122137487D01*
X104520535Y-122137488D01*
X104276994Y-122212611D01*
X104276989Y-122212613D01*
X104047367Y-122323194D01*
X104047362Y-122323196D01*
X103836785Y-122466765D01*
X103649945Y-122640127D01*
X103491045Y-122839382D01*
X103491041Y-122839388D01*
X103363609Y-123060107D01*
X103363600Y-123060127D01*
X103270495Y-123297354D01*
X103270489Y-123297370D01*
X103213777Y-123545845D01*
X103194732Y-123800000D01*
X100000500Y-123800000D01*
X100000500Y-120256630D01*
X113296849Y-120256630D01*
X113303261Y-120327188D01*
X113303263Y-120327196D01*
X113353871Y-120489608D01*
X113420603Y-120599994D01*
X113441877Y-120635185D01*
X113562164Y-120755472D01*
X113624222Y-120792987D01*
X113707740Y-120843477D01*
X113707742Y-120843477D01*
X113707743Y-120843478D01*
X113870153Y-120894086D01*
X113870157Y-120894086D01*
X113870160Y-120894087D01*
X113940718Y-120900499D01*
X113940726Y-120900499D01*
X113940733Y-120900500D01*
X113940739Y-120900500D01*
X115653959Y-120900500D01*
X115653965Y-120900500D01*
X115653972Y-120900499D01*
X115653979Y-120900499D01*
X115724537Y-120894087D01*
X115724538Y-120894086D01*
X115724545Y-120894086D01*
X115886955Y-120843478D01*
X116032534Y-120755472D01*
X116152821Y-120635185D01*
X116240827Y-120489606D01*
X116291435Y-120327196D01*
X116297849Y-120256616D01*
X116297849Y-118700000D01*
X145894564Y-118700000D01*
X145912381Y-118994551D01*
X145914291Y-119026115D01*
X145973177Y-119347445D01*
X145973179Y-119347454D01*
X146003481Y-119444696D01*
X146069433Y-119656345D01*
X146070375Y-119659366D01*
X146204456Y-119957282D01*
X146373466Y-120236858D01*
X146574946Y-120494029D01*
X146574948Y-120494031D01*
X146574952Y-120494036D01*
X146805964Y-120725048D01*
X146805968Y-120725051D01*
X146805970Y-120725053D01*
X147063141Y-120926533D01*
X147342717Y-121095543D01*
X147342719Y-121095544D01*
X147342721Y-121095545D01*
X147640639Y-121229627D01*
X147952547Y-121326821D01*
X148273885Y-121385708D01*
X148273886Y-121385708D01*
X148273896Y-121385710D01*
X148600000Y-121405436D01*
X148926104Y-121385710D01*
X149247453Y-121326821D01*
X149559361Y-121229627D01*
X149857279Y-121095545D01*
X150136863Y-120926530D01*
X150394036Y-120725048D01*
X150625048Y-120494036D01*
X150826530Y-120236863D01*
X150995545Y-119957279D01*
X151129627Y-119659361D01*
X151226821Y-119347453D01*
X151285710Y-119026104D01*
X151305436Y-118700000D01*
X151285710Y-118373896D01*
X151226821Y-118052547D01*
X151129627Y-117740639D01*
X150995545Y-117442721D01*
X150885624Y-117260890D01*
X150826533Y-117163141D01*
X150625053Y-116905970D01*
X150625051Y-116905968D01*
X150625048Y-116905964D01*
X150394036Y-116674952D01*
X150394031Y-116674948D01*
X150394029Y-116674946D01*
X150136858Y-116473466D01*
X149857282Y-116304456D01*
X149559366Y-116170375D01*
X149559364Y-116170374D01*
X149559361Y-116170373D01*
X149376436Y-116113371D01*
X149247454Y-116073179D01*
X149247445Y-116073177D01*
X148926114Y-116014291D01*
X148926116Y-116014291D01*
X148926106Y-116014290D01*
X148926104Y-116014290D01*
X148600000Y-115994564D01*
X148273896Y-116014290D01*
X148273893Y-116014290D01*
X148273884Y-116014291D01*
X147952554Y-116073177D01*
X147952545Y-116073179D01*
X147640633Y-116170375D01*
X147342717Y-116304456D01*
X147063141Y-116473466D01*
X146805970Y-116674946D01*
X146574946Y-116905970D01*
X146373466Y-117163141D01*
X146204456Y-117442717D01*
X146070375Y-117740633D01*
X145973179Y-118052545D01*
X145973177Y-118052554D01*
X145914291Y-118373884D01*
X145914290Y-118373893D01*
X145914290Y-118373896D01*
X145894564Y-118700000D01*
X116297849Y-118700000D01*
X116297849Y-118543384D01*
X116291435Y-118472804D01*
X116240827Y-118310394D01*
X116240826Y-118310393D01*
X116240826Y-118310391D01*
X116185629Y-118219086D01*
X116152821Y-118164815D01*
X116032534Y-118044528D01*
X116011072Y-118031553D01*
X115886957Y-117956522D01*
X115724545Y-117905914D01*
X115724537Y-117905912D01*
X115653979Y-117899500D01*
X115653965Y-117899500D01*
X113940733Y-117899500D01*
X113940718Y-117899500D01*
X113870160Y-117905912D01*
X113870152Y-117905914D01*
X113707740Y-117956522D01*
X113562165Y-118044527D01*
X113441876Y-118164816D01*
X113353871Y-118310391D01*
X113303263Y-118472803D01*
X113303261Y-118472811D01*
X113296849Y-118543369D01*
X113296849Y-120256630D01*
X100000500Y-120256630D01*
X100000500Y-119374130D01*
X103179500Y-119374130D01*
X103185912Y-119444688D01*
X103185914Y-119444696D01*
X103236522Y-119607108D01*
X103266289Y-119656347D01*
X103324528Y-119752685D01*
X103444815Y-119872972D01*
X103506873Y-119910487D01*
X103590391Y-119960977D01*
X103590393Y-119960977D01*
X103590394Y-119960978D01*
X103752804Y-120011586D01*
X103752808Y-120011586D01*
X103752811Y-120011587D01*
X103823369Y-120017999D01*
X103823377Y-120017999D01*
X103823384Y-120018000D01*
X103823390Y-120018000D01*
X105936610Y-120018000D01*
X105936616Y-120018000D01*
X105936623Y-120017999D01*
X105936630Y-120017999D01*
X106007188Y-120011587D01*
X106007189Y-120011586D01*
X106007196Y-120011586D01*
X106169606Y-119960978D01*
X106315185Y-119872972D01*
X106435472Y-119752685D01*
X106523478Y-119607106D01*
X106574086Y-119444696D01*
X106580500Y-119374116D01*
X106580500Y-117260884D01*
X106574086Y-117190304D01*
X106523478Y-117027894D01*
X106523477Y-117027893D01*
X106523477Y-117027891D01*
X106449768Y-116905964D01*
X106435472Y-116882315D01*
X106315185Y-116762028D01*
X106293723Y-116749053D01*
X106169608Y-116674022D01*
X106007196Y-116623414D01*
X106007188Y-116623412D01*
X105936630Y-116617000D01*
X105936616Y-116617000D01*
X103823384Y-116617000D01*
X103823369Y-116617000D01*
X103752811Y-116623412D01*
X103752803Y-116623414D01*
X103590391Y-116674022D01*
X103444816Y-116762027D01*
X103324527Y-116882316D01*
X103236522Y-117027891D01*
X103185914Y-117190303D01*
X103185912Y-117190311D01*
X103179500Y-117260869D01*
X103179500Y-119374130D01*
X100000500Y-119374130D01*
X100000500Y-114135005D01*
X109044706Y-114135005D01*
X109063852Y-114378291D01*
X109063854Y-114378306D01*
X109120828Y-114615613D01*
X109214221Y-114841085D01*
X109214228Y-114841098D01*
X109312669Y-115001740D01*
X109346296Y-115092890D01*
X109342481Y-115189970D01*
X109301806Y-115278200D01*
X109276432Y-115307909D01*
X109194528Y-115389813D01*
X109106522Y-115535391D01*
X109055914Y-115697803D01*
X109055912Y-115697811D01*
X109049500Y-115768369D01*
X109049500Y-117581630D01*
X109055912Y-117652188D01*
X109055914Y-117652196D01*
X109106522Y-117814608D01*
X109161720Y-117905914D01*
X109194528Y-117960185D01*
X109314815Y-118080472D01*
X109376873Y-118117987D01*
X109460391Y-118168477D01*
X109460393Y-118168477D01*
X109460394Y-118168478D01*
X109622804Y-118219086D01*
X109622808Y-118219086D01*
X109622811Y-118219087D01*
X109693369Y-118225499D01*
X109693377Y-118225499D01*
X109693384Y-118225500D01*
X109693390Y-118225500D01*
X111506610Y-118225500D01*
X111506616Y-118225500D01*
X111506623Y-118225499D01*
X111506630Y-118225499D01*
X111577188Y-118219087D01*
X111577189Y-118219086D01*
X111577196Y-118219086D01*
X111739606Y-118168478D01*
X111745666Y-118164815D01*
X111761067Y-118155503D01*
X111885185Y-118080472D01*
X112005472Y-117960185D01*
X112093478Y-117814606D01*
X112144086Y-117652196D01*
X112150500Y-117581616D01*
X112150500Y-115768384D01*
X112144086Y-115697804D01*
X112093478Y-115535394D01*
X112093477Y-115535393D01*
X112093477Y-115535391D01*
X112018994Y-115412183D01*
X112005472Y-115389815D01*
X111923564Y-115307907D01*
X111869591Y-115227129D01*
X111850637Y-115131841D01*
X111869591Y-115036553D01*
X111887325Y-115001747D01*
X111985777Y-114841089D01*
X112079172Y-114615612D01*
X112098646Y-114534500D01*
X136941190Y-114534500D01*
X136961473Y-114740434D01*
X137021541Y-114938455D01*
X137119089Y-115120952D01*
X137250356Y-115280903D01*
X137250369Y-115280916D01*
X137410320Y-115412183D01*
X137410321Y-115412183D01*
X137410323Y-115412185D01*
X137592819Y-115509732D01*
X137790839Y-115569800D01*
X137996773Y-115590083D01*
X138202707Y-115569800D01*
X138400727Y-115509732D01*
X138583223Y-115412185D01*
X138710282Y-115307911D01*
X138743176Y-115280916D01*
X138743177Y-115280914D01*
X138743183Y-115280910D01*
X138874458Y-115120950D01*
X138972005Y-114938454D01*
X139032073Y-114740434D01*
X139052356Y-114534500D01*
X139032073Y-114328566D01*
X138998621Y-114218290D01*
X138995191Y-114203987D01*
X138991601Y-114183839D01*
X138991597Y-114183822D01*
X138907847Y-113910356D01*
X138898067Y-113813695D01*
X138908253Y-113763213D01*
X138993597Y-113489945D01*
X138993598Y-113489944D01*
X139011563Y-113419685D01*
X139028099Y-113365171D01*
X139035300Y-113341434D01*
X139055583Y-113135500D01*
X139035300Y-112929566D01*
X138975232Y-112731546D01*
X138877685Y-112549050D01*
X138877683Y-112549047D01*
X138746416Y-112389096D01*
X138746403Y-112389083D01*
X138586452Y-112257816D01*
X138403955Y-112160268D01*
X138205934Y-112100200D01*
X138000000Y-112079917D01*
X137794065Y-112100200D01*
X137596044Y-112160268D01*
X137413547Y-112257816D01*
X137253596Y-112389083D01*
X137253583Y-112389096D01*
X137122316Y-112549047D01*
X137024768Y-112731544D01*
X136969580Y-112913477D01*
X136964700Y-112929566D01*
X136944417Y-113135500D01*
X136952820Y-113220821D01*
X136964700Y-113341433D01*
X136964700Y-113341435D01*
X136997236Y-113448695D01*
X137000773Y-113463600D01*
X137004102Y-113482821D01*
X137087649Y-113760485D01*
X137096954Y-113857193D01*
X137087294Y-113905143D01*
X137085698Y-113910356D01*
X137001946Y-114183832D01*
X137001942Y-114183846D01*
X137001941Y-114183851D01*
X136986112Y-114246836D01*
X136984506Y-114252630D01*
X136961472Y-114328567D01*
X136941190Y-114534500D01*
X112098646Y-114534500D01*
X112136146Y-114378302D01*
X112140060Y-114328566D01*
X112155294Y-114135005D01*
X112155294Y-114134994D01*
X112136147Y-113891708D01*
X112136145Y-113891693D01*
X112104644Y-113760485D01*
X112079172Y-113654388D01*
X111985777Y-113428911D01*
X111932171Y-113341434D01*
X111858264Y-113220827D01*
X111858257Y-113220818D01*
X111699767Y-113035250D01*
X111699764Y-113035247D01*
X111699759Y-113035241D01*
X111699752Y-113035235D01*
X111699749Y-113035232D01*
X111514181Y-112876742D01*
X111514172Y-112876735D01*
X111306101Y-112749230D01*
X111306085Y-112749221D01*
X111080613Y-112655828D01*
X110843306Y-112598854D01*
X110843291Y-112598852D01*
X110600006Y-112579706D01*
X110599994Y-112579706D01*
X110356708Y-112598852D01*
X110356693Y-112598854D01*
X110119386Y-112655828D01*
X109893914Y-112749221D01*
X109893898Y-112749230D01*
X109685827Y-112876735D01*
X109685818Y-112876742D01*
X109500250Y-113035232D01*
X109500232Y-113035250D01*
X109341742Y-113220818D01*
X109341735Y-113220827D01*
X109214230Y-113428898D01*
X109214221Y-113428914D01*
X109120828Y-113654386D01*
X109063854Y-113891693D01*
X109063852Y-113891708D01*
X109044706Y-114134994D01*
X109044706Y-114135005D01*
X100000500Y-114135005D01*
X100000500Y-109340004D01*
X144256542Y-109340004D01*
X144275543Y-109581443D01*
X144275544Y-109581450D01*
X144321137Y-109771361D01*
X144332084Y-109816955D01*
X144424769Y-110040715D01*
X144432243Y-110052911D01*
X144551317Y-110247224D01*
X144695590Y-110416146D01*
X144708610Y-110431390D01*
X144708616Y-110431395D01*
X144708619Y-110431398D01*
X144892775Y-110588682D01*
X144892777Y-110588683D01*
X144892778Y-110588684D01*
X145099285Y-110715231D01*
X145323045Y-110807916D01*
X145512956Y-110853508D01*
X145558549Y-110864455D01*
X145558556Y-110864456D01*
X145799996Y-110883458D01*
X145800000Y-110883458D01*
X145800004Y-110883458D01*
X146041443Y-110864456D01*
X146041450Y-110864455D01*
X146276955Y-110807916D01*
X146500715Y-110715231D01*
X146707222Y-110588684D01*
X146891390Y-110431390D01*
X147048684Y-110247222D01*
X147175231Y-110040715D01*
X147267916Y-109816955D01*
X147324455Y-109581450D01*
X147343458Y-109340000D01*
X147343458Y-109339995D01*
X147324456Y-109098556D01*
X147324455Y-109098549D01*
X147313508Y-109052956D01*
X147271988Y-108880005D01*
X148744706Y-108880005D01*
X148763852Y-109123291D01*
X148763854Y-109123306D01*
X148820828Y-109360613D01*
X148914221Y-109586085D01*
X148914230Y-109586101D01*
X149041735Y-109794172D01*
X149041742Y-109794181D01*
X149156686Y-109928763D01*
X149200241Y-109979759D01*
X149200247Y-109979764D01*
X149200250Y-109979767D01*
X149385818Y-110138257D01*
X149385827Y-110138264D01*
X149563632Y-110247222D01*
X149593911Y-110265777D01*
X149819388Y-110359172D01*
X149990661Y-110400291D01*
X150056693Y-110416145D01*
X150056694Y-110416145D01*
X150056698Y-110416146D01*
X150056704Y-110416146D01*
X150056708Y-110416147D01*
X150299994Y-110435294D01*
X150300000Y-110435294D01*
X150300006Y-110435294D01*
X150543291Y-110416147D01*
X150543293Y-110416146D01*
X150543302Y-110416146D01*
X150780612Y-110359172D01*
X150945217Y-110290990D01*
X151040500Y-110272038D01*
X151135788Y-110290992D01*
X151216569Y-110344968D01*
X151270546Y-110425749D01*
X151289500Y-110521038D01*
X151289500Y-112326630D01*
X151295912Y-112397188D01*
X151295914Y-112397196D01*
X151346522Y-112559608D01*
X151421553Y-112683723D01*
X151434528Y-112705185D01*
X151554815Y-112825472D01*
X151616873Y-112862987D01*
X151700391Y-112913477D01*
X151700393Y-112913477D01*
X151700394Y-112913478D01*
X151862804Y-112964086D01*
X151862808Y-112964086D01*
X151862811Y-112964087D01*
X151933369Y-112970499D01*
X151933377Y-112970499D01*
X151933384Y-112970500D01*
X151933390Y-112970500D01*
X153746610Y-112970500D01*
X153746616Y-112970500D01*
X153746623Y-112970499D01*
X153746630Y-112970499D01*
X153817188Y-112964087D01*
X153817189Y-112964086D01*
X153817196Y-112964086D01*
X153979606Y-112913478D01*
X154125185Y-112825472D01*
X154245472Y-112705185D01*
X154333478Y-112559606D01*
X154384086Y-112397196D01*
X154384824Y-112389083D01*
X154390499Y-112326630D01*
X154390500Y-112326609D01*
X154390500Y-110513390D01*
X154390499Y-110513369D01*
X154384087Y-110442811D01*
X154384086Y-110442808D01*
X154384086Y-110442804D01*
X154333478Y-110280394D01*
X154333477Y-110280393D01*
X154333477Y-110280391D01*
X154282987Y-110196873D01*
X154245472Y-110134815D01*
X154163564Y-110052907D01*
X154109591Y-109972129D01*
X154090637Y-109876841D01*
X154109591Y-109781553D01*
X154127325Y-109746747D01*
X154225777Y-109586089D01*
X154319172Y-109360612D01*
X154376146Y-109123302D01*
X154395294Y-108880000D01*
X154393959Y-108863041D01*
X154376147Y-108636708D01*
X154376145Y-108636693D01*
X154327188Y-108432778D01*
X154319172Y-108399388D01*
X154225777Y-108173911D01*
X154175163Y-108091316D01*
X154098264Y-107965827D01*
X154098257Y-107965818D01*
X153933405Y-107772801D01*
X153935516Y-107770997D01*
X153891611Y-107705288D01*
X153872657Y-107610000D01*
X153891611Y-107514712D01*
X153935516Y-107449002D01*
X153933405Y-107447199D01*
X154098257Y-107254181D01*
X154098264Y-107254172D01*
X154165024Y-107145228D01*
X154225777Y-107046089D01*
X154319172Y-106820612D01*
X154376146Y-106583302D01*
X154395294Y-106340000D01*
X154393959Y-106323041D01*
X154376147Y-106096708D01*
X154376145Y-106096693D01*
X154327188Y-105892778D01*
X154319172Y-105859388D01*
X154225777Y-105633911D01*
X154175163Y-105551316D01*
X154098264Y-105425827D01*
X154098257Y-105425818D01*
X153933405Y-105232801D01*
X153935516Y-105230997D01*
X153891611Y-105165288D01*
X153872657Y-105070000D01*
X153891611Y-104974712D01*
X153935516Y-104909002D01*
X153933405Y-104907199D01*
X154098257Y-104714181D01*
X154098264Y-104714172D01*
X154165024Y-104605228D01*
X154225777Y-104506089D01*
X154319172Y-104280612D01*
X154376146Y-104043302D01*
X154395294Y-103800000D01*
X154393959Y-103783041D01*
X154376147Y-103556708D01*
X154376145Y-103556693D01*
X154327188Y-103352778D01*
X154319172Y-103319388D01*
X154225777Y-103093911D01*
X154222613Y-103088749D01*
X154098264Y-102885827D01*
X154098257Y-102885818D01*
X153939767Y-102700250D01*
X153939764Y-102700247D01*
X153939759Y-102700241D01*
X153939752Y-102700235D01*
X153939749Y-102700232D01*
X153754181Y-102541742D01*
X153754172Y-102541735D01*
X153546101Y-102414230D01*
X153546085Y-102414221D01*
X153320613Y-102320828D01*
X153083306Y-102263854D01*
X153083291Y-102263852D01*
X152840006Y-102244706D01*
X152839994Y-102244706D01*
X152596708Y-102263852D01*
X152596693Y-102263854D01*
X152359386Y-102320828D01*
X152133914Y-102414221D01*
X152133898Y-102414230D01*
X151925827Y-102541735D01*
X151925818Y-102541742D01*
X151732801Y-102706595D01*
X151730997Y-102704483D01*
X151665288Y-102748389D01*
X151570000Y-102767343D01*
X151474712Y-102748389D01*
X151409002Y-102704483D01*
X151407199Y-102706595D01*
X151214181Y-102541742D01*
X151214172Y-102541735D01*
X151006101Y-102414230D01*
X151006085Y-102414221D01*
X150780613Y-102320828D01*
X150543306Y-102263854D01*
X150543291Y-102263852D01*
X150300006Y-102244706D01*
X150299994Y-102244706D01*
X150056708Y-102263852D01*
X150056693Y-102263854D01*
X149819386Y-102320828D01*
X149593914Y-102414221D01*
X149593898Y-102414230D01*
X149385827Y-102541735D01*
X149385818Y-102541742D01*
X149200250Y-102700232D01*
X149200232Y-102700250D01*
X149041742Y-102885818D01*
X149041735Y-102885827D01*
X148914230Y-103093898D01*
X148914221Y-103093914D01*
X148820828Y-103319386D01*
X148763854Y-103556693D01*
X148763852Y-103556708D01*
X148744706Y-103799994D01*
X148744706Y-103800005D01*
X148763852Y-104043291D01*
X148763854Y-104043306D01*
X148820828Y-104280613D01*
X148914221Y-104506085D01*
X148914230Y-104506101D01*
X149041735Y-104714172D01*
X149041742Y-104714181D01*
X149206595Y-104907199D01*
X149204483Y-104909002D01*
X149248389Y-104974712D01*
X149267343Y-105070000D01*
X149248389Y-105165288D01*
X149204483Y-105230997D01*
X149206595Y-105232801D01*
X149041742Y-105425818D01*
X149041735Y-105425827D01*
X148914230Y-105633898D01*
X148914221Y-105633914D01*
X148820828Y-105859386D01*
X148763854Y-106096693D01*
X148763852Y-106096708D01*
X148744706Y-106339994D01*
X148744706Y-106340005D01*
X148763852Y-106583291D01*
X148763854Y-106583306D01*
X148820828Y-106820613D01*
X148914221Y-107046085D01*
X148914230Y-107046101D01*
X149041735Y-107254172D01*
X149041742Y-107254181D01*
X149206595Y-107447199D01*
X149204483Y-107449002D01*
X149248389Y-107514712D01*
X149267343Y-107610000D01*
X149248389Y-107705288D01*
X149204483Y-107770997D01*
X149206595Y-107772801D01*
X149041742Y-107965818D01*
X149041735Y-107965827D01*
X148914230Y-108173898D01*
X148914221Y-108173914D01*
X148820828Y-108399386D01*
X148763854Y-108636693D01*
X148763852Y-108636708D01*
X148744706Y-108879994D01*
X148744706Y-108880005D01*
X147271988Y-108880005D01*
X147267916Y-108863045D01*
X147175231Y-108639285D01*
X147048684Y-108432778D01*
X147048683Y-108432777D01*
X147048682Y-108432775D01*
X146891398Y-108248619D01*
X146891395Y-108248616D01*
X146891390Y-108248610D01*
X146891383Y-108248604D01*
X146888849Y-108246070D01*
X146887512Y-108244069D01*
X146885036Y-108241170D01*
X146885379Y-108240876D01*
X146834873Y-108165288D01*
X146815919Y-108070000D01*
X146834873Y-107974712D01*
X146885379Y-107899123D01*
X146885036Y-107898830D01*
X146887512Y-107895930D01*
X146888849Y-107893930D01*
X146891376Y-107891401D01*
X146891390Y-107891390D01*
X147048684Y-107707222D01*
X147175231Y-107500715D01*
X147267916Y-107276955D01*
X147324455Y-107041450D01*
X147343458Y-106800000D01*
X147343458Y-106799995D01*
X147324456Y-106558556D01*
X147324455Y-106558549D01*
X147313508Y-106512956D01*
X147267916Y-106323045D01*
X147175231Y-106099285D01*
X147048684Y-105892778D01*
X147048683Y-105892777D01*
X147048682Y-105892775D01*
X146891398Y-105708619D01*
X146891395Y-105708616D01*
X146891390Y-105708610D01*
X146891383Y-105708604D01*
X146888849Y-105706070D01*
X146887512Y-105704069D01*
X146885036Y-105701170D01*
X146885379Y-105700876D01*
X146834873Y-105625288D01*
X146815919Y-105530000D01*
X146834873Y-105434712D01*
X146885379Y-105359123D01*
X146885036Y-105358830D01*
X146887512Y-105355930D01*
X146888849Y-105353930D01*
X146891376Y-105351401D01*
X146891390Y-105351390D01*
X147048684Y-105167222D01*
X147175231Y-104960715D01*
X147267916Y-104736955D01*
X147324455Y-104501450D01*
X147343458Y-104260000D01*
X147343458Y-104259995D01*
X147324456Y-104018556D01*
X147324455Y-104018549D01*
X147313508Y-103972956D01*
X147267916Y-103783045D01*
X147175231Y-103559285D01*
X147048684Y-103352778D01*
X147048683Y-103352777D01*
X147048682Y-103352775D01*
X146891398Y-103168619D01*
X146891395Y-103168616D01*
X146891390Y-103168610D01*
X146891383Y-103168604D01*
X146891380Y-103168601D01*
X146707224Y-103011317D01*
X146651656Y-102977265D01*
X146500715Y-102884769D01*
X146359614Y-102826322D01*
X146276958Y-102792085D01*
X146276956Y-102792084D01*
X146276955Y-102792084D01*
X146231361Y-102781137D01*
X146041450Y-102735544D01*
X146041443Y-102735543D01*
X145800004Y-102716542D01*
X145799996Y-102716542D01*
X145558556Y-102735543D01*
X145558549Y-102735544D01*
X145323045Y-102792084D01*
X145323041Y-102792085D01*
X145099285Y-102884769D01*
X144892775Y-103011317D01*
X144708619Y-103168601D01*
X144708601Y-103168619D01*
X144551317Y-103352775D01*
X144424769Y-103559285D01*
X144332085Y-103783041D01*
X144332084Y-103783045D01*
X144275544Y-104018549D01*
X144275543Y-104018556D01*
X144256542Y-104259995D01*
X144256542Y-104260004D01*
X144275543Y-104501443D01*
X144275544Y-104501450D01*
X144321137Y-104691361D01*
X144332084Y-104736955D01*
X144424769Y-104960715D01*
X144517265Y-105111656D01*
X144551317Y-105167224D01*
X144708601Y-105351380D01*
X144708610Y-105351390D01*
X144708616Y-105351395D01*
X144711151Y-105353930D01*
X144712487Y-105355930D01*
X144714964Y-105358830D01*
X144714620Y-105359123D01*
X144765127Y-105434712D01*
X144784081Y-105530000D01*
X144765127Y-105625288D01*
X144714620Y-105700876D01*
X144714964Y-105701170D01*
X144712487Y-105704069D01*
X144711151Y-105706070D01*
X144708601Y-105708619D01*
X144551317Y-105892775D01*
X144424769Y-106099285D01*
X144332085Y-106323041D01*
X144332084Y-106323045D01*
X144275544Y-106558549D01*
X144275543Y-106558556D01*
X144256542Y-106799995D01*
X144256542Y-106800004D01*
X144275543Y-107041443D01*
X144275544Y-107041450D01*
X144321137Y-107231361D01*
X144332084Y-107276955D01*
X144424769Y-107500715D01*
X144517265Y-107651656D01*
X144551317Y-107707224D01*
X144708601Y-107891380D01*
X144708610Y-107891390D01*
X144708616Y-107891395D01*
X144711151Y-107893930D01*
X144712487Y-107895930D01*
X144714964Y-107898830D01*
X144714620Y-107899123D01*
X144765127Y-107974712D01*
X144784081Y-108070000D01*
X144765127Y-108165288D01*
X144714620Y-108240876D01*
X144714964Y-108241170D01*
X144712487Y-108244069D01*
X144711151Y-108246070D01*
X144708601Y-108248619D01*
X144551317Y-108432775D01*
X144424769Y-108639285D01*
X144332085Y-108863041D01*
X144332084Y-108863045D01*
X144275544Y-109098549D01*
X144275543Y-109098556D01*
X144256542Y-109339995D01*
X144256542Y-109340004D01*
X100000500Y-109340004D01*
X100000500Y-100249500D01*
X100019454Y-100154212D01*
X100073430Y-100073430D01*
X100154212Y-100019454D01*
X100249500Y-100000500D01*
X154750500Y-100000500D01*
X154845788Y-100019454D01*
G37*
%TD.AperFunction*%
%TD*%
%TA.AperFunction,Conductor*%
%TO.N,Net-(D2-A)*%
G36*
X138146393Y-113837927D02*
G01*
X138149307Y-113842774D01*
X138317025Y-114390420D01*
X138316171Y-114399334D01*
X138310344Y-114404644D01*
X138001279Y-114533619D01*
X137992324Y-114533642D01*
X137992267Y-114533619D01*
X137683201Y-114404644D01*
X137676886Y-114398295D01*
X137676520Y-114390422D01*
X137844239Y-113842773D01*
X137849938Y-113835867D01*
X137855426Y-113834500D01*
X138138120Y-113834500D01*
X138146393Y-113837927D01*
G37*
%TD.AperFunction*%
%TD*%
%TA.AperFunction,Conductor*%
%TO.N,Net-(D2-A)*%
G36*
X138004478Y-113136368D02*
G01*
X138239681Y-113234520D01*
X138313516Y-113265332D01*
X138319831Y-113271681D01*
X138320178Y-113279618D01*
X138190775Y-113693962D01*
X138149375Y-113826529D01*
X138149338Y-113826646D01*
X138143601Y-113833521D01*
X138138170Y-113834858D01*
X137855471Y-113834858D01*
X137847198Y-113831431D01*
X137844267Y-113826529D01*
X137809247Y-113710143D01*
X137679682Y-113279542D01*
X137680580Y-113270634D01*
X137686379Y-113265375D01*
X137995494Y-113136379D01*
X138004449Y-113136357D01*
X138004478Y-113136368D01*
G37*
%TD.AperFunction*%
%TD*%
M02*
