%TF.GenerationSoftware,KiCad,Pcbnew,7.0.8*%
%TF.CreationDate,2024-06-11T13:29:39+02:00*%
%TF.ProjectId,LED_Driver,4c45445f-4472-4697-9665-722e6b696361,rev?*%
%TF.SameCoordinates,Original*%
%TF.FileFunction,Copper,L1,Top*%
%TF.FilePolarity,Positive*%
%FSLAX46Y46*%
G04 Gerber Fmt 4.6, Leading zero omitted, Abs format (unit mm)*
G04 Created by KiCad (PCBNEW 7.0.8) date 2024-06-11 13:29:39*
%MOMM*%
%LPD*%
G01*
G04 APERTURE LIST*
G04 Aperture macros list*
%AMRoundRect*
0 Rectangle with rounded corners*
0 $1 Rounding radius*
0 $2 $3 $4 $5 $6 $7 $8 $9 X,Y pos of 4 corners*
0 Add a 4 corners polygon primitive as box body*
4,1,4,$2,$3,$4,$5,$6,$7,$8,$9,$2,$3,0*
0 Add four circle primitives for the rounded corners*
1,1,$1+$1,$2,$3*
1,1,$1+$1,$4,$5*
1,1,$1+$1,$6,$7*
1,1,$1+$1,$8,$9*
0 Add four rect primitives between the rounded corners*
20,1,$1+$1,$2,$3,$4,$5,0*
20,1,$1+$1,$4,$5,$6,$7,0*
20,1,$1+$1,$6,$7,$8,$9,0*
20,1,$1+$1,$8,$9,$2,$3,0*%
G04 Aperture macros list end*
%TA.AperFunction,SMDPad,CuDef*%
%ADD10R,2.700000X3.600000*%
%TD*%
%TA.AperFunction,ComponentPad*%
%ADD11R,2.000000X2.000000*%
%TD*%
%TA.AperFunction,ComponentPad*%
%ADD12C,2.000000*%
%TD*%
%TA.AperFunction,ComponentPad*%
%ADD13C,1.676400*%
%TD*%
%TA.AperFunction,SMDPad,CuDef*%
%ADD14RoundRect,0.250000X0.262500X0.450000X-0.262500X0.450000X-0.262500X-0.450000X0.262500X-0.450000X0*%
%TD*%
%TA.AperFunction,ComponentPad*%
%ADD15R,1.100000X1.800000*%
%TD*%
%TA.AperFunction,ComponentPad*%
%ADD16RoundRect,0.275000X-0.275000X-0.625000X0.275000X-0.625000X0.275000X0.625000X-0.275000X0.625000X0*%
%TD*%
%TA.AperFunction,SMDPad,CuDef*%
%ADD17RoundRect,0.150000X-0.150000X0.587500X-0.150000X-0.587500X0.150000X-0.587500X0.150000X0.587500X0*%
%TD*%
%TA.AperFunction,SMDPad,CuDef*%
%ADD18RoundRect,0.250000X-0.450000X0.262500X-0.450000X-0.262500X0.450000X-0.262500X0.450000X0.262500X0*%
%TD*%
%TA.AperFunction,SMDPad,CuDef*%
%ADD19RoundRect,0.250000X1.500000X0.550000X-1.500000X0.550000X-1.500000X-0.550000X1.500000X-0.550000X0*%
%TD*%
%TA.AperFunction,ComponentPad*%
%ADD20R,1.600000X1.600000*%
%TD*%
%TA.AperFunction,ComponentPad*%
%ADD21C,1.600000*%
%TD*%
%TA.AperFunction,SMDPad,CuDef*%
%ADD22RoundRect,0.237500X0.237500X-0.300000X0.237500X0.300000X-0.237500X0.300000X-0.237500X-0.300000X0*%
%TD*%
%TA.AperFunction,SMDPad,CuDef*%
%ADD23RoundRect,0.237500X-0.237500X0.300000X-0.237500X-0.300000X0.237500X-0.300000X0.237500X0.300000X0*%
%TD*%
%TA.AperFunction,SMDPad,CuDef*%
%ADD24RoundRect,0.250000X-0.262500X-0.450000X0.262500X-0.450000X0.262500X0.450000X-0.262500X0.450000X0*%
%TD*%
%TA.AperFunction,ComponentPad*%
%ADD25R,1.700000X1.700000*%
%TD*%
%TA.AperFunction,ComponentPad*%
%ADD26O,1.700000X1.700000*%
%TD*%
%TA.AperFunction,SMDPad,CuDef*%
%ADD27R,1.500000X2.000000*%
%TD*%
%TA.AperFunction,SMDPad,CuDef*%
%ADD28R,3.800000X2.000000*%
%TD*%
%TA.AperFunction,SMDPad,CuDef*%
%ADD29RoundRect,0.237500X0.300000X0.237500X-0.300000X0.237500X-0.300000X-0.237500X0.300000X-0.237500X0*%
%TD*%
%TA.AperFunction,SMDPad,CuDef*%
%ADD30RoundRect,0.250000X1.000000X0.650000X-1.000000X0.650000X-1.000000X-0.650000X1.000000X-0.650000X0*%
%TD*%
%TA.AperFunction,SMDPad,CuDef*%
%ADD31RoundRect,0.225000X-0.375000X0.225000X-0.375000X-0.225000X0.375000X-0.225000X0.375000X0.225000X0*%
%TD*%
%TA.AperFunction,SMDPad,CuDef*%
%ADD32RoundRect,0.150000X-0.825000X-0.150000X0.825000X-0.150000X0.825000X0.150000X-0.825000X0.150000X0*%
%TD*%
%TA.AperFunction,SMDPad,CuDef*%
%ADD33RoundRect,0.225000X0.225000X0.375000X-0.225000X0.375000X-0.225000X-0.375000X0.225000X-0.375000X0*%
%TD*%
%TA.AperFunction,SMDPad,CuDef*%
%ADD34RoundRect,0.250000X2.050000X0.300000X-2.050000X0.300000X-2.050000X-0.300000X2.050000X-0.300000X0*%
%TD*%
%TA.AperFunction,SMDPad,CuDef*%
%ADD35RoundRect,0.250000X2.025000X2.375000X-2.025000X2.375000X-2.025000X-2.375000X2.025000X-2.375000X0*%
%TD*%
%TA.AperFunction,SMDPad,CuDef*%
%ADD36RoundRect,0.250002X4.449998X5.149998X-4.449998X5.149998X-4.449998X-5.149998X4.449998X-5.149998X0*%
%TD*%
%TA.AperFunction,SMDPad,CuDef*%
%ADD37RoundRect,0.250000X-0.450000X0.350000X-0.450000X-0.350000X0.450000X-0.350000X0.450000X0.350000X0*%
%TD*%
%TA.AperFunction,WasherPad*%
%ADD38C,4.000000*%
%TD*%
%TA.AperFunction,ComponentPad*%
%ADD39C,1.800000*%
%TD*%
%TA.AperFunction,ViaPad*%
%ADD40C,0.700000*%
%TD*%
%TA.AperFunction,Conductor*%
%ADD41C,0.500000*%
%TD*%
%TA.AperFunction,Conductor*%
%ADD42C,0.300000*%
%TD*%
%TA.AperFunction,Conductor*%
%ADD43C,0.250000*%
%TD*%
G04 APERTURE END LIST*
D10*
%TO.P,L1,1*%
%TO.N,/OUT*%
X123450000Y-115800000D03*
%TO.P,L1,2*%
%TO.N,+5V*%
X131750000Y-115800000D03*
%TD*%
D11*
%TO.P,LOAD,1,Pin_1*%
%TO.N,LOAD_OUT*%
X104900000Y-127300000D03*
D12*
%TO.P,LOAD,2,Pin_2*%
%TO.N,VDC*%
X104900000Y-123800000D03*
%TD*%
D13*
%TO.P,SW2,1,A*%
%TO.N,ESP-01_EN*%
X145800000Y-104260000D03*
%TO.P,SW2,2,B*%
%TO.N,+3.3V*%
X145800000Y-106800000D03*
%TO.P,SW2,3,C*%
%TO.N,ESP-01_GPIO1*%
X145800000Y-109340000D03*
%TD*%
D14*
%TO.P,R4,1*%
%TO.N,Net-(Q1-G)*%
X111412500Y-119600000D03*
%TO.P,R4,2*%
%TO.N,GND*%
X109587500Y-119600000D03*
%TD*%
D15*
%TO.P,Q2,1,C*%
%TO.N,LOAD_OUT*%
X110730000Y-128160000D03*
D16*
%TO.P,Q2,2,B*%
%TO.N,Net-(Q2-B)*%
X112000000Y-126090000D03*
%TO.P,Q2,3,E*%
%TO.N,GND*%
X113270000Y-128160000D03*
%TD*%
D14*
%TO.P,R6,1*%
%TO.N,Net-(Q3-S)*%
X117512500Y-126800000D03*
%TO.P,R6,2*%
%TO.N,Net-(Q2-B)*%
X115687500Y-126800000D03*
%TD*%
D17*
%TO.P,Q1,1,D*%
%TO.N,LOAD_OUT*%
X110550000Y-123537500D03*
%TO.P,Q1,2,G*%
%TO.N,Net-(Q1-G)*%
X111500000Y-121662500D03*
%TO.P,Q1,3,S*%
%TO.N,GND*%
X109600000Y-121662500D03*
%TD*%
D18*
%TO.P,R8,1*%
%TO.N,ESP-01_GPIO1*%
X123600000Y-123887500D03*
%TO.P,R8,2*%
%TO.N,GND*%
X123600000Y-125712500D03*
%TD*%
D19*
%TO.P,C2,1*%
%TO.N,+5V*%
X125700000Y-106000000D03*
%TO.P,C2,2*%
%TO.N,GND*%
X120300000Y-106000000D03*
%TD*%
D20*
%TO.P,C1,1*%
%TO.N,VDC*%
X114797349Y-119400000D03*
D21*
%TO.P,C1,2*%
%TO.N,GND*%
X118597349Y-119400000D03*
%TD*%
D22*
%TO.P,C4,1*%
%TO.N,Net-(U2-CV)*%
X142800000Y-114062500D03*
%TO.P,C4,2*%
%TO.N,GND*%
X142800000Y-112337500D03*
%TD*%
D14*
%TO.P,R5,1*%
%TO.N,+5V*%
X123512500Y-101200000D03*
%TO.P,R5,2*%
%TO.N,/FB*%
X121687500Y-101200000D03*
%TD*%
D23*
%TO.P,C7,1*%
%TO.N,+5V*%
X130800000Y-102137500D03*
%TO.P,C7,2*%
%TO.N,GND*%
X130800000Y-103862500D03*
%TD*%
D24*
%TO.P,R1,1*%
%TO.N,GND*%
X117975000Y-101200000D03*
%TO.P,R1,2*%
%TO.N,/FB*%
X119800000Y-101200000D03*
%TD*%
D25*
%TO.P,SW1,1,A*%
%TO.N,VDC*%
X110600000Y-116675000D03*
D26*
%TO.P,SW1,2,B*%
%TO.N,Net-(J1-Pin_1)*%
X110600000Y-114135000D03*
%TD*%
D27*
%TO.P,U3,1,GND*%
%TO.N,GND*%
X137700000Y-101450000D03*
%TO.P,U3,2,VO*%
%TO.N,+3.3V*%
X135400000Y-101450000D03*
D28*
X135400000Y-107750000D03*
D27*
%TO.P,U3,3,VI*%
%TO.N,+5V*%
X133100000Y-101450000D03*
%TD*%
D29*
%TO.P,C5,1*%
%TO.N,Net-(U2-THR)*%
X139262500Y-123200000D03*
%TO.P,C5,2*%
%TO.N,GND*%
X137537500Y-123200000D03*
%TD*%
D30*
%TO.P,D1,1,K*%
%TO.N,/OUT*%
X119200000Y-113400000D03*
%TO.P,D1,2,A*%
%TO.N,GND*%
X115200000Y-113400000D03*
%TD*%
D31*
%TO.P,D3,1,K*%
%TO.N,Net-(D2-A)*%
X139000000Y-117950000D03*
%TO.P,D3,2,A*%
%TO.N,Net-(D3-A)*%
X139000000Y-121250000D03*
%TD*%
D25*
%TO.P,U4,1,UTXD*%
%TO.N,ESP-01_GPIO1*%
X152840000Y-111420000D03*
D26*
%TO.P,U4,2,GND*%
%TO.N,GND*%
X150300000Y-111420000D03*
%TO.P,U4,3,CH_PD*%
%TO.N,ESP-01_EN*%
X152840000Y-108880000D03*
%TO.P,U4,4,GPIO2*%
X150300000Y-108880000D03*
%TO.P,U4,5,RST*%
%TO.N,unconnected-(U4-RST-Pad5)*%
X152840000Y-106340000D03*
%TO.P,U4,6,GPIO0*%
%TO.N,ESP-01_EN*%
X150300000Y-106340000D03*
%TO.P,U4,7,VCC*%
X152840000Y-103800000D03*
%TO.P,U4,8,URXD*%
%TO.N,unconnected-(U4-URXD-Pad8)*%
X150300000Y-103800000D03*
%TD*%
D32*
%TO.P,U2,1,GND*%
%TO.N,GND*%
X135725000Y-111295000D03*
%TO.P,U2,2,TR*%
%TO.N,Net-(U2-THR)*%
X135725000Y-112565000D03*
%TO.P,U2,3,Q*%
%TO.N,PWM*%
X135725000Y-113835000D03*
%TO.P,U2,4,R*%
%TO.N,+5V*%
X135725000Y-115105000D03*
%TO.P,U2,5,CV*%
%TO.N,Net-(U2-CV)*%
X140675000Y-115105000D03*
%TO.P,U2,6,THR*%
%TO.N,Net-(U2-THR)*%
X140675000Y-113835000D03*
%TO.P,U2,7,DIS*%
%TO.N,Net-(D2-A)*%
X140675000Y-112565000D03*
%TO.P,U2,8,VCC*%
%TO.N,+5V*%
X140675000Y-111295000D03*
%TD*%
D22*
%TO.P,C8,1*%
%TO.N,+3.3V*%
X140000000Y-105525000D03*
%TO.P,C8,2*%
%TO.N,GND*%
X140000000Y-103800000D03*
%TD*%
D23*
%TO.P,C6,1*%
%TO.N,+5V*%
X129000000Y-102137500D03*
%TO.P,C6,2*%
%TO.N,GND*%
X129000000Y-103862500D03*
%TD*%
D17*
%TO.P,Q3,1,D*%
%TO.N,PWM*%
X120500000Y-127475000D03*
%TO.P,Q3,2,G*%
%TO.N,ESP-01_GPIO1*%
X121450000Y-125600000D03*
%TO.P,Q3,3,S*%
%TO.N,Net-(Q3-S)*%
X119550000Y-125600000D03*
%TD*%
D22*
%TO.P,C9,1*%
%TO.N,+3.3V*%
X141800000Y-105525000D03*
%TO.P,C9,2*%
%TO.N,GND*%
X141800000Y-103800000D03*
%TD*%
D11*
%TO.P,PWR,1,Pin_1*%
%TO.N,Net-(J1-Pin_1)*%
X104880000Y-118317500D03*
D12*
%TO.P,PWR,2,Pin_2*%
%TO.N,GND*%
X104880000Y-114817500D03*
%TD*%
D24*
%TO.P,R7,1*%
%TO.N,Net-(Q2-B)*%
X115687500Y-129000000D03*
%TO.P,R7,2*%
%TO.N,GND*%
X117512500Y-129000000D03*
%TD*%
D33*
%TO.P,D2,1,K*%
%TO.N,Net-(D2-K)*%
X139200000Y-125600000D03*
%TO.P,D2,2,A*%
%TO.N,Net-(D2-A)*%
X135900000Y-125600000D03*
%TD*%
D34*
%TO.P,U1,1,VIN*%
%TO.N,VDC*%
X114400000Y-109200000D03*
%TO.P,U1,2,OUT*%
%TO.N,/OUT*%
X114400000Y-107500000D03*
%TO.P,U1,3,GND*%
%TO.N,GND*%
X114400000Y-105800000D03*
D35*
X107675000Y-108575000D03*
X107675000Y-103025000D03*
D36*
X105250000Y-105800000D03*
D35*
X102825000Y-108575000D03*
X102825000Y-103025000D03*
D34*
%TO.P,U1,4,FB*%
%TO.N,/FB*%
X114400000Y-104100000D03*
%TO.P,U1,5,~{ON}/OFF*%
%TO.N,GND*%
X114400000Y-102400000D03*
%TD*%
D37*
%TO.P,R2,1*%
%TO.N,+5V*%
X135600000Y-117200000D03*
%TO.P,R2,2*%
%TO.N,Net-(D2-A)*%
X135600000Y-119200000D03*
%TD*%
D38*
%TO.P,RV1,*%
%TO.N,*%
X148600000Y-118700000D03*
X148600000Y-127500000D03*
D39*
%TO.P,RV1,1,1*%
%TO.N,Net-(D2-K)*%
X141600000Y-125600000D03*
%TO.P,RV1,2,2*%
%TO.N,Net-(U2-THR)*%
X141600000Y-123100000D03*
%TO.P,RV1,3,3*%
%TO.N,Net-(D3-A)*%
X141600000Y-120600000D03*
%TD*%
D14*
%TO.P,R3,1*%
%TO.N,Net-(Q3-S)*%
X117512500Y-124600000D03*
%TO.P,R3,2*%
%TO.N,Net-(Q1-G)*%
X115687500Y-124600000D03*
%TD*%
D40*
%TO.N,GND*%
X109200000Y-100800000D03*
X105200000Y-105200000D03*
X102200000Y-114500000D03*
X102200000Y-117100000D03*
X101200000Y-107600000D03*
X109200000Y-107600000D03*
X109100000Y-123900000D03*
X141300000Y-118300000D03*
X107700000Y-123900000D03*
X106900000Y-114800000D03*
X105200000Y-107600000D03*
X117400000Y-120900000D03*
X110900000Y-105800000D03*
X101200000Y-100800000D03*
X105200000Y-102800000D03*
X130800000Y-105000000D03*
X102200000Y-124900000D03*
X102200000Y-115800000D03*
X109200000Y-105200000D03*
X102600000Y-111800000D03*
X114400000Y-111800000D03*
X112200000Y-101000000D03*
X102200000Y-126200000D03*
X118600000Y-117900000D03*
X102200000Y-128800000D03*
X107200000Y-110000000D03*
X102200000Y-118400000D03*
X142200000Y-102600000D03*
X124000000Y-127000000D03*
X137000000Y-122000000D03*
X103200000Y-110000000D03*
X102200000Y-119700000D03*
X107200000Y-107600000D03*
X103200000Y-102800000D03*
X118600000Y-121000000D03*
X139800000Y-108400000D03*
X101200000Y-110000000D03*
X106600000Y-111800000D03*
X117400000Y-102625000D03*
X102200000Y-126200000D03*
X120200000Y-104400000D03*
X107200000Y-105200000D03*
X148240000Y-112400000D03*
X122400000Y-104400000D03*
X140200000Y-102600000D03*
X102200000Y-123600000D03*
X122500000Y-107600000D03*
X105200000Y-110000000D03*
X106700000Y-113700000D03*
X117400000Y-118000000D03*
X121300000Y-104400000D03*
X118800000Y-129200000D03*
X142300000Y-108400000D03*
X102200000Y-127500000D03*
X103200000Y-107600000D03*
X139200000Y-100600000D03*
X100600000Y-111800000D03*
X104600000Y-111800000D03*
X109200000Y-102800000D03*
X103200000Y-100800000D03*
X108700000Y-121100000D03*
X137400000Y-111295000D03*
X121400000Y-107600000D03*
X101600000Y-111800000D03*
X142800000Y-111200000D03*
X139200000Y-102600000D03*
X120300000Y-107600000D03*
X105600000Y-111800000D03*
X105200000Y-100800000D03*
X103200000Y-105200000D03*
X123000000Y-127000000D03*
X148240000Y-110400000D03*
X129000000Y-105000000D03*
X117600000Y-106600000D03*
X101200000Y-102800000D03*
X102200000Y-121000000D03*
X116000000Y-116100000D03*
X141200000Y-102600000D03*
X110900000Y-102400000D03*
X107200000Y-102800000D03*
X113600000Y-126500000D03*
X117600000Y-105400000D03*
X108600000Y-111800000D03*
X101200000Y-105200000D03*
X141100000Y-108400000D03*
X107200000Y-100800000D03*
X139200000Y-101600000D03*
X103600000Y-111800000D03*
X123500000Y-127900000D03*
X109200000Y-110000000D03*
X107600000Y-111800000D03*
X148240000Y-111400000D03*
%TO.N,Net-(D2-A)*%
X138000000Y-113135500D03*
X137996773Y-114534500D03*
%TD*%
D41*
%TO.N,VDC*%
X113707107Y-119400000D02*
X114797349Y-119400000D01*
X113346447Y-110253553D02*
X114400000Y-109200000D01*
X114797349Y-119400000D02*
X114797349Y-117304456D01*
X107400000Y-118807107D02*
X107400000Y-121392893D01*
X109532107Y-116675000D02*
X110600000Y-116675000D01*
X104992893Y-123800000D02*
X104900000Y-123800000D01*
X107253553Y-121746447D02*
X105346446Y-123653554D01*
X109178553Y-116821447D02*
X107546446Y-118453554D01*
X110600000Y-116675000D02*
X110775000Y-116675000D01*
X110775000Y-116675000D02*
X113353554Y-119253554D01*
X114650902Y-116950902D02*
X113346446Y-115646446D01*
X113200000Y-115292893D02*
X113200000Y-110607107D01*
X107546443Y-118453551D02*
G75*
G03*
X107400000Y-118807107I353557J-353549D01*
G01*
X113346444Y-110253550D02*
G75*
G03*
X113200000Y-110607107I353556J-353550D01*
G01*
X114797395Y-117304456D02*
G75*
G03*
X114650902Y-116950902I-499995J-44D01*
G01*
X104992893Y-123799995D02*
G75*
G03*
X105346446Y-123653554I7J499995D01*
G01*
X107253556Y-121746450D02*
G75*
G03*
X107400000Y-121392893I-353556J353550D01*
G01*
X109532107Y-116675005D02*
G75*
G03*
X109178553Y-116821447I-7J-499995D01*
G01*
X113353551Y-119253557D02*
G75*
G03*
X113707107Y-119400000I353549J353557D01*
G01*
X113200005Y-115292893D02*
G75*
G03*
X113346446Y-115646446I499995J-7D01*
G01*
%TO.N,GND*%
X113600000Y-126500000D02*
X113270000Y-126830000D01*
D42*
X114400000Y-111800000D02*
X114400000Y-112600000D01*
X129000000Y-105000000D02*
X129000000Y-103862500D01*
D41*
X113270000Y-126830000D02*
X113270000Y-127760000D01*
D42*
X117400000Y-102625000D02*
X117975000Y-102050000D01*
X120300000Y-106000000D02*
X118800000Y-106000000D01*
D43*
X117712500Y-129200000D02*
X117512500Y-129000000D01*
D42*
X114400000Y-112600000D02*
X115200000Y-113400000D01*
X137537500Y-122537500D02*
X137000000Y-122000000D01*
X137400000Y-111295000D02*
X135725000Y-111295000D01*
D43*
X123600000Y-126400000D02*
X123000000Y-127000000D01*
X123600000Y-125712500D02*
X123600000Y-126400000D01*
X123600000Y-125712500D02*
X123600000Y-126600000D01*
D42*
X130800000Y-105000000D02*
X130800000Y-103862500D01*
X117975000Y-102050000D02*
X117975000Y-101200000D01*
D43*
X118800000Y-129200000D02*
X117712500Y-129200000D01*
X123600000Y-126600000D02*
X124000000Y-127000000D01*
D42*
X117512500Y-129000000D02*
X117800000Y-129000000D01*
X142800000Y-112337500D02*
X142800000Y-111200000D01*
X137537500Y-123200000D02*
X137537500Y-122537500D01*
D41*
%TO.N,+5V*%
X124453553Y-102141053D02*
X123512500Y-101200000D01*
X131750000Y-115750000D02*
X131750000Y-115800000D01*
X139902107Y-111295000D02*
X140675000Y-111295000D01*
X130800000Y-102137500D02*
X132205393Y-102137500D01*
X129000000Y-102137500D02*
X130800000Y-102137500D01*
X125700000Y-106000000D02*
X124746446Y-105046446D01*
X134158553Y-114958553D02*
X134146446Y-114946446D01*
X125946447Y-109946447D02*
X131750000Y-115750000D01*
X124600000Y-104692893D02*
X124600000Y-102494607D01*
X125700000Y-106000000D02*
X125800000Y-106100000D01*
X134000000Y-114592893D02*
X134000000Y-109800000D01*
X135725000Y-115105000D02*
X135725000Y-117075000D01*
X127200000Y-104292893D02*
X127200000Y-103207107D01*
X135725000Y-115105000D02*
X134512107Y-115105000D01*
X133800000Y-109800000D02*
X132007107Y-109800000D01*
X135725000Y-117075000D02*
X135600000Y-117200000D01*
X134000000Y-109800000D02*
X137992893Y-109800000D01*
X132558947Y-101991053D02*
X133100000Y-101450000D01*
X131653553Y-109653553D02*
X128146446Y-106146446D01*
X138346447Y-109946447D02*
X139548554Y-111148554D01*
X125700000Y-106000000D02*
X127053554Y-104646446D01*
X127346447Y-102853553D02*
X127916054Y-102283946D01*
X127792893Y-106000000D02*
X125700000Y-106000000D01*
X133800000Y-109800000D02*
X134000000Y-109800000D01*
X125800000Y-106100000D02*
X125800000Y-109592893D01*
X128269607Y-102137500D02*
X129000000Y-102137500D01*
X138346450Y-109946444D02*
G75*
G03*
X137992893Y-109800000I-353550J-353556D01*
G01*
X127053557Y-104646449D02*
G75*
G03*
X127200000Y-104292893I-353557J353549D01*
G01*
X124599995Y-102494607D02*
G75*
G03*
X124453553Y-102141053I-499995J7D01*
G01*
X128146449Y-106146443D02*
G75*
G03*
X127792893Y-106000000I-353549J-353557D01*
G01*
X127346444Y-102853550D02*
G75*
G03*
X127200000Y-103207107I353556J-353550D01*
G01*
X134158550Y-114958556D02*
G75*
G03*
X134512107Y-115105000I353550J353556D01*
G01*
X125800005Y-109592893D02*
G75*
G03*
X125946447Y-109946447I499995J-7D01*
G01*
X131653550Y-109653556D02*
G75*
G03*
X132007107Y-109800000I353550J353556D01*
G01*
X134000005Y-114592893D02*
G75*
G03*
X134146446Y-114946446I499995J-7D01*
G01*
X128269607Y-102137505D02*
G75*
G03*
X127916054Y-102283946I-7J-499995D01*
G01*
X124600005Y-104692893D02*
G75*
G03*
X124746446Y-105046446I499995J-7D01*
G01*
X132205393Y-102137495D02*
G75*
G03*
X132558947Y-101991053I7J499995D01*
G01*
X139548551Y-111148557D02*
G75*
G03*
X139902107Y-111295000I353549J353557D01*
G01*
D42*
%TO.N,/FB*%
X119000000Y-102807107D02*
X119000000Y-103192893D01*
X119800000Y-101200000D02*
X119800000Y-101592893D01*
X119653553Y-101946447D02*
X119146446Y-102453554D01*
X118092893Y-104100000D02*
X114400000Y-104100000D01*
X118853553Y-103546447D02*
X118446446Y-103953554D01*
X121687500Y-101200000D02*
X119800000Y-101200000D01*
X119146443Y-102453551D02*
G75*
G03*
X119000000Y-102807107I353557J-353549D01*
G01*
X118853556Y-103546450D02*
G75*
G03*
X119000000Y-103192893I-353556J353550D01*
G01*
X119653556Y-101946450D02*
G75*
G03*
X119800000Y-101592893I-353556J353550D01*
G01*
X118092893Y-104099995D02*
G75*
G03*
X118446446Y-103953554I7J499995D01*
G01*
%TO.N,Net-(U2-CV)*%
X141903947Y-114958553D02*
X142800000Y-114062500D01*
X140780000Y-115000000D02*
X140675000Y-115105000D01*
X140675000Y-115105000D02*
X141550393Y-115105000D01*
X141550393Y-115104995D02*
G75*
G03*
X141903947Y-114958553I7J499995D01*
G01*
%TO.N,Net-(U2-THR)*%
X139000000Y-115392893D02*
X139000000Y-113835000D01*
X139262500Y-123200000D02*
X141500000Y-123200000D01*
X141792893Y-116600000D02*
X140207107Y-116600000D01*
X143053553Y-117653553D02*
X142146446Y-116746446D01*
X143200000Y-122192893D02*
X143200000Y-118007107D01*
X141500000Y-123200000D02*
X141600000Y-123100000D01*
X142646447Y-122953553D02*
X143053554Y-122546446D01*
X139853553Y-116453553D02*
X139146446Y-115746446D01*
X136157893Y-112565000D02*
X135725000Y-112565000D01*
X139000000Y-113835000D02*
X137842107Y-113835000D01*
X140675000Y-113835000D02*
X139000000Y-113835000D01*
X140840000Y-114000000D02*
X140675000Y-113835000D01*
X137488553Y-113688553D02*
X136511446Y-112711446D01*
X141600000Y-123100000D02*
X142292893Y-123100000D01*
X143199995Y-118007107D02*
G75*
G03*
X143053553Y-117653553I-499995J7D01*
G01*
X136511449Y-112711443D02*
G75*
G03*
X136157893Y-112565000I-353549J-353557D01*
G01*
X139853550Y-116453556D02*
G75*
G03*
X140207107Y-116600000I353550J353556D01*
G01*
X142292893Y-123099995D02*
G75*
G03*
X142646447Y-122953553I7J499995D01*
G01*
X139000005Y-115392893D02*
G75*
G03*
X139146446Y-115746446I499995J-7D01*
G01*
X142146449Y-116746443D02*
G75*
G03*
X141792893Y-116600000I-353549J-353557D01*
G01*
X137488550Y-113688556D02*
G75*
G03*
X137842107Y-113835000I353550J353556D01*
G01*
X143053557Y-122546449D02*
G75*
G03*
X143200000Y-122192893I-353557J353549D01*
G01*
D41*
%TO.N,+3.3V*%
X142617893Y-105525000D02*
X141800000Y-105525000D01*
X140000000Y-105525000D02*
X141800000Y-105525000D01*
X136000000Y-105525000D02*
X135425000Y-105525000D01*
X135400000Y-105100000D02*
X135400000Y-105500000D01*
X140000000Y-105525000D02*
X136000000Y-105525000D01*
X135425000Y-105525000D02*
X135400000Y-105500000D01*
X143953553Y-106653553D02*
X142971446Y-105671446D01*
X145800000Y-106800000D02*
X144307107Y-106800000D01*
X136000000Y-105525000D02*
X135425000Y-106100000D01*
X135400000Y-104925000D02*
X135400000Y-104800000D01*
X136000000Y-105525000D02*
X135400000Y-104925000D01*
X135400000Y-105800000D02*
X135400000Y-107750000D01*
X135425000Y-106100000D02*
X135400000Y-106100000D01*
X135400000Y-105500000D02*
X135400000Y-105800000D01*
X135400000Y-106100000D02*
X135400000Y-105800000D01*
X135400000Y-101450000D02*
X135400000Y-105100000D01*
X143953550Y-106653556D02*
G75*
G03*
X144307107Y-106800000I353550J353556D01*
G01*
X142971449Y-105671443D02*
G75*
G03*
X142617893Y-105525000I-353549J-353557D01*
G01*
%TO.N,/OUT*%
X120807107Y-115800000D02*
X123450000Y-115800000D01*
X119200000Y-113400000D02*
X119200000Y-114192893D01*
X119346447Y-114546447D02*
X120453554Y-115653554D01*
X114400000Y-107500000D02*
X116492893Y-107500000D01*
X116846447Y-107646447D02*
X119053554Y-109853554D01*
X119200000Y-110207107D02*
X119200000Y-113400000D01*
X119200005Y-114192893D02*
G75*
G03*
X119346447Y-114546447I499995J-7D01*
G01*
X116846450Y-107646444D02*
G75*
G03*
X116492893Y-107500000I-353550J-353556D01*
G01*
X119199995Y-110207107D02*
G75*
G03*
X119053554Y-109853554I-499995J7D01*
G01*
X120453551Y-115653557D02*
G75*
G03*
X120807107Y-115800000I353549J353557D01*
G01*
D42*
%TO.N,Net-(D2-K)*%
X139200000Y-125600000D02*
X141600000Y-125600000D01*
%TO.N,Net-(D2-A)*%
X137996773Y-114447883D02*
X137977767Y-114428877D01*
X138143220Y-115943220D02*
X138853554Y-116653554D01*
X137996773Y-114534500D02*
X137996773Y-114447883D01*
X136946447Y-119053553D02*
X137903554Y-118096446D01*
X138777607Y-112565000D02*
X140675000Y-112565000D01*
X135600000Y-119200000D02*
X136592893Y-119200000D01*
X137996773Y-114534500D02*
X137996773Y-115589666D01*
X135753553Y-119353553D02*
X135600000Y-119200000D01*
X135900000Y-125600000D02*
X135900000Y-119707107D01*
X139000000Y-117007107D02*
X139000000Y-117950000D01*
X138257107Y-117950000D02*
X139000000Y-117950000D01*
X138000000Y-113135500D02*
X138424054Y-112711446D01*
X138999995Y-117007107D02*
G75*
G03*
X138853554Y-116653554I-499995J7D01*
G01*
X136592893Y-119199995D02*
G75*
G03*
X136946447Y-119053553I7J499995D01*
G01*
X138257107Y-117950005D02*
G75*
G03*
X137903554Y-118096446I-7J-499995D01*
G01*
X137996805Y-115589666D02*
G75*
G03*
X138143220Y-115943220I499995J-34D01*
G01*
X138777607Y-112565005D02*
G75*
G03*
X138424054Y-112711446I-7J-499995D01*
G01*
X135899995Y-119707107D02*
G75*
G03*
X135753553Y-119353553I-499995J7D01*
G01*
%TO.N,Net-(D3-A)*%
X139000000Y-121250000D02*
X140950000Y-121250000D01*
X140950000Y-121250000D02*
X141600000Y-120600000D01*
D41*
%TO.N,Net-(J1-Pin_1)*%
X111000000Y-114135000D02*
X110372107Y-114135000D01*
X104880000Y-118317500D02*
X104880000Y-118220000D01*
X104880000Y-118220000D02*
X108818554Y-114281446D01*
X109172107Y-114135000D02*
X110600000Y-114135000D01*
X109172107Y-114135005D02*
G75*
G03*
X108818554Y-114281446I-7J-499995D01*
G01*
%TO.N,LOAD_OUT*%
X105346447Y-127446447D02*
X105513554Y-127613554D01*
X110550000Y-123537500D02*
X110550000Y-124342893D01*
X108053553Y-125646447D02*
X107446446Y-126253554D01*
X110403553Y-124696447D02*
X109746446Y-125353554D01*
X109392893Y-125500000D02*
X108407107Y-125500000D01*
X105653553Y-126546447D02*
X104900000Y-127300000D01*
X107092893Y-126400000D02*
X106007107Y-126400000D01*
X106152893Y-127760000D02*
X105867107Y-127760000D01*
X104900000Y-127300000D02*
X104992893Y-127300000D01*
X110730000Y-127760000D02*
X110436446Y-128053554D01*
X110082893Y-128200000D02*
X107007107Y-128200000D01*
X106653553Y-128053553D02*
X106506446Y-127906446D01*
X109392893Y-125499995D02*
G75*
G03*
X109746446Y-125353554I7J499995D01*
G01*
X105346450Y-127446444D02*
G75*
G03*
X104992893Y-127300000I-353550J-353556D01*
G01*
X110403556Y-124696450D02*
G75*
G03*
X110550000Y-124342893I-353556J353550D01*
G01*
X106007107Y-126400005D02*
G75*
G03*
X105653553Y-126546447I-7J-499995D01*
G01*
X107092893Y-126399995D02*
G75*
G03*
X107446446Y-126253554I7J499995D01*
G01*
X106506449Y-127906443D02*
G75*
G03*
X106152893Y-127760000I-353549J-353557D01*
G01*
X108407107Y-125500005D02*
G75*
G03*
X108053553Y-125646447I-7J-499995D01*
G01*
X106653550Y-128053556D02*
G75*
G03*
X107007107Y-128200000I353550J353556D01*
G01*
X110082893Y-128199995D02*
G75*
G03*
X110436446Y-128053554I7J499995D01*
G01*
X105513551Y-127613557D02*
G75*
G03*
X105867107Y-127760000I353549J353557D01*
G01*
D42*
%TO.N,Net-(Q1-G)*%
X111500000Y-121662500D02*
X111500000Y-122692893D01*
X111500000Y-121662500D02*
X111500000Y-119687500D01*
X111500000Y-119687500D02*
X111412500Y-119600000D01*
X113407107Y-124600000D02*
X115687500Y-124600000D01*
X111646447Y-123046447D02*
X113053554Y-124453554D01*
X111500005Y-122692893D02*
G75*
G03*
X111646447Y-123046447I499995J-7D01*
G01*
X113053551Y-124453557D02*
G75*
G03*
X113407107Y-124600000I353549J353557D01*
G01*
%TO.N,PWM*%
X135725000Y-113835000D02*
X136557893Y-113835000D01*
X136392893Y-118200000D02*
X134807107Y-118200000D01*
X121953553Y-122546447D02*
X120646446Y-123853554D01*
X136911447Y-113981447D02*
X137053554Y-114123554D01*
X137053553Y-117746447D02*
X136746446Y-118053554D01*
X134453553Y-118346447D02*
X134146446Y-118653554D01*
X133392893Y-122400000D02*
X122307107Y-122400000D01*
X134000000Y-119007107D02*
X134000000Y-121792893D01*
X120500000Y-124207107D02*
X120500000Y-127475000D01*
X133853553Y-122146447D02*
X133746446Y-122253554D01*
X137200000Y-114477107D02*
X137200000Y-117392893D01*
X120646443Y-123853551D02*
G75*
G03*
X120500000Y-124207107I353557J-353549D01*
G01*
X136392893Y-118199995D02*
G75*
G03*
X136746446Y-118053554I7J499995D01*
G01*
X137053556Y-117746450D02*
G75*
G03*
X137200000Y-117392893I-353556J353550D01*
G01*
X134807107Y-118200005D02*
G75*
G03*
X134453553Y-118346447I-7J-499995D01*
G01*
X137199995Y-114477107D02*
G75*
G03*
X137053554Y-114123554I-499995J7D01*
G01*
X133853556Y-122146450D02*
G75*
G03*
X134000000Y-121792893I-353556J353550D01*
G01*
X122307107Y-122400005D02*
G75*
G03*
X121953553Y-122546447I-7J-499995D01*
G01*
X134146443Y-118653551D02*
G75*
G03*
X134000000Y-119007107I353557J-353549D01*
G01*
X136911450Y-113981444D02*
G75*
G03*
X136557893Y-113835000I-353550J-353556D01*
G01*
X133392893Y-122399995D02*
G75*
G03*
X133746446Y-122253554I7J499995D01*
G01*
%TO.N,ESP-01_GPIO1*%
X123687500Y-123800000D02*
X123600000Y-123887500D01*
D41*
X145800000Y-112392893D02*
X145800000Y-109340000D01*
D42*
X144653553Y-126346447D02*
X143146446Y-127853554D01*
D41*
X152840000Y-111420000D02*
X152840000Y-112352893D01*
D42*
X146500000Y-113900000D02*
X146500000Y-113300000D01*
D41*
X146800000Y-113600000D02*
X146500000Y-113300000D01*
X152693553Y-112706447D02*
X151646446Y-113753554D01*
X151292893Y-113900000D02*
X147100000Y-113900000D01*
D42*
X129792893Y-123800000D02*
X123687500Y-123800000D01*
X146500000Y-113900000D02*
X147100000Y-113900000D01*
D41*
X147100000Y-113900000D02*
X146800000Y-113600000D01*
D42*
X144800000Y-115807107D02*
X144800000Y-125992893D01*
X146400000Y-114000000D02*
X146500000Y-113900000D01*
X134053553Y-127853553D02*
X130146446Y-123946446D01*
D43*
X122119607Y-123887500D02*
X123600000Y-123887500D01*
X121450000Y-125600000D02*
X121450000Y-124557107D01*
D42*
X146400000Y-114000000D02*
X144946446Y-115453554D01*
D43*
X121596447Y-124203553D02*
X121766054Y-124033946D01*
D41*
X146500000Y-113300000D02*
X145946446Y-112746446D01*
D42*
X142792893Y-128000000D02*
X134407107Y-128000000D01*
X146400000Y-114000000D02*
X146800000Y-113600000D01*
D43*
X121596444Y-124203550D02*
G75*
G03*
X121450000Y-124557107I353556J-353550D01*
G01*
D41*
X151292893Y-113899995D02*
G75*
G03*
X151646446Y-113753554I7J499995D01*
G01*
D42*
X134053550Y-127853556D02*
G75*
G03*
X134407107Y-128000000I353550J353556D01*
G01*
D41*
X152693556Y-112706450D02*
G75*
G03*
X152840000Y-112352893I-353556J353550D01*
G01*
D42*
X144653556Y-126346450D02*
G75*
G03*
X144800000Y-125992893I-353556J353550D01*
G01*
X130146449Y-123946443D02*
G75*
G03*
X129792893Y-123800000I-353549J-353557D01*
G01*
X144946443Y-115453551D02*
G75*
G03*
X144800000Y-115807107I353557J-353549D01*
G01*
X142792893Y-127999995D02*
G75*
G03*
X143146446Y-127853554I7J499995D01*
G01*
D43*
X122119607Y-123887505D02*
G75*
G03*
X121766054Y-124033946I-7J-499995D01*
G01*
D41*
X145800005Y-112392893D02*
G75*
G03*
X145946446Y-112746446I499995J-7D01*
G01*
D42*
%TO.N,Net-(Q3-S)*%
X117512500Y-125600000D02*
X117512500Y-126800000D01*
X118119607Y-124200000D02*
X119092893Y-124200000D01*
D43*
X119550000Y-124450000D02*
X119446446Y-124346446D01*
D42*
X117512500Y-124600000D02*
X117766054Y-124346446D01*
D43*
X119550000Y-125600000D02*
X119550000Y-124450000D01*
D42*
X117512500Y-124600000D02*
X117512500Y-125600000D01*
X118119607Y-124200005D02*
G75*
G03*
X117766054Y-124346446I-7J-499995D01*
G01*
X119446449Y-124346443D02*
G75*
G03*
X119092893Y-124200000I-353549J-353557D01*
G01*
%TO.N,Net-(Q2-B)*%
X114192893Y-125500000D02*
X113197107Y-125500000D01*
X115687500Y-126800000D02*
X115687500Y-129000000D01*
X112843553Y-125646447D02*
X112000000Y-126490000D01*
X115687500Y-126787500D02*
X114546446Y-125646446D01*
X115687500Y-126800000D02*
X115687500Y-126787500D01*
X113197107Y-125500005D02*
G75*
G03*
X112843553Y-125646447I-7J-499995D01*
G01*
X114546449Y-125646443D02*
G75*
G03*
X114192893Y-125500000I-353549J-353557D01*
G01*
%TD*%
%TA.AperFunction,Conductor*%
%TO.N,/FB*%
G36*
X119300709Y-101095570D02*
G01*
X119738902Y-101186471D01*
X119794281Y-101197960D01*
X119801685Y-101202996D01*
X119802919Y-101205471D01*
X120048787Y-101892004D01*
X120048350Y-101900948D01*
X120044937Y-101905199D01*
X119440925Y-102373044D01*
X119432286Y-102375401D01*
X119425487Y-102372067D01*
X119224375Y-102170955D01*
X119220948Y-102162682D01*
X119220970Y-102161983D01*
X119286661Y-101106298D01*
X119290595Y-101098256D01*
X119299065Y-101095350D01*
X119300709Y-101095570D01*
G37*
%TD.AperFunction*%
%TD*%
%TA.AperFunction,Conductor*%
%TO.N,+3.3V*%
G36*
X142203161Y-105053584D02*
G01*
X142738943Y-105280331D01*
X142745226Y-105286711D01*
X142745684Y-105294134D01*
X142620206Y-105762437D01*
X142614755Y-105769541D01*
X142614535Y-105769665D01*
X142203014Y-105995565D01*
X142194113Y-105996542D01*
X142188389Y-105992791D01*
X141805270Y-105532237D01*
X141802614Y-105523686D01*
X141805283Y-105517257D01*
X142189622Y-105056861D01*
X142197554Y-105052707D01*
X142203161Y-105053584D01*
G37*
%TD.AperFunction*%
%TD*%
%TA.AperFunction,Conductor*%
%TO.N,Net-(Q1-G)*%
G36*
X111649995Y-120628427D02*
G01*
X111652755Y-120632806D01*
X111787027Y-121013194D01*
X111786676Y-121021861D01*
X111510682Y-121639591D01*
X111504179Y-121645746D01*
X111495227Y-121645500D01*
X111489318Y-121639591D01*
X111213323Y-121021861D01*
X111212972Y-121013194D01*
X111347245Y-120632806D01*
X111353230Y-120626145D01*
X111358278Y-120625000D01*
X111641722Y-120625000D01*
X111649995Y-120628427D01*
G37*
%TD.AperFunction*%
%TD*%
%TA.AperFunction,Conductor*%
%TO.N,Net-(U2-THR)*%
G36*
X140641953Y-113823878D02*
G01*
X140648753Y-113829705D01*
X140649442Y-113838633D01*
X140643615Y-113845433D01*
X140641953Y-113846122D01*
X139796375Y-114122347D01*
X139788848Y-114122258D01*
X139407806Y-113987755D01*
X139401145Y-113981770D01*
X139400000Y-113976722D01*
X139400000Y-113693277D01*
X139403427Y-113685004D01*
X139407803Y-113682245D01*
X139788849Y-113547740D01*
X139796375Y-113547652D01*
X140641953Y-113823878D01*
G37*
%TD.AperFunction*%
%TD*%
%TA.AperFunction,Conductor*%
%TO.N,Net-(D2-A)*%
G36*
X140641953Y-112553878D02*
G01*
X140648753Y-112559705D01*
X140649442Y-112568633D01*
X140643615Y-112575433D01*
X140641953Y-112576122D01*
X139796375Y-112852347D01*
X139788848Y-112852258D01*
X139407806Y-112717755D01*
X139401145Y-112711770D01*
X139400000Y-112706722D01*
X139400000Y-112423277D01*
X139403427Y-112415004D01*
X139407803Y-112412245D01*
X139788849Y-112277740D01*
X139796375Y-112277652D01*
X140641953Y-112553878D01*
G37*
%TD.AperFunction*%
%TD*%
%TA.AperFunction,Conductor*%
%TO.N,/OUT*%
G36*
X119208864Y-113406020D02*
G01*
X119208911Y-113406052D01*
X120367305Y-114220120D01*
X120372104Y-114227681D01*
X120370222Y-114236318D01*
X119971604Y-114816559D01*
X119970233Y-114818207D01*
X119625008Y-115163432D01*
X119616735Y-115166859D01*
X119609234Y-115164139D01*
X118582902Y-114306856D01*
X118578750Y-114298922D01*
X118580788Y-114291211D01*
X119192585Y-113408965D01*
X119200113Y-113404121D01*
X119208864Y-113406020D01*
G37*
%TD.AperFunction*%
%TD*%
%TA.AperFunction,Conductor*%
%TO.N,Net-(D2-K)*%
G36*
X139643146Y-125155203D02*
G01*
X140094645Y-125446544D01*
X140099737Y-125453908D01*
X140100000Y-125456374D01*
X140100000Y-125743625D01*
X140096573Y-125751898D01*
X140094644Y-125753456D01*
X139643147Y-126044795D01*
X139634337Y-126046401D01*
X139628401Y-126043106D01*
X139344360Y-125750000D01*
X139206889Y-125608141D01*
X139203593Y-125599816D01*
X139206890Y-125591858D01*
X139628403Y-125156892D01*
X139636619Y-125153336D01*
X139643146Y-125155203D01*
G37*
%TD.AperFunction*%
%TD*%
%TA.AperFunction,Conductor*%
%TO.N,VDC*%
G36*
X115049468Y-117803427D02*
G01*
X115050836Y-117805072D01*
X115591839Y-118591985D01*
X115593702Y-118600743D01*
X115590476Y-118606881D01*
X114805627Y-119392711D01*
X114797356Y-119396143D01*
X114789081Y-119392721D01*
X114789071Y-119392711D01*
X114004221Y-118606881D01*
X114000799Y-118598606D01*
X114002856Y-118591988D01*
X114543862Y-117805072D01*
X114551373Y-117800196D01*
X114553503Y-117800000D01*
X115041195Y-117800000D01*
X115049468Y-117803427D01*
G37*
%TD.AperFunction*%
%TD*%
%TA.AperFunction,Conductor*%
%TO.N,+5V*%
G36*
X134902658Y-114805975D02*
G01*
X135695721Y-115094014D01*
X135702326Y-115100058D01*
X135702723Y-115109004D01*
X135696678Y-115115610D01*
X135695720Y-115116007D01*
X134902665Y-115404031D01*
X134897186Y-115404639D01*
X134519474Y-115356304D01*
X134511703Y-115351855D01*
X134509260Y-115344562D01*
X134514956Y-114865171D01*
X134518481Y-114856940D01*
X134525145Y-114853709D01*
X134897156Y-114805370D01*
X134902658Y-114805975D01*
G37*
%TD.AperFunction*%
%TD*%
%TA.AperFunction,Conductor*%
%TO.N,+3.3V*%
G36*
X140402783Y-105053207D02*
G01*
X140942695Y-105272039D01*
X140949075Y-105278322D01*
X140950000Y-105282882D01*
X140950000Y-105767117D01*
X140946573Y-105775390D01*
X140942695Y-105777960D01*
X140402784Y-105996791D01*
X140393829Y-105996723D01*
X140389401Y-105993439D01*
X140005243Y-105532491D01*
X140002579Y-105523941D01*
X140005243Y-105517509D01*
X140200783Y-105282882D01*
X140389402Y-105056559D01*
X140397330Y-105052399D01*
X140402783Y-105053207D01*
G37*
%TD.AperFunction*%
%TD*%
%TA.AperFunction,Conductor*%
%TO.N,+5V*%
G36*
X131202783Y-101665707D02*
G01*
X131742695Y-101884539D01*
X131749075Y-101890822D01*
X131750000Y-101895382D01*
X131750000Y-102379617D01*
X131746573Y-102387890D01*
X131742695Y-102390460D01*
X131202784Y-102609291D01*
X131193829Y-102609223D01*
X131189401Y-102605939D01*
X130805243Y-102144991D01*
X130802579Y-102136441D01*
X130805243Y-102130009D01*
X131000783Y-101895382D01*
X131189402Y-101669059D01*
X131197330Y-101664899D01*
X131202783Y-101665707D01*
G37*
%TD.AperFunction*%
%TD*%
%TA.AperFunction,Conductor*%
%TO.N,/FB*%
G36*
X120308184Y-100693104D02*
G01*
X120819948Y-101046511D01*
X120824809Y-101054031D01*
X120825000Y-101056138D01*
X120825000Y-101343861D01*
X120821573Y-101352134D01*
X120819948Y-101353488D01*
X120308185Y-101706894D01*
X120299430Y-101708776D01*
X120293171Y-101705446D01*
X119945654Y-101350000D01*
X119806995Y-101208178D01*
X119803663Y-101199868D01*
X119806995Y-101191821D01*
X120293173Y-100694552D01*
X120301405Y-100691033D01*
X120308184Y-100693104D01*
G37*
%TD.AperFunction*%
%TD*%
%TA.AperFunction,Conductor*%
%TO.N,LOAD_OUT*%
G36*
X110188135Y-127394396D02*
G01*
X110721276Y-127753451D01*
X110726223Y-127760914D01*
X110724444Y-127769691D01*
X110724432Y-127769710D01*
X110184494Y-128568057D01*
X110177020Y-128572990D01*
X110172179Y-128572904D01*
X109647077Y-128452088D01*
X109639782Y-128446893D01*
X109638000Y-128440686D01*
X109638000Y-127954728D01*
X109641285Y-127946599D01*
X109812158Y-127769710D01*
X110173186Y-127395971D01*
X110181398Y-127392403D01*
X110188135Y-127394396D01*
G37*
%TD.AperFunction*%
%TD*%
%TA.AperFunction,Conductor*%
%TO.N,Net-(Q2-B)*%
G36*
X115838639Y-127790927D02*
G01*
X115840767Y-127793843D01*
X116177265Y-128447137D01*
X116178007Y-128456061D01*
X116175549Y-128460334D01*
X115696185Y-128991378D01*
X115688098Y-128995223D01*
X115679660Y-128992223D01*
X115678815Y-128991378D01*
X115439069Y-128725785D01*
X115199449Y-128460332D01*
X115196450Y-128451896D01*
X115197734Y-128447137D01*
X115534233Y-127793841D01*
X115541067Y-127788057D01*
X115544634Y-127787500D01*
X115830366Y-127787500D01*
X115838639Y-127790927D01*
G37*
%TD.AperFunction*%
%TD*%
%TA.AperFunction,Conductor*%
%TO.N,VDC*%
G36*
X106259901Y-122391761D02*
G01*
X106262438Y-122393685D01*
X106604957Y-122736204D01*
X106608384Y-122744477D01*
X106606950Y-122750089D01*
X105828913Y-124173473D01*
X105821938Y-124179089D01*
X105814180Y-124178675D01*
X104903784Y-123802562D01*
X104897446Y-123796235D01*
X104897437Y-123796215D01*
X104522349Y-122888300D01*
X104522358Y-122879346D01*
X104528696Y-122873019D01*
X104529999Y-122872568D01*
X106251012Y-122390691D01*
X106259901Y-122391761D01*
G37*
%TD.AperFunction*%
%TD*%
%TA.AperFunction,Conductor*%
%TO.N,+5V*%
G36*
X128594985Y-101683681D02*
G01*
X128994404Y-102129784D01*
X128997369Y-102138232D01*
X128994980Y-102144695D01*
X128632482Y-102618599D01*
X128624734Y-102623089D01*
X128617469Y-102621697D01*
X128204718Y-102390380D01*
X128200305Y-102386024D01*
X127958461Y-101967127D01*
X127957293Y-101958249D01*
X127962744Y-101951144D01*
X127963902Y-101950559D01*
X128581585Y-101680762D01*
X128590538Y-101680592D01*
X128594985Y-101683681D01*
G37*
%TD.AperFunction*%
%TD*%
%TA.AperFunction,Conductor*%
%TO.N,Net-(Q2-B)*%
G36*
X114938089Y-125821477D02*
G01*
X115709027Y-126097101D01*
X115715662Y-126103113D01*
X115716777Y-126108601D01*
X115688517Y-126793196D01*
X115684752Y-126801320D01*
X115681247Y-126803546D01*
X115185319Y-127005907D01*
X115176365Y-127005860D01*
X115170294Y-127000015D01*
X114722441Y-126038538D01*
X114722055Y-126029593D01*
X114724773Y-126025328D01*
X114925880Y-125824221D01*
X114934152Y-125820795D01*
X114938089Y-125821477D01*
G37*
%TD.AperFunction*%
%TD*%
%TA.AperFunction,Conductor*%
%TO.N,Net-(Q3-S)*%
G36*
X119675473Y-124565927D02*
G01*
X119678000Y-124569700D01*
X119836639Y-124950435D01*
X119836658Y-124959390D01*
X119836521Y-124959708D01*
X119560682Y-125577091D01*
X119554179Y-125583246D01*
X119545227Y-125583000D01*
X119539318Y-125577091D01*
X119263478Y-124959708D01*
X119263232Y-124950756D01*
X119263360Y-124950435D01*
X119422000Y-124569700D01*
X119428345Y-124563381D01*
X119432800Y-124562500D01*
X119667200Y-124562500D01*
X119675473Y-124565927D01*
G37*
%TD.AperFunction*%
%TD*%
%TA.AperFunction,Conductor*%
%TO.N,/OUT*%
G36*
X119452291Y-111603427D02*
G01*
X119453503Y-111604850D01*
X120094169Y-112491926D01*
X120096235Y-112500639D01*
X120092962Y-112507045D01*
X119208278Y-113392712D01*
X119200006Y-113396143D01*
X119191731Y-113392721D01*
X119191722Y-113392712D01*
X118307037Y-112507045D01*
X118303615Y-112498770D01*
X118305829Y-112491929D01*
X118946497Y-111604849D01*
X118954119Y-111600149D01*
X118955982Y-111600000D01*
X119444018Y-111600000D01*
X119452291Y-111603427D01*
G37*
%TD.AperFunction*%
%TD*%
%TA.AperFunction,Conductor*%
%TO.N,PWM*%
G36*
X136703731Y-113688614D02*
G01*
X137055718Y-113917805D01*
X137060780Y-113925190D01*
X137059138Y-113933993D01*
X137057606Y-113935882D01*
X136859117Y-114134371D01*
X136850844Y-114137798D01*
X136850815Y-114137798D01*
X135717388Y-114135030D01*
X135709124Y-114131583D01*
X135705717Y-114123301D01*
X135705741Y-114122579D01*
X135723688Y-113843692D01*
X135727638Y-113835659D01*
X135733606Y-113832879D01*
X136695595Y-113686853D01*
X136703731Y-113688614D01*
G37*
%TD.AperFunction*%
%TD*%
%TA.AperFunction,Conductor*%
%TO.N,Net-(D2-A)*%
G36*
X136050914Y-124553427D02*
G01*
X136053187Y-124556634D01*
X136329404Y-125131675D01*
X136329898Y-125140616D01*
X136327397Y-125144740D01*
X135908539Y-125591884D01*
X135900382Y-125595579D01*
X135892001Y-125592424D01*
X135891461Y-125591884D01*
X135472602Y-125144740D01*
X135469447Y-125136359D01*
X135470594Y-125131677D01*
X135746813Y-124556633D01*
X135753484Y-124550660D01*
X135757359Y-124550000D01*
X136042641Y-124550000D01*
X136050914Y-124553427D01*
G37*
%TD.AperFunction*%
%TD*%
%TA.AperFunction,Conductor*%
%TO.N,Net-(Q3-S)*%
G36*
X118520287Y-124048128D02*
G01*
X118527733Y-124053102D01*
X118529706Y-124059604D01*
X118529706Y-124345726D01*
X118526953Y-124353266D01*
X118031796Y-124940835D01*
X118023844Y-124944953D01*
X118016274Y-124942972D01*
X117519954Y-124605744D01*
X117515036Y-124598260D01*
X117516055Y-124590853D01*
X117848505Y-123923413D01*
X117855259Y-123917537D01*
X117861255Y-123917155D01*
X118520287Y-124048128D01*
G37*
%TD.AperFunction*%
%TD*%
%TA.AperFunction,Conductor*%
%TO.N,Net-(U2-CV)*%
G36*
X142335358Y-113870017D02*
G01*
X142518343Y-113945427D01*
X142795234Y-114059537D01*
X142801577Y-114065857D01*
X142802132Y-114067536D01*
X142931842Y-114590287D01*
X142930508Y-114599142D01*
X142925031Y-114603886D01*
X142146971Y-114931855D01*
X142138016Y-114931911D01*
X142134153Y-114929347D01*
X141933366Y-114728560D01*
X141929939Y-114720287D01*
X141931024Y-114715368D01*
X142320287Y-113875910D01*
X142326875Y-113869848D01*
X142335358Y-113870017D01*
G37*
%TD.AperFunction*%
%TD*%
%TA.AperFunction,Conductor*%
%TO.N,Net-(D3-A)*%
G36*
X139468323Y-120820594D02*
G01*
X140043366Y-121096813D01*
X140049340Y-121103484D01*
X140050000Y-121107359D01*
X140050000Y-121392640D01*
X140046573Y-121400913D01*
X140043366Y-121403186D01*
X139468324Y-121679404D01*
X139459383Y-121679898D01*
X139455259Y-121677397D01*
X139151272Y-121392640D01*
X139008114Y-121258537D01*
X139004420Y-121250382D01*
X139007575Y-121242001D01*
X139008105Y-121241470D01*
X139455259Y-120822601D01*
X139463640Y-120819447D01*
X139468323Y-120820594D01*
G37*
%TD.AperFunction*%
%TD*%
%TA.AperFunction,Conductor*%
%TO.N,VDC*%
G36*
X114405167Y-109210109D02*
G01*
X114405175Y-109210128D01*
X114623893Y-109740486D01*
X114623879Y-109749441D01*
X114618882Y-109755105D01*
X113645627Y-110311251D01*
X113636744Y-110312381D01*
X113631549Y-110309366D01*
X113084560Y-109762377D01*
X113081133Y-109754104D01*
X113084560Y-109745831D01*
X113088348Y-109743298D01*
X114389880Y-109203780D01*
X114398834Y-109203778D01*
X114405167Y-109210109D01*
G37*
%TD.AperFunction*%
%TD*%
%TA.AperFunction,Conductor*%
%TO.N,Net-(D2-A)*%
G36*
X138545418Y-117523231D02*
G01*
X138990469Y-117939770D01*
X138994168Y-117947925D01*
X138991016Y-117956307D01*
X138989304Y-117957812D01*
X138472500Y-118329354D01*
X138463782Y-118331401D01*
X138459151Y-118329569D01*
X138141849Y-118116653D01*
X138138236Y-118112789D01*
X137995282Y-117865179D01*
X137994115Y-117856302D01*
X137999280Y-117849368D01*
X138531290Y-117521809D01*
X138540130Y-117520391D01*
X138545418Y-117523231D01*
G37*
%TD.AperFunction*%
%TD*%
%TA.AperFunction,Conductor*%
%TO.N,ESP-01_EN*%
G36*
X149339118Y-102552862D02*
G01*
X149405954Y-102573208D01*
X149451184Y-102626463D01*
X149460442Y-102695716D01*
X149430789Y-102758982D01*
X149425567Y-102764536D01*
X149261503Y-102928600D01*
X149125965Y-103122169D01*
X149125964Y-103122171D01*
X149026098Y-103336335D01*
X149026094Y-103336344D01*
X148964938Y-103564586D01*
X148964936Y-103564596D01*
X148944341Y-103799999D01*
X148944341Y-103800000D01*
X148964936Y-104035403D01*
X148964938Y-104035413D01*
X149026094Y-104263655D01*
X149026096Y-104263659D01*
X149026097Y-104263663D01*
X149125965Y-104477830D01*
X149125967Y-104477834D01*
X149234281Y-104632521D01*
X149261505Y-104671401D01*
X149428599Y-104838495D01*
X149525384Y-104906265D01*
X149622165Y-104974032D01*
X149622167Y-104974033D01*
X149622170Y-104974035D01*
X149836337Y-105073903D01*
X150064592Y-105135063D01*
X150252918Y-105151539D01*
X150299999Y-105155659D01*
X150300000Y-105155659D01*
X150300001Y-105155659D01*
X150339234Y-105152226D01*
X150535408Y-105135063D01*
X150763663Y-105073903D01*
X150977830Y-104974035D01*
X151171401Y-104838495D01*
X151338495Y-104671401D01*
X151474035Y-104477830D01*
X151573903Y-104263663D01*
X151635063Y-104035408D01*
X151655659Y-103800000D01*
X151635063Y-103564592D01*
X151573903Y-103336337D01*
X151474035Y-103122171D01*
X151338495Y-102928599D01*
X151193673Y-102783777D01*
X151160190Y-102722457D01*
X151165174Y-102652765D01*
X151207045Y-102596831D01*
X151272510Y-102572414D01*
X151282564Y-102572104D01*
X153977229Y-102598784D01*
X154044069Y-102619131D01*
X154089299Y-102672386D01*
X154100000Y-102722778D01*
X154100000Y-105391890D01*
X154080315Y-105458929D01*
X154027511Y-105504684D01*
X153958353Y-105514628D01*
X153894797Y-105485603D01*
X153881014Y-105471599D01*
X153878499Y-105468602D01*
X153711402Y-105301506D01*
X153711395Y-105301501D01*
X153517834Y-105165967D01*
X153517830Y-105165965D01*
X153495729Y-105155659D01*
X153303663Y-105066097D01*
X153303659Y-105066096D01*
X153303655Y-105066094D01*
X153075413Y-105004938D01*
X153075403Y-105004936D01*
X152840001Y-104984341D01*
X152839999Y-104984341D01*
X152604596Y-105004936D01*
X152604586Y-105004938D01*
X152376344Y-105066094D01*
X152376335Y-105066098D01*
X152162171Y-105165964D01*
X152162169Y-105165965D01*
X151968597Y-105301505D01*
X151801505Y-105468597D01*
X151665965Y-105662169D01*
X151665964Y-105662171D01*
X151566098Y-105876335D01*
X151566094Y-105876344D01*
X151504938Y-106104586D01*
X151504936Y-106104596D01*
X151484341Y-106339999D01*
X151484341Y-106340000D01*
X151504936Y-106575403D01*
X151504938Y-106575413D01*
X151566094Y-106803655D01*
X151566096Y-106803659D01*
X151566097Y-106803663D01*
X151665965Y-107017830D01*
X151665967Y-107017834D01*
X151756874Y-107147662D01*
X151801505Y-107211401D01*
X151968599Y-107378495D01*
X152065384Y-107446265D01*
X152162165Y-107514032D01*
X152162167Y-107514033D01*
X152162170Y-107514035D01*
X152376337Y-107613903D01*
X152604592Y-107675063D01*
X152792918Y-107691539D01*
X152839999Y-107695659D01*
X152840000Y-107695659D01*
X152840001Y-107695659D01*
X152879234Y-107692226D01*
X153075408Y-107675063D01*
X153303663Y-107613903D01*
X153517830Y-107514035D01*
X153711401Y-107378495D01*
X153878495Y-107211401D01*
X153878503Y-107211389D01*
X153881009Y-107208404D01*
X153939180Y-107169701D01*
X154009041Y-107168591D01*
X154068411Y-107205427D01*
X154098442Y-107268514D01*
X154100000Y-107288108D01*
X154100000Y-109678556D01*
X154080315Y-109745595D01*
X154027511Y-109791350D01*
X153978583Y-109802529D01*
X149426583Y-109897362D01*
X149359148Y-109879078D01*
X149312303Y-109827239D01*
X149300000Y-109773389D01*
X149300000Y-106300000D01*
X149299999Y-106299999D01*
X147000001Y-105400000D01*
X147000000Y-105400000D01*
X144124000Y-105400000D01*
X144056961Y-105380315D01*
X144011206Y-105327511D01*
X144000000Y-105276000D01*
X144000000Y-102625233D01*
X144019685Y-102558194D01*
X144072489Y-102512439D01*
X144125224Y-102501239D01*
X149339118Y-102552862D01*
G37*
%TD.AperFunction*%
%TD*%
%TA.AperFunction,Conductor*%
%TO.N,+5V*%
G36*
X129876454Y-113518275D02*
G01*
X131084057Y-113902560D01*
X131383685Y-113997909D01*
X131390529Y-114003683D01*
X131391609Y-114006762D01*
X131748004Y-115787206D01*
X131746268Y-115795990D01*
X131738828Y-115800974D01*
X131736947Y-115801195D01*
X130407881Y-115848399D01*
X130399492Y-115845268D01*
X130396783Y-115841477D01*
X130378693Y-115800974D01*
X129890208Y-114707259D01*
X129519400Y-113877020D01*
X129519155Y-113868069D01*
X129521808Y-113863978D01*
X129864635Y-113521151D01*
X129872907Y-113517725D01*
X129876454Y-113518275D01*
G37*
%TD.AperFunction*%
%TD*%
%TA.AperFunction,Conductor*%
%TO.N,VDC*%
G36*
X111455120Y-116300269D02*
G01*
X112223821Y-117766643D01*
X112224628Y-117775561D01*
X112221732Y-117780348D01*
X111879606Y-118122474D01*
X111871333Y-118125901D01*
X111867196Y-118125145D01*
X110290424Y-117529129D01*
X110283897Y-117522999D01*
X110283609Y-117514068D01*
X110597584Y-116678838D01*
X110603698Y-116672305D01*
X111439947Y-116295035D01*
X111448897Y-116294758D01*
X111455120Y-116300269D01*
G37*
%TD.AperFunction*%
%TD*%
%TA.AperFunction,Conductor*%
%TO.N,Net-(J1-Pin_1)*%
G36*
X106318662Y-116439449D02*
G01*
X106660886Y-116781673D01*
X106664313Y-116789946D01*
X106663446Y-116794366D01*
X105884374Y-118703843D01*
X105878076Y-118710208D01*
X105869233Y-118710301D01*
X105301537Y-118485449D01*
X104883808Y-118319995D01*
X104877380Y-118313764D01*
X104452893Y-117327863D01*
X104452770Y-117318910D01*
X104458625Y-117312667D01*
X106305377Y-116437149D01*
X106314321Y-116436702D01*
X106318662Y-116439449D01*
G37*
%TD.AperFunction*%
%TD*%
%TA.AperFunction,Conductor*%
%TO.N,ESP-01_GPIO1*%
G36*
X123060523Y-123399622D02*
G01*
X123591378Y-123878815D01*
X123595223Y-123886902D01*
X123592223Y-123895340D01*
X123591378Y-123896185D01*
X123060523Y-124375377D01*
X123052085Y-124378377D01*
X123047024Y-124376933D01*
X122393541Y-124015838D01*
X122387958Y-124008837D01*
X122387500Y-124005597D01*
X122387500Y-123769402D01*
X122390927Y-123761129D01*
X122393536Y-123759164D01*
X123047025Y-123398065D01*
X123055923Y-123397065D01*
X123060523Y-123399622D01*
G37*
%TD.AperFunction*%
%TD*%
%TA.AperFunction,Conductor*%
%TO.N,+3.3V*%
G36*
X145483719Y-106036417D02*
G01*
X145483869Y-106036762D01*
X145799100Y-106795768D01*
X145799109Y-106804723D01*
X145799099Y-106804746D01*
X145483702Y-107563646D01*
X145477363Y-107569971D01*
X145468462Y-107569982D01*
X144186210Y-107044605D01*
X144179855Y-107038299D01*
X144179346Y-107030754D01*
X144304654Y-106563077D01*
X144310104Y-106555975D01*
X144311109Y-106555457D01*
X145468231Y-106030594D01*
X145477181Y-106030298D01*
X145483719Y-106036417D01*
G37*
%TD.AperFunction*%
%TD*%
%TA.AperFunction,Conductor*%
%TO.N,+3.3V*%
G36*
X135652423Y-105753427D02*
G01*
X135653510Y-105754680D01*
X136393914Y-106741886D01*
X136396136Y-106750561D01*
X136392831Y-106757175D01*
X135408277Y-107742714D01*
X135400006Y-107746145D01*
X135391731Y-107742722D01*
X135391723Y-107742714D01*
X134407168Y-106757175D01*
X134403745Y-106748900D01*
X134406084Y-106741887D01*
X135146490Y-105754680D01*
X135154195Y-105750118D01*
X135155850Y-105750000D01*
X135644150Y-105750000D01*
X135652423Y-105753427D01*
G37*
%TD.AperFunction*%
%TD*%
%TA.AperFunction,Conductor*%
%TO.N,ESP-01_GPIO1*%
G36*
X121575473Y-124565927D02*
G01*
X121578000Y-124569700D01*
X121736639Y-124950435D01*
X121736658Y-124959390D01*
X121736521Y-124959708D01*
X121460682Y-125577091D01*
X121454179Y-125583246D01*
X121445227Y-125583000D01*
X121439318Y-125577091D01*
X121163478Y-124959708D01*
X121163232Y-124950756D01*
X121163360Y-124950435D01*
X121322000Y-124569700D01*
X121328345Y-124563381D01*
X121332800Y-124562500D01*
X121567200Y-124562500D01*
X121575473Y-124565927D01*
G37*
%TD.AperFunction*%
%TD*%
%TA.AperFunction,Conductor*%
%TO.N,+3.3V*%
G36*
X141406170Y-105053276D02*
G01*
X141410598Y-105056560D01*
X141794756Y-105517509D01*
X141797420Y-105526059D01*
X141794756Y-105532491D01*
X141410598Y-105993439D01*
X141402669Y-105997600D01*
X141397215Y-105996791D01*
X140857305Y-105777960D01*
X140850925Y-105771677D01*
X140850000Y-105767117D01*
X140850000Y-105282882D01*
X140853427Y-105274609D01*
X140857304Y-105272039D01*
X141397216Y-105053208D01*
X141406170Y-105053276D01*
G37*
%TD.AperFunction*%
%TD*%
%TA.AperFunction,Conductor*%
%TO.N,+3.3V*%
G36*
X135407016Y-101459149D02*
G01*
X135409363Y-101461496D01*
X136145038Y-102443378D01*
X136147257Y-102452054D01*
X136145410Y-102456884D01*
X135653473Y-103194790D01*
X135646033Y-103199773D01*
X135643738Y-103200000D01*
X135156262Y-103200000D01*
X135147989Y-103196573D01*
X135146527Y-103194790D01*
X134654589Y-102456884D01*
X134652851Y-102448099D01*
X134654960Y-102443379D01*
X135390637Y-101461495D01*
X135398340Y-101456930D01*
X135407016Y-101459149D01*
G37*
%TD.AperFunction*%
%TD*%
%TA.AperFunction,Conductor*%
%TO.N,+3.3V*%
G36*
X139606170Y-105053276D02*
G01*
X139610598Y-105056560D01*
X139994756Y-105517509D01*
X139997420Y-105526059D01*
X139994756Y-105532491D01*
X139610598Y-105993439D01*
X139602669Y-105997600D01*
X139597215Y-105996791D01*
X139057305Y-105777960D01*
X139050925Y-105771677D01*
X139050000Y-105767117D01*
X139050000Y-105282882D01*
X139053427Y-105274609D01*
X139057304Y-105272039D01*
X139597216Y-105053208D01*
X139606170Y-105053276D01*
G37*
%TD.AperFunction*%
%TD*%
%TA.AperFunction,Conductor*%
%TO.N,/OUT*%
G36*
X122107006Y-114805186D02*
G01*
X123438295Y-115790596D01*
X123442906Y-115798272D01*
X123440738Y-115806961D01*
X123438295Y-115809404D01*
X122107006Y-116794813D01*
X122098317Y-116796981D01*
X122093025Y-116794769D01*
X121104680Y-116053510D01*
X121100118Y-116045805D01*
X121100000Y-116044150D01*
X121100000Y-115555850D01*
X121103427Y-115547577D01*
X121104680Y-115546490D01*
X122093027Y-114805229D01*
X122101700Y-114803008D01*
X122107006Y-114805186D01*
G37*
%TD.AperFunction*%
%TD*%
%TA.AperFunction,Conductor*%
%TO.N,Net-(Q2-B)*%
G36*
X115695340Y-126807776D02*
G01*
X115696181Y-126808617D01*
X116175549Y-127339665D01*
X116178549Y-127348103D01*
X116177265Y-127352862D01*
X115840767Y-128006157D01*
X115833933Y-128011943D01*
X115830366Y-128012500D01*
X115544634Y-128012500D01*
X115536361Y-128009073D01*
X115534233Y-128006158D01*
X115197733Y-127352861D01*
X115196992Y-127343938D01*
X115199447Y-127339669D01*
X115678815Y-126808620D01*
X115686902Y-126804776D01*
X115695340Y-126807776D01*
G37*
%TD.AperFunction*%
%TD*%
%TA.AperFunction,Conductor*%
%TO.N,/FB*%
G36*
X121194328Y-100694553D02*
G01*
X121680503Y-101191821D01*
X121683836Y-101200132D01*
X121680503Y-101208179D01*
X121194328Y-101705446D01*
X121186094Y-101708966D01*
X121179314Y-101706894D01*
X120667552Y-101353488D01*
X120662691Y-101345968D01*
X120662500Y-101343861D01*
X120662500Y-101056138D01*
X120665927Y-101047865D01*
X120667552Y-101046511D01*
X121179316Y-100693104D01*
X121188069Y-100691223D01*
X121194328Y-100694553D01*
G37*
%TD.AperFunction*%
%TD*%
%TA.AperFunction,Conductor*%
%TO.N,ESP-01_GPIO1*%
G36*
X124152373Y-123396602D02*
G01*
X124804993Y-123647118D01*
X124811488Y-123653282D01*
X124812500Y-123658041D01*
X124812500Y-123943625D01*
X124809073Y-123951898D01*
X124807143Y-123953456D01*
X124184789Y-124354995D01*
X124175979Y-124356601D01*
X124171050Y-124354229D01*
X123609560Y-123896116D01*
X123605317Y-123888232D01*
X123607892Y-123879656D01*
X123609113Y-123878370D01*
X124140341Y-123398840D01*
X124148779Y-123395841D01*
X124152373Y-123396602D01*
G37*
%TD.AperFunction*%
%TD*%
%TA.AperFunction,Conductor*%
%TO.N,Net-(U2-THR)*%
G36*
X141613734Y-122202450D02*
G01*
X142943869Y-122439735D01*
X142950086Y-122442980D01*
X143151981Y-122644875D01*
X143155408Y-122653148D01*
X143152615Y-122660735D01*
X142244604Y-123726758D01*
X142236631Y-123730834D01*
X142228110Y-123728078D01*
X142227433Y-123727453D01*
X141602731Y-123104137D01*
X141599296Y-123095871D01*
X141599989Y-122213959D01*
X141603422Y-122205689D01*
X141611698Y-122202269D01*
X141613734Y-122202450D01*
G37*
%TD.AperFunction*%
%TD*%
%TA.AperFunction,Conductor*%
%TO.N,ESP-01_GPIO1*%
G36*
X145804489Y-109340865D02*
G01*
X146563855Y-109656385D01*
X146570180Y-109662724D01*
X146570278Y-109671410D01*
X146052893Y-111008921D01*
X146046712Y-111015401D01*
X146041981Y-111016400D01*
X145558019Y-111016400D01*
X145549746Y-111012973D01*
X145547107Y-111008921D01*
X145499656Y-110886255D01*
X145029721Y-109671408D01*
X145029932Y-109662458D01*
X145036142Y-109656386D01*
X145795511Y-109340864D01*
X145804464Y-109340855D01*
X145804489Y-109340865D01*
G37*
%TD.AperFunction*%
%TD*%
%TA.AperFunction,Conductor*%
%TO.N,Net-(Q1-G)*%
G36*
X115194328Y-124094553D02*
G01*
X115680503Y-124591821D01*
X115683836Y-124600132D01*
X115680503Y-124608179D01*
X115194328Y-125105446D01*
X115186094Y-125108966D01*
X115179314Y-125106894D01*
X114667552Y-124753488D01*
X114662691Y-124745968D01*
X114662500Y-124743861D01*
X114662500Y-124456138D01*
X114665927Y-124447865D01*
X114667552Y-124446511D01*
X115179316Y-124093104D01*
X115188069Y-124091223D01*
X115194328Y-124094553D01*
G37*
%TD.AperFunction*%
%TD*%
%TA.AperFunction,Conductor*%
%TO.N,+5V*%
G36*
X135975283Y-116003427D02*
G01*
X135977908Y-116007442D01*
X136250692Y-116705565D01*
X136250511Y-116714518D01*
X136246783Y-116719206D01*
X135608406Y-117194738D01*
X135599725Y-117196932D01*
X135592855Y-117193329D01*
X135063736Y-116625229D01*
X135060605Y-116616840D01*
X135062602Y-116610707D01*
X135471521Y-116005152D01*
X135478991Y-116000214D01*
X135481217Y-116000000D01*
X135967010Y-116000000D01*
X135975283Y-116003427D01*
G37*
%TD.AperFunction*%
%TD*%
%TA.AperFunction,Conductor*%
%TO.N,Net-(D3-A)*%
G36*
X140971890Y-119971993D02*
G01*
X140972921Y-119972907D01*
X141597561Y-120596566D01*
X141600994Y-120604837D01*
X141600994Y-120604859D01*
X141600013Y-121487524D01*
X141596577Y-121495793D01*
X141588300Y-121499211D01*
X141587550Y-121499186D01*
X140080175Y-121400714D01*
X140072143Y-121396755D01*
X140069238Y-121389039D01*
X140069238Y-121104051D01*
X140071743Y-121096816D01*
X140955461Y-119973950D01*
X140963269Y-119969569D01*
X140971890Y-119971993D01*
G37*
%TD.AperFunction*%
%TD*%
%TA.AperFunction,Conductor*%
%TO.N,Net-(J1-Pin_1)*%
G36*
X110279208Y-113360506D02*
G01*
X110279244Y-113360592D01*
X110599001Y-114130013D01*
X110599012Y-114138968D01*
X110599003Y-114138988D01*
X110279362Y-114909110D01*
X110273026Y-114915438D01*
X110264071Y-114915431D01*
X110263699Y-114915269D01*
X109107817Y-114387861D01*
X109102541Y-114383067D01*
X108861027Y-113964741D01*
X108859859Y-113955863D01*
X108865310Y-113948758D01*
X108866573Y-113948128D01*
X110263866Y-113354313D01*
X110272818Y-113354232D01*
X110279208Y-113360506D01*
G37*
%TD.AperFunction*%
%TD*%
%TA.AperFunction,Conductor*%
%TO.N,+5V*%
G36*
X125708521Y-106007015D02*
G01*
X125708532Y-106007025D01*
X126544584Y-106793410D01*
X126548263Y-106801574D01*
X126546481Y-106808147D01*
X126053439Y-107594515D01*
X126046141Y-107599704D01*
X126043526Y-107600000D01*
X125555840Y-107600000D01*
X125547567Y-107596573D01*
X125546489Y-107595331D01*
X124954382Y-106807860D01*
X124952150Y-106799191D01*
X124955201Y-106792827D01*
X125691986Y-106007540D01*
X125700143Y-106003853D01*
X125708521Y-106007015D01*
G37*
%TD.AperFunction*%
%TD*%
%TA.AperFunction,Conductor*%
%TO.N,LOAD_OUT*%
G36*
X110554756Y-123554023D02*
G01*
X110560229Y-123559933D01*
X110796223Y-124125000D01*
X110825873Y-124195993D01*
X110826534Y-124202876D01*
X110734990Y-124644728D01*
X110729956Y-124652134D01*
X110721159Y-124653811D01*
X110717683Y-124652487D01*
X110303452Y-124413337D01*
X110298001Y-124406232D01*
X110297768Y-124405170D01*
X110250652Y-124128825D01*
X110251765Y-124121543D01*
X110539014Y-123559120D01*
X110545829Y-123553312D01*
X110554756Y-123554023D01*
G37*
%TD.AperFunction*%
%TD*%
%TA.AperFunction,Conductor*%
%TO.N,Net-(U2-THR)*%
G36*
X141260041Y-122279402D02*
G01*
X141260570Y-122280508D01*
X141599135Y-123095512D01*
X141599144Y-123104466D01*
X141599135Y-123104488D01*
X141260033Y-123920782D01*
X141253694Y-123927108D01*
X141244836Y-123927138D01*
X139827199Y-123352959D01*
X139820817Y-123346677D01*
X139819891Y-123342115D01*
X139819891Y-123056952D01*
X139823318Y-123048679D01*
X139825995Y-123046677D01*
X141244173Y-122274719D01*
X141253076Y-122273774D01*
X141260041Y-122279402D01*
G37*
%TD.AperFunction*%
%TD*%
%TA.AperFunction,Conductor*%
%TO.N,+5V*%
G36*
X135733258Y-115112285D02*
G01*
X135968034Y-115347844D01*
X136020758Y-115400744D01*
X136024171Y-115409022D01*
X136024012Y-115410926D01*
X135976630Y-115695223D01*
X135971890Y-115702821D01*
X135965089Y-115705000D01*
X135484911Y-115705000D01*
X135476638Y-115701573D01*
X135473370Y-115695223D01*
X135425987Y-115410924D01*
X135428007Y-115402203D01*
X135429236Y-115400749D01*
X135716714Y-115112313D01*
X135724981Y-115108873D01*
X135733258Y-115112285D01*
G37*
%TD.AperFunction*%
%TD*%
%TA.AperFunction,Conductor*%
%TO.N,+5V*%
G36*
X129402783Y-101665707D02*
G01*
X129942695Y-101884539D01*
X129949075Y-101890822D01*
X129950000Y-101895382D01*
X129950000Y-102379617D01*
X129946573Y-102387890D01*
X129942695Y-102390460D01*
X129402784Y-102609291D01*
X129393829Y-102609223D01*
X129389401Y-102605939D01*
X129005243Y-102144991D01*
X129002579Y-102136441D01*
X129005243Y-102130009D01*
X129200783Y-101895382D01*
X129389402Y-101669059D01*
X129397330Y-101664899D01*
X129402783Y-101665707D01*
G37*
%TD.AperFunction*%
%TD*%
%TA.AperFunction,Conductor*%
%TO.N,+5V*%
G36*
X126880557Y-104477526D02*
G01*
X127230548Y-104819269D01*
X127233339Y-104823557D01*
X127426890Y-105343373D01*
X127426565Y-105352322D01*
X127420017Y-105358417D01*
X125709893Y-105996761D01*
X125700943Y-105996444D01*
X125694987Y-105990266D01*
X125434062Y-105358417D01*
X125372853Y-105210194D01*
X125372862Y-105201241D01*
X125378572Y-105195199D01*
X126867291Y-104475363D01*
X126876230Y-104474847D01*
X126880557Y-104477526D01*
G37*
%TD.AperFunction*%
%TD*%
%TA.AperFunction,Conductor*%
%TO.N,/FB*%
G36*
X116549651Y-103571182D02*
G01*
X117243866Y-103946682D01*
X117249513Y-103953632D01*
X117250000Y-103956973D01*
X117250000Y-104243026D01*
X117246573Y-104251299D01*
X117243866Y-104253317D01*
X116549652Y-104628816D01*
X116541277Y-104629883D01*
X114977243Y-104243026D01*
X114444918Y-104111357D01*
X114437710Y-104106045D01*
X114436370Y-104097191D01*
X114441683Y-104089982D01*
X114444918Y-104088642D01*
X116541279Y-103570116D01*
X116549651Y-103571182D01*
G37*
%TD.AperFunction*%
%TD*%
%TA.AperFunction,Conductor*%
%TO.N,Net-(D2-A)*%
G36*
X138001251Y-114535368D02*
G01*
X138215664Y-114624844D01*
X138310344Y-114664355D01*
X138316659Y-114670704D01*
X138317025Y-114678579D01*
X138149307Y-115226226D01*
X138143608Y-115233133D01*
X138138120Y-115234500D01*
X137855426Y-115234500D01*
X137847153Y-115231073D01*
X137844239Y-115226226D01*
X137676520Y-114678579D01*
X137677374Y-114669665D01*
X137683200Y-114664355D01*
X137992267Y-114535379D01*
X138001222Y-114535357D01*
X138001251Y-114535368D01*
G37*
%TD.AperFunction*%
%TD*%
%TA.AperFunction,Conductor*%
%TO.N,+5V*%
G36*
X124024556Y-100991605D02*
G01*
X124030149Y-100996480D01*
X124549215Y-101879944D01*
X124550451Y-101888813D01*
X124547400Y-101894144D01*
X124206103Y-102235441D01*
X124197830Y-102238868D01*
X124192776Y-102237720D01*
X123494617Y-101903305D01*
X123488636Y-101896640D01*
X123487978Y-101892355D01*
X123511534Y-101206829D01*
X123515242Y-101198682D01*
X123518763Y-101196419D01*
X124015603Y-100991590D01*
X124024556Y-100991605D01*
G37*
%TD.AperFunction*%
%TD*%
%TA.AperFunction,Conductor*%
%TO.N,PWM*%
G36*
X120649995Y-126440927D02*
G01*
X120652755Y-126445306D01*
X120787027Y-126825694D01*
X120786676Y-126834361D01*
X120510682Y-127452091D01*
X120504179Y-127458246D01*
X120495227Y-127458000D01*
X120489318Y-127452091D01*
X120213323Y-126834361D01*
X120212972Y-126825694D01*
X120347245Y-126445306D01*
X120353230Y-126438645D01*
X120358278Y-126437500D01*
X120641722Y-126437500D01*
X120649995Y-126440927D01*
G37*
%TD.AperFunction*%
%TD*%
%TA.AperFunction,Conductor*%
%TO.N,Net-(Q1-G)*%
G36*
X111420343Y-119607892D02*
G01*
X111421632Y-119609117D01*
X111901158Y-120140341D01*
X111904158Y-120148779D01*
X111903396Y-120152374D01*
X111652882Y-120804993D01*
X111646718Y-120811488D01*
X111641959Y-120812500D01*
X111356375Y-120812500D01*
X111348102Y-120809073D01*
X111346544Y-120807143D01*
X110945003Y-120184789D01*
X110943397Y-120175979D01*
X110945767Y-120171054D01*
X111403884Y-119609559D01*
X111411767Y-119605317D01*
X111420343Y-119607892D01*
G37*
%TD.AperFunction*%
%TD*%
%TA.AperFunction,Conductor*%
%TO.N,Net-(D2-A)*%
G36*
X135608979Y-119204889D02*
G01*
X135992137Y-119456216D01*
X136273629Y-119640856D01*
X136278667Y-119648259D01*
X136278399Y-119654064D01*
X136052534Y-120391725D01*
X136046835Y-120398633D01*
X136041347Y-120400000D01*
X135754760Y-120400000D01*
X135746592Y-120396677D01*
X135138258Y-119803506D01*
X135134727Y-119795277D01*
X135137227Y-119787900D01*
X135242399Y-119654064D01*
X135593364Y-119207443D01*
X135601170Y-119203056D01*
X135608979Y-119204889D01*
G37*
%TD.AperFunction*%
%TD*%
%TA.AperFunction,Conductor*%
%TO.N,+5V*%
G36*
X130406170Y-101665776D02*
G01*
X130410598Y-101669060D01*
X130794756Y-102130009D01*
X130797420Y-102138559D01*
X130794756Y-102144991D01*
X130410598Y-102605939D01*
X130402669Y-102610100D01*
X130397215Y-102609291D01*
X129857305Y-102390460D01*
X129850925Y-102384177D01*
X129850000Y-102379617D01*
X129850000Y-101895382D01*
X129853427Y-101887109D01*
X129857304Y-101884539D01*
X130397216Y-101665708D01*
X130406170Y-101665776D01*
G37*
%TD.AperFunction*%
%TD*%
%TA.AperFunction,Conductor*%
%TO.N,Net-(D2-A)*%
G36*
X136234205Y-118678777D02*
G01*
X136708484Y-119033422D01*
X136711609Y-119036941D01*
X136854976Y-119285268D01*
X136856144Y-119294146D01*
X136851435Y-119300784D01*
X136234096Y-119721785D01*
X136225330Y-119723615D01*
X136219987Y-119721084D01*
X135609815Y-119209455D01*
X135605677Y-119201514D01*
X135608367Y-119192973D01*
X135609796Y-119191541D01*
X136219674Y-118679189D01*
X136228212Y-118676492D01*
X136234205Y-118678777D01*
G37*
%TD.AperFunction*%
%TD*%
%TA.AperFunction,Conductor*%
%TO.N,Net-(Q3-S)*%
G36*
X117663639Y-125590927D02*
G01*
X117665767Y-125593843D01*
X118002265Y-126247137D01*
X118003007Y-126256061D01*
X118000549Y-126260334D01*
X117521185Y-126791378D01*
X117513098Y-126795223D01*
X117504660Y-126792223D01*
X117503815Y-126791378D01*
X117264069Y-126525785D01*
X117024449Y-126260332D01*
X117021450Y-126251896D01*
X117022734Y-126247137D01*
X117359233Y-125593841D01*
X117366067Y-125588057D01*
X117369634Y-125587500D01*
X117655366Y-125587500D01*
X117663639Y-125590927D01*
G37*
%TD.AperFunction*%
%TD*%
%TA.AperFunction,Conductor*%
%TO.N,Net-(D2-A)*%
G36*
X139151898Y-117053427D02*
G01*
X139153456Y-117055356D01*
X139444795Y-117506852D01*
X139446401Y-117515662D01*
X139443106Y-117521598D01*
X139008142Y-117943109D01*
X138999816Y-117946406D01*
X138991858Y-117943109D01*
X138556893Y-117521598D01*
X138553336Y-117513380D01*
X138555203Y-117506854D01*
X138846544Y-117055356D01*
X138853909Y-117050263D01*
X138856375Y-117050000D01*
X139143625Y-117050000D01*
X139151898Y-117053427D01*
G37*
%TD.AperFunction*%
%TD*%
%TA.AperFunction,Conductor*%
%TO.N,Net-(Q3-S)*%
G36*
X117520340Y-124607776D02*
G01*
X117521181Y-124608617D01*
X118000549Y-125139665D01*
X118003549Y-125148103D01*
X118002265Y-125152862D01*
X117665767Y-125806157D01*
X117658933Y-125811943D01*
X117655366Y-125812500D01*
X117369634Y-125812500D01*
X117361361Y-125809073D01*
X117359233Y-125806158D01*
X117022733Y-125152861D01*
X117021992Y-125143938D01*
X117024447Y-125139669D01*
X117503815Y-124608620D01*
X117511902Y-124604776D01*
X117520340Y-124607776D01*
G37*
%TD.AperFunction*%
%TD*%
%TA.AperFunction,Conductor*%
%TO.N,Net-(Q2-B)*%
G36*
X112465800Y-125267073D02*
G01*
X112813180Y-125469430D01*
X112817423Y-125473689D01*
X112962956Y-125725767D01*
X112964124Y-125734645D01*
X112963603Y-125736164D01*
X112553813Y-126707827D01*
X112547441Y-126714118D01*
X112538553Y-126714088D01*
X112009528Y-126494807D01*
X112003198Y-126488474D01*
X112003033Y-126479946D01*
X112448939Y-125273129D01*
X112455021Y-125266557D01*
X112463969Y-125266210D01*
X112465800Y-125267073D01*
G37*
%TD.AperFunction*%
%TD*%
%TA.AperFunction,Conductor*%
%TO.N,Net-(Q1-G)*%
G36*
X111504754Y-121679499D02*
G01*
X111510664Y-121685408D01*
X111786654Y-122303088D01*
X111786972Y-122311846D01*
X111652710Y-122682484D01*
X111646671Y-122689095D01*
X111641932Y-122690197D01*
X111358440Y-122695581D01*
X111350103Y-122692312D01*
X111347199Y-122687816D01*
X111212995Y-122311822D01*
X111213331Y-122303119D01*
X111489301Y-121685407D01*
X111495803Y-121679253D01*
X111504754Y-121679499D01*
G37*
%TD.AperFunction*%
%TD*%
%TA.AperFunction,Conductor*%
%TO.N,Net-(D2-A)*%
G36*
X138401969Y-112545697D02*
G01*
X138543306Y-112790506D01*
X138544474Y-112799384D01*
X138543758Y-112801340D01*
X138328100Y-113259366D01*
X138321476Y-113265391D01*
X138313062Y-113265201D01*
X138003648Y-113137856D01*
X137997302Y-113131539D01*
X137997279Y-113131484D01*
X137962508Y-113046863D01*
X137870123Y-112822027D01*
X137870148Y-112813074D01*
X137875540Y-112807205D01*
X138386433Y-112541169D01*
X138395353Y-112540388D01*
X138401969Y-112545697D01*
G37*
%TD.AperFunction*%
%TD*%
%TA.AperFunction,Conductor*%
%TO.N,Net-(D2-K)*%
G36*
X141260067Y-124779328D02*
G01*
X141260276Y-124779801D01*
X141599135Y-125595512D01*
X141599144Y-125604466D01*
X141599135Y-125604488D01*
X141260276Y-126420198D01*
X141253937Y-126426524D01*
X141244983Y-126426515D01*
X141244510Y-126426306D01*
X139806739Y-125753155D01*
X139800699Y-125746544D01*
X139800000Y-125742559D01*
X139800000Y-125457440D01*
X139803427Y-125449167D01*
X139806735Y-125446846D01*
X141244510Y-124773692D01*
X141253456Y-124773288D01*
X141260067Y-124779328D01*
G37*
%TD.AperFunction*%
%TD*%
%TA.AperFunction,Conductor*%
%TO.N,Net-(U2-THR)*%
G36*
X139661532Y-122747100D02*
G01*
X140268481Y-123046781D01*
X140274381Y-123053516D01*
X140275000Y-123057271D01*
X140275000Y-123342728D01*
X140271573Y-123351001D01*
X140268480Y-123353219D01*
X139661533Y-123652898D01*
X139652598Y-123653488D01*
X139647472Y-123650024D01*
X139392911Y-123353219D01*
X139268031Y-123207615D01*
X139265247Y-123199106D01*
X139268031Y-123192384D01*
X139647472Y-122749974D01*
X139655459Y-122745926D01*
X139661532Y-122747100D01*
G37*
%TD.AperFunction*%
%TD*%
%TA.AperFunction,Conductor*%
%TO.N,GND*%
G36*
X118540940Y-100019454D02*
G01*
X118621722Y-100073430D01*
X118675698Y-100154212D01*
X118694652Y-100249500D01*
X118675698Y-100344788D01*
X118666358Y-100364779D01*
X118650263Y-100395594D01*
X118597083Y-100581448D01*
X118589689Y-100664610D01*
X118587000Y-100694859D01*
X118587000Y-101015445D01*
X118583370Y-101055011D01*
X118583443Y-101055020D01*
X118583155Y-101057351D01*
X118582844Y-101060744D01*
X118582691Y-101061569D01*
X118582523Y-101062479D01*
X118582521Y-101062497D01*
X118538359Y-101772205D01*
X118513524Y-101866132D01*
X118487389Y-101908317D01*
X118374680Y-102055208D01*
X118286167Y-102208521D01*
X118286165Y-102208526D01*
X118218422Y-102372077D01*
X118172604Y-102543083D01*
X118151500Y-102703384D01*
X118149662Y-102713865D01*
X118149501Y-102714595D01*
X118149499Y-102714617D01*
X118149500Y-102765291D01*
X118149500Y-102944571D01*
X118130546Y-103039859D01*
X118076570Y-103120641D01*
X118020641Y-103176570D01*
X117939859Y-103230546D01*
X117844571Y-103249500D01*
X117500848Y-103249500D01*
X117405560Y-103230546D01*
X117382388Y-103219516D01*
X116930307Y-102974986D01*
X116885308Y-102950646D01*
X116885303Y-102950644D01*
X116885300Y-102950642D01*
X116816629Y-102918976D01*
X116811126Y-102916272D01*
X116804413Y-102912766D01*
X116804404Y-102912762D01*
X116711479Y-102886173D01*
X116618552Y-102859583D01*
X116532920Y-102851969D01*
X116505141Y-102849500D01*
X116505138Y-102849500D01*
X112294862Y-102849500D01*
X112294859Y-102849500D01*
X112264610Y-102852189D01*
X112181448Y-102859583D01*
X112181445Y-102859584D01*
X111995594Y-102912762D01*
X111824253Y-103002263D01*
X111824248Y-103002266D01*
X111674430Y-103124427D01*
X111674427Y-103124430D01*
X111552266Y-103274248D01*
X111552263Y-103274253D01*
X111462762Y-103445594D01*
X111427421Y-103569107D01*
X111409583Y-103631448D01*
X111402189Y-103714610D01*
X111399500Y-103744859D01*
X111399500Y-104455141D01*
X111401969Y-104482920D01*
X111409583Y-104568552D01*
X111424405Y-104620351D01*
X111462762Y-104754405D01*
X111552263Y-104925746D01*
X111552266Y-104925751D01*
X111674427Y-105075569D01*
X111674430Y-105075572D01*
X111749339Y-105136652D01*
X111824249Y-105197734D01*
X111995594Y-105287237D01*
X112181448Y-105340417D01*
X112279734Y-105349155D01*
X112294859Y-105350500D01*
X112294862Y-105350500D01*
X116505141Y-105350500D01*
X116535390Y-105347810D01*
X116618552Y-105340417D01*
X116697383Y-105317859D01*
X116708046Y-105315311D01*
X116727043Y-105311650D01*
X116742640Y-105305509D01*
X116753985Y-105301663D01*
X116804406Y-105287237D01*
X116845450Y-105265797D01*
X116857485Y-105260304D01*
X116885301Y-105249356D01*
X117327466Y-105010190D01*
X117382382Y-104980486D01*
X117475212Y-104951823D01*
X117500846Y-104950500D01*
X118142226Y-104950500D01*
X118142361Y-104950496D01*
X118181398Y-104950497D01*
X118356916Y-104927391D01*
X118356923Y-104927388D01*
X118356928Y-104927388D01*
X118527907Y-104881577D01*
X118527911Y-104881575D01*
X118527917Y-104881574D01*
X118527921Y-104881572D01*
X118527925Y-104881571D01*
X118691465Y-104813833D01*
X118691463Y-104813833D01*
X118691475Y-104813829D01*
X118844791Y-104725314D01*
X118973099Y-104626861D01*
X118981823Y-104620744D01*
X118982435Y-104620354D01*
X119047834Y-104554955D01*
X119111043Y-104491747D01*
X119111044Y-104491744D01*
X119371243Y-104231544D01*
X119371253Y-104231537D01*
X119382012Y-104220778D01*
X119382036Y-104220761D01*
X119454955Y-104147839D01*
X119454956Y-104147840D01*
X119517546Y-104085248D01*
X119625317Y-103944797D01*
X119713832Y-103791480D01*
X119781578Y-103627921D01*
X119827396Y-103456918D01*
X119848500Y-103296590D01*
X119850339Y-103286120D01*
X119850500Y-103285390D01*
X119850500Y-103281405D01*
X119850501Y-103281398D01*
X119850500Y-103192881D01*
X119850500Y-103148394D01*
X119850500Y-103070274D01*
X119869454Y-102974986D01*
X119923430Y-102894204D01*
X119947018Y-102873423D01*
X120322156Y-102582854D01*
X120406133Y-102540319D01*
X120416906Y-102537237D01*
X120588251Y-102447734D01*
X120588255Y-102447730D01*
X120598796Y-102440784D01*
X120599716Y-102442181D01*
X120672219Y-102403721D01*
X120768935Y-102394502D01*
X120861818Y-102422997D01*
X120888622Y-102440907D01*
X120888704Y-102440784D01*
X120899244Y-102447730D01*
X120899249Y-102447734D01*
X121070594Y-102537237D01*
X121256448Y-102590417D01*
X121354734Y-102599155D01*
X121369859Y-102600500D01*
X121369862Y-102600500D01*
X122005141Y-102600500D01*
X122019621Y-102599212D01*
X122118552Y-102590417D01*
X122304406Y-102537237D01*
X122475751Y-102447734D01*
X122475755Y-102447730D01*
X122484714Y-102443051D01*
X122577949Y-102415733D01*
X122674541Y-102426174D01*
X122715286Y-102443051D01*
X122724245Y-102447730D01*
X122724249Y-102447734D01*
X122895594Y-102537237D01*
X123081448Y-102590417D01*
X123179734Y-102599155D01*
X123194859Y-102600500D01*
X123194862Y-102600500D01*
X123260473Y-102600500D01*
X123355761Y-102619454D01*
X123368039Y-102624933D01*
X123508066Y-102692005D01*
X123585816Y-102750263D01*
X123635354Y-102833840D01*
X123649500Y-102916572D01*
X123649500Y-104554195D01*
X123630546Y-104649483D01*
X123576570Y-104730265D01*
X123557857Y-104747171D01*
X123524432Y-104774426D01*
X123524425Y-104774433D01*
X123402266Y-104924248D01*
X123402263Y-104924253D01*
X123312762Y-105095594D01*
X123283536Y-105197736D01*
X123259583Y-105281448D01*
X123253444Y-105350500D01*
X123249500Y-105394859D01*
X123249500Y-106605141D01*
X123251071Y-106622811D01*
X123259583Y-106718552D01*
X123272189Y-106762607D01*
X123312762Y-106904405D01*
X123402263Y-107075746D01*
X123402266Y-107075751D01*
X123513846Y-107212593D01*
X123524429Y-107225571D01*
X123674249Y-107347734D01*
X123845594Y-107437237D01*
X124031448Y-107490417D01*
X124129734Y-107499155D01*
X124144859Y-107500500D01*
X124144862Y-107500500D01*
X124468191Y-107500500D01*
X124563479Y-107519454D01*
X124644261Y-107573430D01*
X124667206Y-107599853D01*
X124799518Y-107775822D01*
X124841634Y-107863371D01*
X124849500Y-107925463D01*
X124849500Y-109451000D01*
X124830546Y-109546288D01*
X124776570Y-109627070D01*
X124695788Y-109681046D01*
X124600500Y-109700000D01*
X120225515Y-109700000D01*
X120130227Y-109681046D01*
X120049445Y-109627070D01*
X120008965Y-109570580D01*
X120007785Y-109571262D01*
X119908642Y-109399537D01*
X119908637Y-109399530D01*
X119834684Y-109303150D01*
X119798310Y-109255746D01*
X119794545Y-109250456D01*
X119794013Y-109249804D01*
X119794006Y-109249797D01*
X119794005Y-109249795D01*
X119725667Y-109181457D01*
X119659471Y-109115259D01*
X119659470Y-109115258D01*
X119655584Y-109111372D01*
X119655572Y-109111361D01*
X117598908Y-107054698D01*
X117598889Y-107054670D01*
X117451329Y-106907114D01*
X117451323Y-106907108D01*
X117358195Y-106835650D01*
X117294138Y-106762607D01*
X117289074Y-106753392D01*
X117247734Y-106674249D01*
X117125571Y-106524429D01*
X117060660Y-106471501D01*
X116975751Y-106402266D01*
X116975746Y-106402263D01*
X116804405Y-106312762D01*
X116688187Y-106279508D01*
X116618552Y-106259583D01*
X116532920Y-106251969D01*
X116505141Y-106249500D01*
X116505138Y-106249500D01*
X112294862Y-106249500D01*
X112294859Y-106249500D01*
X112264610Y-106252189D01*
X112181448Y-106259583D01*
X112181445Y-106259584D01*
X111995594Y-106312762D01*
X111824253Y-106402263D01*
X111824248Y-106402266D01*
X111674430Y-106524427D01*
X111674427Y-106524430D01*
X111552266Y-106674248D01*
X111552263Y-106674253D01*
X111462762Y-106845594D01*
X111425926Y-106974333D01*
X111409583Y-107031448D01*
X111399500Y-107144862D01*
X111399500Y-107855138D01*
X111409583Y-107968552D01*
X111462763Y-108154406D01*
X111504713Y-108234716D01*
X111532031Y-108327950D01*
X111521590Y-108424542D01*
X111504715Y-108465279D01*
X111462763Y-108545594D01*
X111409583Y-108731448D01*
X111399500Y-108844862D01*
X111399500Y-109555138D01*
X111409583Y-109668552D01*
X111429508Y-109738187D01*
X111462762Y-109854405D01*
X111552263Y-110025746D01*
X111552266Y-110025751D01*
X111674427Y-110175569D01*
X111674430Y-110175572D01*
X111694585Y-110192006D01*
X111824249Y-110297734D01*
X111995594Y-110387237D01*
X112068998Y-110408240D01*
X112155395Y-110452675D01*
X112218211Y-110526791D01*
X112247883Y-110619304D01*
X112249500Y-110647633D01*
X112249500Y-113003961D01*
X112230546Y-113099249D01*
X112176570Y-113180031D01*
X112095788Y-113234007D01*
X112000500Y-113252961D01*
X111905212Y-113234007D01*
X111824430Y-113180031D01*
X111811159Y-113165674D01*
X111751293Y-113095580D01*
X111699759Y-113035241D01*
X111699752Y-113035235D01*
X111699749Y-113035232D01*
X111514181Y-112876742D01*
X111514172Y-112876735D01*
X111306101Y-112749230D01*
X111306085Y-112749221D01*
X111080613Y-112655828D01*
X110843306Y-112598854D01*
X110843291Y-112598852D01*
X110600006Y-112579706D01*
X110599994Y-112579706D01*
X110356708Y-112598852D01*
X110356693Y-112598854D01*
X110119386Y-112655828D01*
X110036305Y-112690241D01*
X110023182Y-112694837D01*
X109987940Y-112705009D01*
X109987926Y-112705015D01*
X109252106Y-113017721D01*
X108580759Y-113303027D01*
X108563716Y-113310889D01*
X108561270Y-113312018D01*
X108550397Y-113317442D01*
X108550394Y-113317444D01*
X108526670Y-113332606D01*
X108521874Y-113335522D01*
X108364531Y-113426361D01*
X108220744Y-113536689D01*
X108215472Y-113540442D01*
X108214797Y-113540993D01*
X108146457Y-113609333D01*
X108080252Y-113675536D01*
X105944205Y-115811583D01*
X105874802Y-115860509D01*
X104329751Y-116592996D01*
X104235530Y-116616689D01*
X104223084Y-116617000D01*
X103823369Y-116617000D01*
X103752811Y-116623412D01*
X103752803Y-116623414D01*
X103590391Y-116674022D01*
X103444816Y-116762027D01*
X103324527Y-116882316D01*
X103236522Y-117027891D01*
X103185914Y-117190303D01*
X103185912Y-117190311D01*
X103179500Y-117260869D01*
X103179500Y-119374130D01*
X103185912Y-119444688D01*
X103185914Y-119444696D01*
X103236522Y-119607108D01*
X103305212Y-119720732D01*
X103324528Y-119752685D01*
X103444815Y-119872972D01*
X103506873Y-119910487D01*
X103590391Y-119960977D01*
X103590393Y-119960977D01*
X103590394Y-119960978D01*
X103752804Y-120011586D01*
X103752808Y-120011586D01*
X103752811Y-120011587D01*
X103823369Y-120017999D01*
X103823377Y-120017999D01*
X103823384Y-120018000D01*
X103823390Y-120018000D01*
X105936610Y-120018000D01*
X105936616Y-120018000D01*
X105936623Y-120017999D01*
X105936630Y-120017999D01*
X106007188Y-120011587D01*
X106007189Y-120011586D01*
X106007196Y-120011586D01*
X106126428Y-119974432D01*
X106223034Y-119964181D01*
X106316216Y-119991681D01*
X106391781Y-120052746D01*
X106438226Y-120138081D01*
X106449500Y-120212159D01*
X106449500Y-121103150D01*
X106430546Y-121198438D01*
X106376570Y-121279220D01*
X106376569Y-121279220D01*
X105945357Y-121710431D01*
X105864576Y-121764407D01*
X105836425Y-121774139D01*
X104567381Y-122129468D01*
X104552357Y-122132691D01*
X104520540Y-122137487D01*
X104520535Y-122137488D01*
X104370475Y-122183776D01*
X104341503Y-122192713D01*
X104329550Y-122196060D01*
X104329543Y-122196062D01*
X104320834Y-122198785D01*
X104309277Y-122202400D01*
X104302542Y-122204730D01*
X104276998Y-122212609D01*
X104276988Y-122212613D01*
X104047367Y-122323194D01*
X104047362Y-122323196D01*
X103836785Y-122466765D01*
X103649945Y-122640127D01*
X103491045Y-122839382D01*
X103491041Y-122839388D01*
X103363609Y-123060107D01*
X103363600Y-123060127D01*
X103270495Y-123297354D01*
X103270489Y-123297370D01*
X103213777Y-123545845D01*
X103194732Y-123800000D01*
X103213777Y-124054154D01*
X103270489Y-124302629D01*
X103270495Y-124302645D01*
X103363600Y-124539872D01*
X103363609Y-124539892D01*
X103383486Y-124574320D01*
X103491041Y-124760612D01*
X103491045Y-124760617D01*
X103649945Y-124959872D01*
X103649948Y-124959875D01*
X103649950Y-124959877D01*
X103778792Y-125079424D01*
X103836784Y-125133233D01*
X103868855Y-125155099D01*
X103936908Y-125224438D01*
X103973246Y-125314542D01*
X103972336Y-125411692D01*
X103934318Y-125501100D01*
X103864979Y-125569153D01*
X103785297Y-125601723D01*
X103785382Y-125601995D01*
X103782233Y-125602976D01*
X103777172Y-125605045D01*
X103772807Y-125605913D01*
X103610391Y-125656522D01*
X103464816Y-125744527D01*
X103344527Y-125864816D01*
X103256522Y-126010391D01*
X103205914Y-126172803D01*
X103205912Y-126172811D01*
X103199500Y-126243369D01*
X103199500Y-128356630D01*
X103205912Y-128427188D01*
X103205914Y-128427196D01*
X103256522Y-128589608D01*
X103303576Y-128667443D01*
X103344528Y-128735185D01*
X103464815Y-128855472D01*
X103526873Y-128892987D01*
X103610391Y-128943477D01*
X103610393Y-128943477D01*
X103610394Y-128943478D01*
X103772804Y-128994086D01*
X103772808Y-128994086D01*
X103772811Y-128994087D01*
X103843369Y-129000499D01*
X103843377Y-129000499D01*
X103843384Y-129000500D01*
X103843390Y-129000500D01*
X105956610Y-129000500D01*
X105956616Y-129000500D01*
X105956623Y-129000499D01*
X105956630Y-129000499D01*
X106027188Y-128994087D01*
X106027189Y-128994086D01*
X106027196Y-128994086D01*
X106131116Y-128961703D01*
X106227726Y-128951452D01*
X106320908Y-128978952D01*
X106329688Y-128983788D01*
X106364196Y-129003711D01*
X106364208Y-129003716D01*
X106539855Y-129076469D01*
X106539859Y-129076470D01*
X106539868Y-129076474D01*
X106723532Y-129125685D01*
X106903213Y-129149337D01*
X106909597Y-129150413D01*
X106910447Y-129150499D01*
X106910451Y-129150500D01*
X106910455Y-129150500D01*
X106912041Y-129150500D01*
X106912049Y-129150501D01*
X107007120Y-129150500D01*
X109291261Y-129150500D01*
X109386549Y-129169454D01*
X109467331Y-129223430D01*
X109521307Y-129304212D01*
X109528983Y-129325413D01*
X109536522Y-129349606D01*
X109536523Y-129349609D01*
X109606536Y-129465424D01*
X109624528Y-129495185D01*
X109703776Y-129574433D01*
X109757750Y-129655212D01*
X109776704Y-129750500D01*
X109757750Y-129845788D01*
X109703774Y-129926570D01*
X109622992Y-129980546D01*
X109527704Y-129999500D01*
X100249500Y-129999500D01*
X100154212Y-129980546D01*
X100073430Y-129926570D01*
X100019454Y-129845788D01*
X100000500Y-129750500D01*
X100000500Y-100249500D01*
X100019454Y-100154212D01*
X100073430Y-100073430D01*
X100154212Y-100019454D01*
X100249500Y-100000500D01*
X118445652Y-100000500D01*
X118540940Y-100019454D01*
G37*
%TD.AperFunction*%
%TA.AperFunction,Conductor*%
G36*
X114026055Y-126369454D02*
G01*
X114106837Y-126423430D01*
X114156481Y-126494361D01*
X114451215Y-127127112D01*
X114474268Y-127221492D01*
X114474500Y-127232249D01*
X114474500Y-127305138D01*
X114484583Y-127418552D01*
X114484584Y-127418554D01*
X114484585Y-127418561D01*
X114507958Y-127500248D01*
X114511203Y-127514853D01*
X114511453Y-127516418D01*
X114511455Y-127516428D01*
X114514787Y-127525421D01*
X114517737Y-127534422D01*
X114537761Y-127604404D01*
X114537762Y-127604406D01*
X114555731Y-127638807D01*
X114562128Y-127653204D01*
X114570537Y-127675900D01*
X114570540Y-127675907D01*
X114570543Y-127675914D01*
X114621967Y-127775751D01*
X114627237Y-127785982D01*
X114654019Y-127879373D01*
X114643024Y-127975904D01*
X114627237Y-128014017D01*
X114570547Y-128124078D01*
X114570542Y-128124089D01*
X114559935Y-128151466D01*
X114554194Y-128164136D01*
X114537764Y-128195590D01*
X114537762Y-128195596D01*
X114524966Y-128240314D01*
X114521365Y-128251033D01*
X114516591Y-128263357D01*
X114516588Y-128263368D01*
X114515306Y-128268119D01*
X114515306Y-128268120D01*
X114511914Y-128284622D01*
X114509659Y-128293807D01*
X114484582Y-128381451D01*
X114484582Y-128381454D01*
X114475367Y-128485105D01*
X114474500Y-128494862D01*
X114474500Y-129505138D01*
X114484583Y-129618552D01*
X114484583Y-129618555D01*
X114484584Y-129618556D01*
X114502738Y-129682002D01*
X114510728Y-129778828D01*
X114481057Y-129871341D01*
X114418241Y-129945457D01*
X114331843Y-129989893D01*
X114263345Y-129999500D01*
X111932296Y-129999500D01*
X111837008Y-129980546D01*
X111756226Y-129926570D01*
X111702250Y-129845788D01*
X111683296Y-129750500D01*
X111702250Y-129655212D01*
X111756223Y-129574433D01*
X111835472Y-129495185D01*
X111923478Y-129349606D01*
X111974086Y-129187196D01*
X111975699Y-129169454D01*
X111980499Y-129116630D01*
X111980500Y-129116609D01*
X111980500Y-127939500D01*
X111999454Y-127844212D01*
X112053430Y-127763430D01*
X112134212Y-127709454D01*
X112229500Y-127690500D01*
X112331590Y-127690500D01*
X112360245Y-127687951D01*
X112447985Y-127680151D01*
X112638728Y-127625573D01*
X112814579Y-127533716D01*
X112968340Y-127408340D01*
X113093716Y-127254579D01*
X113185573Y-127078728D01*
X113231003Y-126919951D01*
X113235976Y-126905842D01*
X113348027Y-126640155D01*
X113405983Y-126502739D01*
X113460476Y-126422305D01*
X113541601Y-126368848D01*
X113635413Y-126350500D01*
X113930767Y-126350500D01*
X114026055Y-126369454D01*
G37*
%TD.AperFunction*%
%TA.AperFunction,Conductor*%
G36*
X154852068Y-110197238D02*
G01*
X154931337Y-110253411D01*
X154983075Y-110335644D01*
X154999500Y-110424581D01*
X154999500Y-129750500D01*
X154980546Y-129845788D01*
X154926570Y-129926570D01*
X154845788Y-129980546D01*
X154750500Y-129999500D01*
X150510018Y-129999500D01*
X150414730Y-129980546D01*
X150333948Y-129926570D01*
X150279972Y-129845788D01*
X150261018Y-129750500D01*
X150279972Y-129655212D01*
X150333948Y-129574430D01*
X150356456Y-129554491D01*
X150394026Y-129525056D01*
X150394026Y-129525055D01*
X150394036Y-129525048D01*
X150625048Y-129294036D01*
X150826530Y-129036863D01*
X150995545Y-128757279D01*
X151129627Y-128459361D01*
X151226821Y-128147453D01*
X151285710Y-127826104D01*
X151305436Y-127500000D01*
X151285710Y-127173896D01*
X151276627Y-127124334D01*
X151244283Y-126947836D01*
X151226821Y-126852547D01*
X151129627Y-126540639D01*
X150995545Y-126242721D01*
X150995543Y-126242717D01*
X150826533Y-125963141D01*
X150815189Y-125948662D01*
X150764290Y-125883693D01*
X150625053Y-125705970D01*
X150625051Y-125705968D01*
X150625048Y-125705964D01*
X150394036Y-125474952D01*
X150394031Y-125474948D01*
X150394029Y-125474946D01*
X150136858Y-125273466D01*
X149857282Y-125104456D01*
X149559366Y-124970375D01*
X149559364Y-124970374D01*
X149559361Y-124970373D01*
X149352767Y-124905996D01*
X149247454Y-124873179D01*
X149247445Y-124873177D01*
X148926114Y-124814291D01*
X148926116Y-124814291D01*
X148926106Y-124814290D01*
X148926104Y-124814290D01*
X148600000Y-124794564D01*
X148273896Y-124814290D01*
X148273893Y-124814290D01*
X148273884Y-124814291D01*
X147952554Y-124873177D01*
X147952545Y-124873179D01*
X147698910Y-124952215D01*
X147661698Y-124963811D01*
X147640633Y-124970375D01*
X147342717Y-125104456D01*
X147063141Y-125273466D01*
X146805970Y-125474946D01*
X146574946Y-125705970D01*
X146373466Y-125963141D01*
X146204456Y-126242717D01*
X146070375Y-126540633D01*
X145973179Y-126852545D01*
X145973177Y-126852554D01*
X145914291Y-127173884D01*
X145914290Y-127173893D01*
X145914290Y-127173896D01*
X145894564Y-127500000D01*
X145914133Y-127823514D01*
X145914291Y-127826115D01*
X145973177Y-128147445D01*
X145973179Y-128147454D01*
X146003812Y-128245758D01*
X146069000Y-128454956D01*
X146070375Y-128459366D01*
X146204456Y-128757282D01*
X146373466Y-129036858D01*
X146574946Y-129294029D01*
X146574948Y-129294031D01*
X146574952Y-129294036D01*
X146805964Y-129525048D01*
X146805968Y-129525051D01*
X146805973Y-129525056D01*
X146843544Y-129554491D01*
X146906865Y-129628177D01*
X146937166Y-129720486D01*
X146929837Y-129817364D01*
X146885991Y-129904062D01*
X146812305Y-129967383D01*
X146719996Y-129997684D01*
X146689982Y-129999500D01*
X117111655Y-129999500D01*
X117016367Y-129980546D01*
X116935585Y-129926570D01*
X116881609Y-129845788D01*
X116862655Y-129750500D01*
X116872262Y-129682002D01*
X116879927Y-129655212D01*
X116890417Y-129618552D01*
X116900500Y-129505138D01*
X116900500Y-128494862D01*
X116898130Y-128468206D01*
X116908569Y-128371615D01*
X116955177Y-128286370D01*
X117030860Y-128225450D01*
X117124094Y-128198130D01*
X117168204Y-128198130D01*
X117194862Y-128200500D01*
X117830141Y-128200500D01*
X117844621Y-128199212D01*
X117943552Y-128190417D01*
X118129406Y-128137237D01*
X118300751Y-128047734D01*
X118450571Y-127925571D01*
X118572734Y-127775751D01*
X118662237Y-127604406D01*
X118715417Y-127418552D01*
X118725500Y-127305138D01*
X118725500Y-127203767D01*
X118744454Y-127108479D01*
X118798430Y-127027697D01*
X118879212Y-126973721D01*
X118974500Y-126954767D01*
X119069788Y-126973721D01*
X119085126Y-126980691D01*
X119104979Y-126990537D01*
X119284505Y-127035183D01*
X119284508Y-127035183D01*
X119289117Y-127035907D01*
X119292678Y-127037215D01*
X119295146Y-127037829D01*
X119295079Y-127038097D01*
X119380313Y-127069410D01*
X119451746Y-127135261D01*
X119492541Y-127223436D01*
X119499500Y-127281894D01*
X119499500Y-128136460D01*
X119502315Y-128177983D01*
X119502316Y-128177991D01*
X119502317Y-128177995D01*
X119517815Y-128240314D01*
X119546963Y-128357524D01*
X119546964Y-128357525D01*
X119629155Y-128523248D01*
X119629157Y-128523251D01*
X119629158Y-128523253D01*
X119745060Y-128667440D01*
X119889247Y-128783342D01*
X119889250Y-128783343D01*
X119889251Y-128783344D01*
X120054974Y-128865535D01*
X120054975Y-128865536D01*
X120054978Y-128865536D01*
X120054979Y-128865537D01*
X120234505Y-128910183D01*
X120234514Y-128910183D01*
X120234516Y-128910184D01*
X120276040Y-128913000D01*
X120276046Y-128913000D01*
X120723960Y-128913000D01*
X120765483Y-128910184D01*
X120765484Y-128910183D01*
X120765495Y-128910183D01*
X120945021Y-128865537D01*
X120945022Y-128865536D01*
X120945024Y-128865536D01*
X120945025Y-128865535D01*
X120975338Y-128850501D01*
X121110753Y-128783342D01*
X121254940Y-128667440D01*
X121370842Y-128523253D01*
X121453037Y-128357521D01*
X121497683Y-128177995D01*
X121500500Y-128136454D01*
X121500500Y-127281894D01*
X121519454Y-127186606D01*
X121561062Y-127124335D01*
X125999500Y-127124335D01*
X126001323Y-127135261D01*
X126040428Y-127369610D01*
X126040430Y-127369621D01*
X126121172Y-127604811D01*
X126197852Y-127746502D01*
X126219217Y-127785982D01*
X126239529Y-127823514D01*
X126387804Y-128014017D01*
X126392262Y-128019744D01*
X126392265Y-128019747D01*
X126392269Y-128019751D01*
X126505611Y-128124089D01*
X126564155Y-128177983D01*
X126575214Y-128188163D01*
X126575221Y-128188169D01*
X126690307Y-128263357D01*
X126783393Y-128324173D01*
X127011119Y-128424063D01*
X127252179Y-128485108D01*
X127252182Y-128485108D01*
X127252186Y-128485109D01*
X127437928Y-128500500D01*
X127437933Y-128500500D01*
X127562072Y-128500500D01*
X127747813Y-128485109D01*
X127747815Y-128485108D01*
X127747821Y-128485108D01*
X127988881Y-128424063D01*
X128216607Y-128324173D01*
X128374690Y-128220892D01*
X128424778Y-128188169D01*
X128424780Y-128188167D01*
X128424785Y-128188164D01*
X128607738Y-128019744D01*
X128760474Y-127823509D01*
X128878828Y-127604810D01*
X128928858Y-127459077D01*
X128959569Y-127369621D01*
X128959569Y-127369618D01*
X128959571Y-127369614D01*
X129000500Y-127124335D01*
X129000500Y-126875665D01*
X128959571Y-126630386D01*
X128959569Y-126630382D01*
X128959569Y-126630378D01*
X128890065Y-126427922D01*
X128878828Y-126395190D01*
X128760474Y-126176491D01*
X128760471Y-126176487D01*
X128760470Y-126176485D01*
X128607742Y-125980261D01*
X128607741Y-125980260D01*
X128607738Y-125980256D01*
X128607733Y-125980252D01*
X128607730Y-125980248D01*
X128424785Y-125811836D01*
X128424778Y-125811830D01*
X128245510Y-125694710D01*
X128216607Y-125675827D01*
X128216604Y-125675825D01*
X128216603Y-125675825D01*
X128114736Y-125631142D01*
X127988881Y-125575937D01*
X127988879Y-125575936D01*
X127988878Y-125575936D01*
X127988874Y-125575935D01*
X127747831Y-125514894D01*
X127747813Y-125514890D01*
X127562072Y-125499500D01*
X127562067Y-125499500D01*
X127437933Y-125499500D01*
X127437928Y-125499500D01*
X127252186Y-125514890D01*
X127252168Y-125514894D01*
X127011125Y-125575935D01*
X127011121Y-125575936D01*
X126783396Y-125675825D01*
X126783391Y-125675828D01*
X126575221Y-125811830D01*
X126575214Y-125811836D01*
X126392269Y-125980248D01*
X126392257Y-125980261D01*
X126239529Y-126176485D01*
X126121172Y-126395188D01*
X126040430Y-126630378D01*
X126040428Y-126630389D01*
X126013387Y-126792443D01*
X125999500Y-126875665D01*
X125999500Y-127124335D01*
X121561062Y-127124335D01*
X121573430Y-127105824D01*
X121654212Y-127051848D01*
X121710883Y-127035907D01*
X121715489Y-127035183D01*
X121715495Y-127035183D01*
X121895021Y-126990537D01*
X121895022Y-126990536D01*
X121895024Y-126990536D01*
X121895025Y-126990535D01*
X121914866Y-126980695D01*
X122060753Y-126908342D01*
X122204940Y-126792440D01*
X122320842Y-126648253D01*
X122403037Y-126482521D01*
X122447683Y-126302995D01*
X122447860Y-126300385D01*
X122450500Y-126261460D01*
X122450500Y-125266982D01*
X122469454Y-125171694D01*
X122523430Y-125090912D01*
X122604212Y-125036936D01*
X122699500Y-125017982D01*
X122783352Y-125034111D01*
X122783452Y-125033763D01*
X122787378Y-125034886D01*
X122791878Y-125035752D01*
X122795582Y-125037231D01*
X122795594Y-125037237D01*
X122823721Y-125045285D01*
X122834330Y-125048321D01*
X122847581Y-125052934D01*
X122853456Y-125055359D01*
X122858517Y-125056803D01*
X122858521Y-125056804D01*
X122858516Y-125056803D01*
X122864043Y-125057979D01*
X122875671Y-125060456D01*
X122883971Y-125062524D01*
X122981448Y-125090417D01*
X123064610Y-125097810D01*
X123094859Y-125100500D01*
X123094862Y-125100500D01*
X124105141Y-125100500D01*
X124119621Y-125099212D01*
X124218552Y-125090417D01*
X124404406Y-125037237D01*
X124575751Y-124947734D01*
X124602053Y-124926286D01*
X124613211Y-124918175D01*
X124966449Y-124690268D01*
X125056794Y-124654536D01*
X125101443Y-124650500D01*
X129544571Y-124650500D01*
X129639859Y-124669454D01*
X129720641Y-124723430D01*
X133379230Y-128382019D01*
X133379248Y-128382046D01*
X133452160Y-128454955D01*
X133452160Y-128454956D01*
X133514752Y-128517546D01*
X133655203Y-128625317D01*
X133728170Y-128667443D01*
X133808521Y-128713833D01*
X133860072Y-128735185D01*
X133972079Y-128781578D01*
X134143082Y-128827396D01*
X134303379Y-128848497D01*
X134313891Y-128850341D01*
X134314610Y-128850500D01*
X134318594Y-128850500D01*
X134318602Y-128850501D01*
X134407119Y-128850500D01*
X142792881Y-128850500D01*
X142839006Y-128850500D01*
X142842226Y-128850500D01*
X142842361Y-128850496D01*
X142881398Y-128850497D01*
X143056916Y-128827391D01*
X143056923Y-128827388D01*
X143056928Y-128827388D01*
X143227907Y-128781577D01*
X143227911Y-128781575D01*
X143227917Y-128781574D01*
X143227921Y-128781572D01*
X143227925Y-128781571D01*
X143391465Y-128713833D01*
X143391463Y-128713833D01*
X143391475Y-128713829D01*
X143544791Y-128625314D01*
X143673099Y-128526861D01*
X143681823Y-128520744D01*
X143682435Y-128520354D01*
X143747834Y-128454955D01*
X143811043Y-128391747D01*
X143811044Y-128391744D01*
X145171243Y-127031544D01*
X145171253Y-127031537D01*
X145182012Y-127020778D01*
X145182036Y-127020761D01*
X145254955Y-126947839D01*
X145254956Y-126947840D01*
X145317546Y-126885248D01*
X145425317Y-126744797D01*
X145513832Y-126591480D01*
X145581578Y-126427921D01*
X145627396Y-126256918D01*
X145648500Y-126096590D01*
X145650339Y-126086120D01*
X145650500Y-126085390D01*
X145650500Y-126081405D01*
X145650501Y-126081398D01*
X145650500Y-125992881D01*
X145650500Y-125948662D01*
X145650500Y-119886403D01*
X145669454Y-119791115D01*
X145723430Y-119710333D01*
X145804212Y-119656357D01*
X145899500Y-119637403D01*
X145994788Y-119656357D01*
X146075570Y-119710333D01*
X146126563Y-119784210D01*
X146204456Y-119957282D01*
X146373466Y-120236858D01*
X146574946Y-120494029D01*
X146574948Y-120494031D01*
X146574952Y-120494036D01*
X146805964Y-120725048D01*
X146805968Y-120725051D01*
X146805970Y-120725053D01*
X147063141Y-120926533D01*
X147342717Y-121095543D01*
X147342719Y-121095544D01*
X147342721Y-121095545D01*
X147640639Y-121229627D01*
X147952547Y-121326821D01*
X148273885Y-121385708D01*
X148273886Y-121385708D01*
X148273896Y-121385710D01*
X148600000Y-121405436D01*
X148926104Y-121385710D01*
X149247453Y-121326821D01*
X149559361Y-121229627D01*
X149857279Y-121095545D01*
X150136863Y-120926530D01*
X150394036Y-120725048D01*
X150625048Y-120494036D01*
X150826530Y-120236863D01*
X150995545Y-119957279D01*
X151129627Y-119659361D01*
X151226821Y-119347453D01*
X151285710Y-119026104D01*
X151305436Y-118700000D01*
X151285710Y-118373896D01*
X151280056Y-118343045D01*
X151226822Y-118052554D01*
X151226821Y-118052547D01*
X151129627Y-117740639D01*
X150995545Y-117442721D01*
X150974872Y-117408523D01*
X150826533Y-117163141D01*
X150794828Y-117122673D01*
X150694467Y-116994571D01*
X150625053Y-116905970D01*
X150625051Y-116905968D01*
X150625048Y-116905964D01*
X150394036Y-116674952D01*
X150394031Y-116674948D01*
X150394029Y-116674946D01*
X150136858Y-116473466D01*
X149857282Y-116304456D01*
X149559366Y-116170375D01*
X149559364Y-116170374D01*
X149559361Y-116170373D01*
X149356807Y-116107255D01*
X149247454Y-116073179D01*
X149247445Y-116073177D01*
X148926114Y-116014291D01*
X148926116Y-116014291D01*
X148926106Y-116014290D01*
X148926104Y-116014290D01*
X148600000Y-115994564D01*
X148273896Y-116014290D01*
X148273893Y-116014290D01*
X148273884Y-116014291D01*
X147952554Y-116073177D01*
X147952545Y-116073179D01*
X147640633Y-116170375D01*
X147342717Y-116304456D01*
X147063141Y-116473466D01*
X146805970Y-116674946D01*
X146574946Y-116905970D01*
X146373466Y-117163141D01*
X146204456Y-117442717D01*
X146126563Y-117615789D01*
X146070171Y-117694904D01*
X145987796Y-117746415D01*
X145891979Y-117762482D01*
X145797307Y-117740659D01*
X145718192Y-117684267D01*
X145666681Y-117601892D01*
X145650500Y-117513596D01*
X145650500Y-116055427D01*
X145669454Y-115960139D01*
X145723430Y-115879358D01*
X146129732Y-115473054D01*
X146696339Y-114906447D01*
X146777121Y-114852471D01*
X146872409Y-114833517D01*
X146918689Y-114840006D01*
X146919015Y-114838189D01*
X146931443Y-114840415D01*
X146931448Y-114840417D01*
X146959844Y-114842578D01*
X146975455Y-114844768D01*
X147003344Y-114850500D01*
X147059128Y-114850500D01*
X147068585Y-114850860D01*
X147124201Y-114855095D01*
X147124201Y-114855094D01*
X147124203Y-114855095D01*
X147152448Y-114851497D01*
X147168187Y-114850500D01*
X151344406Y-114850500D01*
X151344573Y-114850495D01*
X151387950Y-114850496D01*
X151576466Y-114825680D01*
X151760129Y-114776470D01*
X151935798Y-114703708D01*
X152100466Y-114608640D01*
X152244255Y-114498308D01*
X152249531Y-114494554D01*
X152250198Y-114494010D01*
X152250199Y-114494008D01*
X152250205Y-114494005D01*
X152318543Y-114425667D01*
X152384741Y-114359471D01*
X152384741Y-114359470D01*
X152396459Y-114347753D01*
X152396478Y-114347730D01*
X153285274Y-113458934D01*
X153285310Y-113458908D01*
X153365666Y-113378549D01*
X153365667Y-113378550D01*
X153432892Y-113311323D01*
X153548642Y-113160472D01*
X153588887Y-113090762D01*
X153652942Y-113017721D01*
X153740077Y-112974749D01*
X153781995Y-112967285D01*
X153817187Y-112964087D01*
X153817188Y-112964086D01*
X153817196Y-112964086D01*
X153979606Y-112913478D01*
X154125185Y-112825472D01*
X154245472Y-112705185D01*
X154333478Y-112559606D01*
X154384086Y-112397196D01*
X154390500Y-112326616D01*
X154390500Y-110523299D01*
X154409454Y-110428011D01*
X154463430Y-110347229D01*
X154488113Y-110325605D01*
X154489503Y-110324539D01*
X154489516Y-110324531D01*
X154542320Y-110278776D01*
X154579334Y-110243741D01*
X154661563Y-110192006D01*
X154757336Y-110175675D01*
X154852068Y-110197238D01*
G37*
%TD.AperFunction*%
%TA.AperFunction,Conductor*%
G36*
X141639859Y-117469454D02*
G01*
X141720641Y-117523430D01*
X142276570Y-118079359D01*
X142330546Y-118160141D01*
X142349500Y-118255429D01*
X142349500Y-118818105D01*
X142330546Y-118913393D01*
X142276570Y-118994175D01*
X142195788Y-119048151D01*
X142100500Y-119067105D01*
X142042373Y-119060225D01*
X141851146Y-119014316D01*
X141600005Y-118994551D01*
X141599995Y-118994551D01*
X141348854Y-119014316D01*
X141103891Y-119073126D01*
X141103883Y-119073129D01*
X140871141Y-119169533D01*
X140871135Y-119169537D01*
X140656347Y-119301158D01*
X140656345Y-119301160D01*
X140464780Y-119464772D01*
X140464774Y-119464778D01*
X140414277Y-119523900D01*
X140407462Y-119531257D01*
X140401077Y-119537615D01*
X140401060Y-119537634D01*
X140383594Y-119559827D01*
X140301164Y-119656340D01*
X140301159Y-119656347D01*
X140282211Y-119687268D01*
X140273886Y-119699223D01*
X139979931Y-120072726D01*
X139906105Y-120135883D01*
X139813729Y-120165980D01*
X139719808Y-120159243D01*
X139657495Y-120142544D01*
X139647740Y-120139496D01*
X139636171Y-120135352D01*
X139636158Y-120135348D01*
X139631468Y-120134200D01*
X139631462Y-120134199D01*
X139620054Y-120132101D01*
X139610349Y-120129912D01*
X139520584Y-120105860D01*
X139520579Y-120105859D01*
X139520578Y-120105859D01*
X139439778Y-120099500D01*
X138560222Y-120099500D01*
X138479422Y-120105859D01*
X138479421Y-120105859D01*
X138479415Y-120105860D01*
X138291509Y-120156210D01*
X138291505Y-120156211D01*
X138118160Y-120244534D01*
X138118156Y-120244537D01*
X137966973Y-120366963D01*
X137966963Y-120366973D01*
X137844537Y-120518156D01*
X137844534Y-120518160D01*
X137756211Y-120691505D01*
X137756210Y-120691509D01*
X137705860Y-120879415D01*
X137705859Y-120879421D01*
X137705859Y-120879422D01*
X137699557Y-120959505D01*
X137699500Y-120960223D01*
X137699500Y-121539777D01*
X137705859Y-121620576D01*
X137705860Y-121620584D01*
X137756210Y-121808490D01*
X137756211Y-121808494D01*
X137844534Y-121981839D01*
X137844537Y-121981843D01*
X137942095Y-122102317D01*
X137966968Y-122133032D01*
X138068956Y-122215620D01*
X138131080Y-122290316D01*
X138159891Y-122383101D01*
X138151001Y-122479848D01*
X138134116Y-122522172D01*
X138081978Y-122624497D01*
X138030944Y-122814959D01*
X138030943Y-122814966D01*
X138026137Y-122876046D01*
X138024500Y-122896847D01*
X138024501Y-123503152D01*
X138030945Y-123585044D01*
X138081978Y-123775501D01*
X138171494Y-123951186D01*
X138295580Y-124104420D01*
X138352911Y-124150845D01*
X138415033Y-124225540D01*
X138443844Y-124318325D01*
X138434954Y-124415073D01*
X138389718Y-124501054D01*
X138352913Y-124537859D01*
X138316973Y-124566963D01*
X138316963Y-124566973D01*
X138194537Y-124718156D01*
X138194534Y-124718160D01*
X138106211Y-124891505D01*
X138106210Y-124891509D01*
X138055860Y-125079415D01*
X138055859Y-125079421D01*
X138055859Y-125079422D01*
X138049500Y-125160222D01*
X138049500Y-126039778D01*
X138053933Y-126096111D01*
X138055859Y-126120576D01*
X138055860Y-126120584D01*
X138106210Y-126308490D01*
X138106211Y-126308494D01*
X138194534Y-126481839D01*
X138194537Y-126481843D01*
X138244595Y-126543659D01*
X138316968Y-126633032D01*
X138408303Y-126706993D01*
X138470424Y-126781687D01*
X138499235Y-126874472D01*
X138490345Y-126971220D01*
X138445109Y-127057201D01*
X138370412Y-127119325D01*
X138277627Y-127148136D01*
X138251599Y-127149500D01*
X136848401Y-127149500D01*
X136753113Y-127130546D01*
X136672331Y-127076570D01*
X136618355Y-126995788D01*
X136599401Y-126900500D01*
X136618355Y-126805212D01*
X136672331Y-126724430D01*
X136691685Y-126707002D01*
X136783032Y-126633032D01*
X136905465Y-126481840D01*
X136993788Y-126308496D01*
X137044141Y-126120578D01*
X137050500Y-126039778D01*
X137050500Y-125160222D01*
X137044141Y-125079422D01*
X137023409Y-125002053D01*
X137019968Y-124987275D01*
X137019968Y-124987273D01*
X137018803Y-124983838D01*
X137016447Y-124976070D01*
X137008767Y-124947406D01*
X136993788Y-124891504D01*
X136983112Y-124870551D01*
X136969172Y-124837495D01*
X136965344Y-124826210D01*
X136965343Y-124826206D01*
X136959619Y-124814290D01*
X136775051Y-124430047D01*
X136750878Y-124335947D01*
X136750500Y-124322234D01*
X136750500Y-120559184D01*
X136761409Y-120486290D01*
X136840379Y-120228376D01*
X136886396Y-120142822D01*
X136938173Y-120095569D01*
X137248926Y-119883649D01*
X137258025Y-119876653D01*
X137271647Y-119867541D01*
X137344794Y-119825313D01*
X137473082Y-119726874D01*
X137481833Y-119720737D01*
X137482436Y-119720353D01*
X137546449Y-119656340D01*
X137588179Y-119614611D01*
X137625226Y-119577564D01*
X137625237Y-119577550D01*
X138085349Y-119117437D01*
X138166128Y-119063463D01*
X138261416Y-119044509D01*
X138325858Y-119052993D01*
X138479422Y-119094141D01*
X138560222Y-119100500D01*
X138560223Y-119100500D01*
X139439777Y-119100500D01*
X139439778Y-119100500D01*
X139520578Y-119094141D01*
X139708496Y-119043788D01*
X139881840Y-118955465D01*
X140033032Y-118833032D01*
X140155465Y-118681840D01*
X140243788Y-118508496D01*
X140294141Y-118320578D01*
X140300500Y-118239778D01*
X140300500Y-117699500D01*
X140319454Y-117604212D01*
X140373430Y-117523430D01*
X140454212Y-117469454D01*
X140549500Y-117450500D01*
X141544571Y-117450500D01*
X141639859Y-117469454D01*
G37*
%TD.AperFunction*%
%TA.AperFunction,Conductor*%
G36*
X109416396Y-118145193D02*
G01*
X109449929Y-118162152D01*
X109460391Y-118168477D01*
X109460393Y-118168477D01*
X109460394Y-118168478D01*
X109622804Y-118219086D01*
X109622808Y-118219086D01*
X109622811Y-118219087D01*
X109693369Y-118225499D01*
X109693377Y-118225499D01*
X109693384Y-118225500D01*
X110091894Y-118225500D01*
X110179934Y-118241583D01*
X110228650Y-118259998D01*
X110311081Y-118311420D01*
X110367560Y-118390472D01*
X110389487Y-118485120D01*
X110373525Y-118580955D01*
X110357342Y-118612652D01*
X110358113Y-118613055D01*
X110262762Y-118795594D01*
X110252049Y-118833036D01*
X110209583Y-118981448D01*
X110206661Y-119014316D01*
X110199500Y-119094859D01*
X110199500Y-120105141D01*
X110201817Y-120131203D01*
X110209583Y-120218552D01*
X110219863Y-120254479D01*
X110262762Y-120404405D01*
X110352265Y-120575751D01*
X110373696Y-120602034D01*
X110381826Y-120613220D01*
X110472543Y-120753823D01*
X110508276Y-120844165D01*
X110506716Y-120941307D01*
X110504954Y-120948899D01*
X110502316Y-120959508D01*
X110499500Y-121001041D01*
X110499500Y-121855605D01*
X110480546Y-121950893D01*
X110426570Y-122031675D01*
X110345788Y-122085651D01*
X110289133Y-122101590D01*
X110284509Y-122102316D01*
X110104975Y-122146963D01*
X110104974Y-122146964D01*
X109939251Y-122229155D01*
X109939245Y-122229159D01*
X109795064Y-122345056D01*
X109795056Y-122345064D01*
X109679159Y-122489245D01*
X109679155Y-122489251D01*
X109596964Y-122654974D01*
X109596963Y-122654975D01*
X109552317Y-122834506D01*
X109552315Y-122834516D01*
X109549500Y-122876040D01*
X109549500Y-124048512D01*
X109548717Y-124062462D01*
X109547020Y-124077511D01*
X109547020Y-124077524D01*
X109547748Y-124092659D01*
X109533391Y-124188747D01*
X109483356Y-124272027D01*
X109475105Y-124280684D01*
X109279221Y-124476569D01*
X109198440Y-124530546D01*
X109103152Y-124549500D01*
X108358901Y-124549500D01*
X108358890Y-124549500D01*
X108358822Y-124549504D01*
X108312046Y-124549504D01*
X108123534Y-124574319D01*
X107939874Y-124623528D01*
X107939869Y-124623529D01*
X107939869Y-124623530D01*
X107764200Y-124696293D01*
X107764197Y-124696294D01*
X107764196Y-124696295D01*
X107599528Y-124791363D01*
X107599526Y-124791364D01*
X107455732Y-124901699D01*
X107450445Y-124905463D01*
X107449796Y-124905993D01*
X107397899Y-124957890D01*
X107391983Y-124963807D01*
X107381454Y-124974336D01*
X107315257Y-125040532D01*
X107315254Y-125040535D01*
X107131352Y-125224438D01*
X106979221Y-125376569D01*
X106898440Y-125430546D01*
X106803151Y-125449500D01*
X106256803Y-125449500D01*
X106161515Y-125430546D01*
X106080733Y-125376570D01*
X106026757Y-125295788D01*
X106007803Y-125200500D01*
X106026757Y-125105212D01*
X106080733Y-125024430D01*
X106087440Y-125017970D01*
X106096215Y-125009828D01*
X106150050Y-124959877D01*
X106308959Y-124760612D01*
X106436393Y-124539888D01*
X106443059Y-124522899D01*
X106449707Y-124508670D01*
X107173012Y-123185416D01*
X107215427Y-123128781D01*
X107845274Y-122498934D01*
X107845310Y-122498908D01*
X107925666Y-122418549D01*
X107925667Y-122418550D01*
X107992892Y-122351323D01*
X108108642Y-122200472D01*
X108203712Y-122035802D01*
X108276474Y-121860132D01*
X108325685Y-121676468D01*
X108349335Y-121496799D01*
X108350412Y-121490408D01*
X108350498Y-121489555D01*
X108350500Y-121489549D01*
X108350500Y-121487958D01*
X108350501Y-121487951D01*
X108350500Y-121392880D01*
X108350500Y-121347558D01*
X108350500Y-119096848D01*
X108369454Y-119001560D01*
X108423428Y-118920781D01*
X109145041Y-118199167D01*
X109225820Y-118145193D01*
X109321108Y-118126239D01*
X109416396Y-118145193D01*
G37*
%TD.AperFunction*%
%TA.AperFunction,Conductor*%
G36*
X117644196Y-109804557D02*
G01*
X117704982Y-109849192D01*
X118176570Y-110320780D01*
X118230546Y-110401562D01*
X118249500Y-110496850D01*
X118249500Y-111284435D01*
X118230546Y-111379723D01*
X118202359Y-111430222D01*
X117950299Y-111779227D01*
X117879143Y-111845378D01*
X117856668Y-111856692D01*
X117856786Y-111856917D01*
X117674253Y-111952263D01*
X117674248Y-111952266D01*
X117524430Y-112074427D01*
X117524427Y-112074430D01*
X117402266Y-112224248D01*
X117402263Y-112224253D01*
X117312762Y-112395594D01*
X117274303Y-112530003D01*
X117259583Y-112581448D01*
X117253232Y-112652881D01*
X117249674Y-112692908D01*
X117249500Y-112694862D01*
X117249500Y-114105138D01*
X117259583Y-114218552D01*
X117259584Y-114218554D01*
X117312762Y-114404405D01*
X117402263Y-114575746D01*
X117402266Y-114575751D01*
X117506602Y-114703709D01*
X117524429Y-114725571D01*
X117674249Y-114847734D01*
X117845594Y-114937237D01*
X118031448Y-114990417D01*
X118129734Y-114999155D01*
X118144859Y-115000500D01*
X118144862Y-115000500D01*
X118222511Y-115000500D01*
X118317799Y-115019454D01*
X118382136Y-115058396D01*
X118995804Y-115570986D01*
X119156966Y-115705603D01*
X119156963Y-115705600D01*
X119160332Y-115708123D01*
X119187166Y-115731376D01*
X119701094Y-116245304D01*
X119701114Y-116245334D01*
X119781453Y-116325669D01*
X119781453Y-116325670D01*
X119848680Y-116392894D01*
X119848683Y-116392896D01*
X119855611Y-116398212D01*
X119919672Y-116471255D01*
X119950905Y-116563253D01*
X119953029Y-116593847D01*
X119999999Y-122699999D01*
X120000985Y-122700977D01*
X120091359Y-122718954D01*
X120172141Y-122772930D01*
X120226117Y-122853712D01*
X120245071Y-122949000D01*
X120226117Y-123044288D01*
X120172141Y-123125070D01*
X120172139Y-123125071D01*
X120116952Y-123180257D01*
X120116940Y-123180269D01*
X120110747Y-123186461D01*
X120110731Y-123186471D01*
X119982453Y-123314751D01*
X119928782Y-123384699D01*
X119855737Y-123448758D01*
X119763739Y-123479988D01*
X119666791Y-123473635D01*
X119635951Y-123463167D01*
X119527921Y-123418422D01*
X119527922Y-123418422D01*
X119527919Y-123418421D01*
X119442418Y-123395512D01*
X119356915Y-123372603D01*
X119196609Y-123351500D01*
X119186110Y-123349658D01*
X119185396Y-123349500D01*
X119185390Y-123349500D01*
X119185269Y-123349500D01*
X119185238Y-123349499D01*
X119181398Y-123349499D01*
X119092881Y-123349500D01*
X118648792Y-123349500D01*
X118600256Y-123344724D01*
X118001572Y-123225743D01*
X117991591Y-123223328D01*
X117978611Y-123219614D01*
X117943551Y-123209582D01*
X117830142Y-123199500D01*
X117830138Y-123199500D01*
X117194862Y-123199500D01*
X117194859Y-123199500D01*
X117164610Y-123202189D01*
X117081448Y-123209583D01*
X117081445Y-123209584D01*
X116895594Y-123262762D01*
X116715285Y-123356948D01*
X116622050Y-123384266D01*
X116525458Y-123373824D01*
X116484715Y-123356948D01*
X116304405Y-123262762D01*
X116188187Y-123229508D01*
X116118552Y-123209583D01*
X116032920Y-123201969D01*
X116005141Y-123199500D01*
X116005138Y-123199500D01*
X115369862Y-123199500D01*
X115369859Y-123199500D01*
X115339610Y-123202189D01*
X115256448Y-123209583D01*
X115256445Y-123209584D01*
X115070594Y-123262762D01*
X114899253Y-123352263D01*
X114899248Y-123352266D01*
X114749433Y-123474425D01*
X114749427Y-123474430D01*
X114663235Y-123580135D01*
X114611751Y-123627671D01*
X114499206Y-123705392D01*
X114410027Y-123743942D01*
X114357713Y-123749500D01*
X113655429Y-123749500D01*
X113560141Y-123730546D01*
X113479359Y-123676570D01*
X112532594Y-122729805D01*
X112478618Y-122649023D01*
X112459664Y-122553735D01*
X112469121Y-122485765D01*
X112470800Y-122479848D01*
X112477647Y-122455716D01*
X112477647Y-122455704D01*
X112479794Y-122443948D01*
X112480006Y-122443986D01*
X112483681Y-122421795D01*
X112497683Y-122365495D01*
X112497683Y-122365490D01*
X112497684Y-122365488D01*
X112500500Y-122323960D01*
X112500500Y-121001040D01*
X112497684Y-120959516D01*
X112497683Y-120959514D01*
X112497683Y-120959505D01*
X112458258Y-120800973D01*
X112453655Y-120703927D01*
X112467436Y-120651647D01*
X112473756Y-120635185D01*
X112562038Y-120405200D01*
X112593563Y-120298662D01*
X112593562Y-120298662D01*
X112593779Y-120297810D01*
X112635564Y-120210100D01*
X112707734Y-120145057D01*
X112799301Y-120112584D01*
X112896326Y-120117623D01*
X112959636Y-120143344D01*
X113064200Y-120203713D01*
X113064207Y-120203716D01*
X113064209Y-120203717D01*
X113186764Y-120254479D01*
X113267546Y-120308454D01*
X113321524Y-120389235D01*
X113329205Y-120410448D01*
X113353872Y-120489609D01*
X113405948Y-120575751D01*
X113441877Y-120635185D01*
X113562164Y-120755472D01*
X113624222Y-120792987D01*
X113707740Y-120843477D01*
X113707742Y-120843477D01*
X113707743Y-120843478D01*
X113870153Y-120894086D01*
X113870157Y-120894086D01*
X113870160Y-120894087D01*
X113940718Y-120900499D01*
X113940726Y-120900499D01*
X113940733Y-120900500D01*
X113940739Y-120900500D01*
X115653959Y-120900500D01*
X115653965Y-120900500D01*
X115653972Y-120900499D01*
X115653979Y-120900499D01*
X115724537Y-120894087D01*
X115724538Y-120894086D01*
X115724545Y-120894086D01*
X115886955Y-120843478D01*
X116032534Y-120755472D01*
X116152821Y-120635185D01*
X116240827Y-120489606D01*
X116291435Y-120327196D01*
X116294106Y-120297810D01*
X116297848Y-120256630D01*
X116297849Y-120256609D01*
X116297849Y-118648859D01*
X116298648Y-118638424D01*
X116298356Y-118638415D01*
X116298839Y-118623360D01*
X116298339Y-118617742D01*
X116297849Y-118606702D01*
X116297849Y-118543390D01*
X116297848Y-118543369D01*
X116291436Y-118472811D01*
X116291435Y-118472808D01*
X116291435Y-118472804D01*
X116267122Y-118394780D01*
X116265859Y-118390472D01*
X116251959Y-118343045D01*
X116249636Y-118337283D01*
X116246237Y-118327757D01*
X116244000Y-118320578D01*
X116240827Y-118310394D01*
X116207599Y-118255429D01*
X116199170Y-118241485D01*
X116195366Y-118234726D01*
X116173204Y-118192305D01*
X115791662Y-117637333D01*
X115753298Y-117548074D01*
X115747849Y-117496268D01*
X115747849Y-117404154D01*
X115747904Y-117403039D01*
X115747894Y-117304372D01*
X115747895Y-117304372D01*
X115747886Y-117209296D01*
X115723048Y-117020773D01*
X115673814Y-116837105D01*
X115601026Y-116661435D01*
X115505930Y-116496770D01*
X115426202Y-116392894D01*
X115395691Y-116353141D01*
X115391894Y-116347807D01*
X115391358Y-116347150D01*
X115391353Y-116347143D01*
X115391346Y-116347136D01*
X115391275Y-116347049D01*
X115390157Y-116345931D01*
X115390153Y-116345926D01*
X115322916Y-116278706D01*
X114223430Y-115179220D01*
X114169454Y-115098438D01*
X114150500Y-115003150D01*
X114150500Y-110979811D01*
X114169454Y-110884523D01*
X114223430Y-110803741D01*
X114275958Y-110763620D01*
X114667198Y-110540056D01*
X114766509Y-110483307D01*
X114858646Y-110452488D01*
X114890047Y-110450500D01*
X116505141Y-110450500D01*
X116519621Y-110449212D01*
X116618552Y-110440417D01*
X116804406Y-110387237D01*
X116975751Y-110297734D01*
X117125571Y-110175571D01*
X117247734Y-110025751D01*
X117308211Y-109909972D01*
X117369125Y-109834293D01*
X117454368Y-109787682D01*
X117550960Y-109777240D01*
X117644196Y-109804557D01*
G37*
%TD.AperFunction*%
%TA.AperFunction,Conductor*%
G36*
X138945114Y-106493733D02*
G01*
X139251714Y-106618001D01*
X139261459Y-106622448D01*
X139424499Y-106705522D01*
X139614956Y-106756555D01*
X139614962Y-106756555D01*
X139614966Y-106756556D01*
X139696847Y-106763000D01*
X139696848Y-106763000D01*
X139848423Y-106762999D01*
X140303152Y-106762999D01*
X140385044Y-106756555D01*
X140575501Y-106705522D01*
X140738529Y-106622454D01*
X140748287Y-106618001D01*
X140806466Y-106594420D01*
X140901896Y-106576192D01*
X140993528Y-106594418D01*
X141051709Y-106617999D01*
X141061459Y-106622448D01*
X141224499Y-106705522D01*
X141414956Y-106756555D01*
X141414962Y-106756555D01*
X141414966Y-106756556D01*
X141496847Y-106763000D01*
X141496848Y-106763000D01*
X141648423Y-106762999D01*
X142103152Y-106762999D01*
X142185044Y-106756555D01*
X142375501Y-106705522D01*
X142403647Y-106691181D01*
X142497154Y-106664809D01*
X142593636Y-106676228D01*
X142678403Y-106723699D01*
X142692761Y-106736971D01*
X143201091Y-107245301D01*
X143201109Y-107245328D01*
X143281450Y-107325666D01*
X143281450Y-107325667D01*
X143348677Y-107392892D01*
X143406470Y-107437237D01*
X143499522Y-107508638D01*
X143499525Y-107508640D01*
X143499528Y-107508642D01*
X143664198Y-107603712D01*
X143664208Y-107603716D01*
X143839859Y-107676471D01*
X143839864Y-107676472D01*
X143839868Y-107676474D01*
X143912279Y-107695875D01*
X143927267Y-107700931D01*
X144137748Y-107787171D01*
X144534157Y-107949591D01*
X144615143Y-108003258D01*
X144669429Y-108083832D01*
X144688748Y-108179047D01*
X144670160Y-108274407D01*
X144629092Y-108341712D01*
X144551317Y-108432775D01*
X144424769Y-108639285D01*
X144332085Y-108863041D01*
X144332084Y-108863045D01*
X144275544Y-109098549D01*
X144275543Y-109098556D01*
X144256542Y-109339995D01*
X144256542Y-109340004D01*
X144275543Y-109581443D01*
X144275545Y-109581453D01*
X144332079Y-109816940D01*
X144332086Y-109816962D01*
X144356181Y-109875135D01*
X144367497Y-109909224D01*
X144371733Y-109925933D01*
X144439293Y-110100585D01*
X144798625Y-111029506D01*
X144832731Y-111117673D01*
X144849500Y-111207506D01*
X144849500Y-112443827D01*
X144849504Y-112444004D01*
X144849504Y-112487952D01*
X144874320Y-112676469D01*
X144874320Y-112676470D01*
X144923525Y-112860113D01*
X144923530Y-112860130D01*
X144996292Y-113035799D01*
X144996294Y-113035804D01*
X145091357Y-113200462D01*
X145091362Y-113200469D01*
X145201687Y-113344251D01*
X145205451Y-113349539D01*
X145205996Y-113350207D01*
X145274333Y-113418543D01*
X145344816Y-113489029D01*
X145344846Y-113489056D01*
X145350430Y-113494640D01*
X145404406Y-113575422D01*
X145423360Y-113670710D01*
X145404406Y-113765998D01*
X145350430Y-113846780D01*
X145350429Y-113846780D01*
X144410761Y-114786447D01*
X144410748Y-114786455D01*
X144363311Y-114833893D01*
X144282529Y-114887869D01*
X144187241Y-114906823D01*
X144091953Y-114887869D01*
X144011171Y-114833893D01*
X143957195Y-114753111D01*
X143938241Y-114657823D01*
X143946726Y-114593376D01*
X143969055Y-114510044D01*
X143970193Y-114495592D01*
X143975500Y-114428153D01*
X143975499Y-113696851D01*
X143975499Y-113696848D01*
X143969055Y-113614956D01*
X143918022Y-113424499D01*
X143828506Y-113248814D01*
X143704420Y-113095580D01*
X143551186Y-112971494D01*
X143375501Y-112881978D01*
X143185044Y-112830945D01*
X143185043Y-112830944D01*
X143185040Y-112830944D01*
X143185033Y-112830943D01*
X143103153Y-112824500D01*
X142599500Y-112824500D01*
X142504212Y-112805546D01*
X142423430Y-112751570D01*
X142369454Y-112670788D01*
X142350500Y-112575500D01*
X142350500Y-112341040D01*
X142347684Y-112299516D01*
X142347683Y-112299514D01*
X142347683Y-112299505D01*
X142303037Y-112119979D01*
X142303036Y-112119978D01*
X142303036Y-112119975D01*
X142303035Y-112119974D01*
X142263686Y-112040633D01*
X142238329Y-111946846D01*
X142250792Y-111850494D01*
X142263686Y-111819367D01*
X142303035Y-111740025D01*
X142303036Y-111740024D01*
X142309383Y-111714503D01*
X142347683Y-111560495D01*
X142350500Y-111518954D01*
X142350500Y-111071046D01*
X142347683Y-111029505D01*
X142303037Y-110849979D01*
X142303036Y-110849978D01*
X142303036Y-110849975D01*
X142303035Y-110849974D01*
X142220844Y-110684251D01*
X142220843Y-110684250D01*
X142220842Y-110684247D01*
X142104940Y-110540060D01*
X141960753Y-110424158D01*
X141960751Y-110424157D01*
X141960748Y-110424155D01*
X141795025Y-110341964D01*
X141795024Y-110341963D01*
X141687305Y-110315175D01*
X141615495Y-110297317D01*
X141615491Y-110297316D01*
X141615483Y-110297315D01*
X141573960Y-110294500D01*
X141573954Y-110294500D01*
X140141850Y-110294500D01*
X140046562Y-110275546D01*
X139965780Y-110221570D01*
X139098908Y-109354698D01*
X139098889Y-109354670D01*
X138951324Y-109207109D01*
X138951320Y-109207106D01*
X138800477Y-109091361D01*
X138800474Y-109091359D01*
X138635802Y-108996288D01*
X138635791Y-108996283D01*
X138460144Y-108923530D01*
X138460138Y-108923528D01*
X138460134Y-108923527D01*
X138460132Y-108923526D01*
X138399893Y-108907385D01*
X138276471Y-108874315D01*
X138216998Y-108866486D01*
X138125000Y-108835256D01*
X138051955Y-108771197D01*
X138008984Y-108684061D01*
X138000500Y-108619616D01*
X138000500Y-106724500D01*
X138019454Y-106629212D01*
X138073430Y-106548430D01*
X138154212Y-106494454D01*
X138249500Y-106475500D01*
X138851585Y-106475500D01*
X138945114Y-106493733D01*
G37*
%TD.AperFunction*%
%TA.AperFunction,Conductor*%
G36*
X147658568Y-106415752D02*
G01*
X147672331Y-106420675D01*
X148436237Y-106719595D01*
X148518064Y-106771967D01*
X148573622Y-106851669D01*
X148594451Y-106946565D01*
X148594499Y-106951473D01*
X148594499Y-109773392D01*
X148612219Y-109930508D01*
X148612223Y-109930530D01*
X148624525Y-109984375D01*
X148628999Y-110002817D01*
X148629002Y-110002825D01*
X148690871Y-110161235D01*
X148690875Y-110161242D01*
X148788865Y-110300254D01*
X148835708Y-110352091D01*
X148879234Y-110396197D01*
X148879239Y-110396202D01*
X149016934Y-110496022D01*
X149016936Y-110496023D01*
X149016939Y-110496025D01*
X149092733Y-110526791D01*
X149173919Y-110559746D01*
X149174528Y-110559993D01*
X149241963Y-110578277D01*
X149272050Y-110585730D01*
X149441278Y-110602709D01*
X149441285Y-110602708D01*
X149441287Y-110602709D01*
X149814156Y-110594940D01*
X151035316Y-110569499D01*
X151130976Y-110586464D01*
X151212864Y-110638746D01*
X151268511Y-110718386D01*
X151289446Y-110813258D01*
X151289500Y-110818445D01*
X151289500Y-112326630D01*
X151295912Y-112397188D01*
X151295915Y-112397199D01*
X151337297Y-112530003D01*
X151347549Y-112626616D01*
X151320048Y-112719797D01*
X151275643Y-112780145D01*
X151179218Y-112876571D01*
X151098440Y-112930546D01*
X151003152Y-112949500D01*
X147596850Y-112949500D01*
X147501562Y-112930546D01*
X147420780Y-112876570D01*
X146823430Y-112279220D01*
X146769454Y-112198438D01*
X146750500Y-112103150D01*
X146750500Y-111207506D01*
X146767269Y-111117673D01*
X146801375Y-111029506D01*
X147228265Y-109925937D01*
X147242694Y-109879247D01*
X147246611Y-109868388D01*
X147267916Y-109816955D01*
X147324455Y-109581450D01*
X147325813Y-109564202D01*
X147343458Y-109340004D01*
X147343458Y-109339995D01*
X147324456Y-109098556D01*
X147324455Y-109098549D01*
X147299903Y-108996283D01*
X147267916Y-108863045D01*
X147175231Y-108639285D01*
X147048684Y-108432778D01*
X147048683Y-108432777D01*
X147048682Y-108432775D01*
X146891398Y-108248619D01*
X146891395Y-108248616D01*
X146891390Y-108248610D01*
X146891383Y-108248604D01*
X146888849Y-108246070D01*
X146887512Y-108244069D01*
X146885036Y-108241170D01*
X146885379Y-108240876D01*
X146834873Y-108165288D01*
X146815919Y-108070000D01*
X146834873Y-107974712D01*
X146885379Y-107899123D01*
X146885036Y-107898830D01*
X146887512Y-107895930D01*
X146888849Y-107893930D01*
X146891376Y-107891401D01*
X146891390Y-107891390D01*
X147048684Y-107707222D01*
X147175231Y-107500715D01*
X147267916Y-107276955D01*
X147324455Y-107041450D01*
X147324528Y-107040532D01*
X147343458Y-106800004D01*
X147343458Y-106799996D01*
X147333392Y-106672102D01*
X147344811Y-106575621D01*
X147392282Y-106490853D01*
X147468579Y-106430705D01*
X147562087Y-106404333D01*
X147658568Y-106415752D01*
G37*
%TD.AperFunction*%
%TA.AperFunction,Conductor*%
G36*
X137798438Y-110769454D02*
G01*
X137879220Y-110823430D01*
X138430248Y-111374458D01*
X138484224Y-111455240D01*
X138503178Y-111550528D01*
X138484224Y-111645816D01*
X138430248Y-111726598D01*
X138349466Y-111780574D01*
X138349464Y-111780575D01*
X138179024Y-111851171D01*
X138098785Y-111897496D01*
X138067451Y-111912302D01*
X138067474Y-111912352D01*
X138065179Y-111913375D01*
X138061838Y-111914955D01*
X138060596Y-111915421D01*
X138060591Y-111915423D01*
X137642876Y-112132938D01*
X137549605Y-112160137D01*
X137453027Y-112149572D01*
X137367842Y-112102852D01*
X137307022Y-112027090D01*
X137304800Y-112022718D01*
X137270843Y-111954250D01*
X137270842Y-111954247D01*
X137154940Y-111810060D01*
X137010753Y-111694158D01*
X137010751Y-111694157D01*
X137010748Y-111694155D01*
X136845025Y-111611964D01*
X136845024Y-111611963D01*
X136737305Y-111585175D01*
X136665495Y-111567317D01*
X136665491Y-111567316D01*
X136665483Y-111567315D01*
X136623960Y-111564500D01*
X136623954Y-111564500D01*
X135199500Y-111564500D01*
X135104212Y-111545546D01*
X135023430Y-111491570D01*
X134969454Y-111410788D01*
X134950500Y-111315500D01*
X134950500Y-110999500D01*
X134969454Y-110904212D01*
X135023430Y-110823430D01*
X135104212Y-110769454D01*
X135199500Y-110750500D01*
X137703150Y-110750500D01*
X137798438Y-110769454D01*
G37*
%TD.AperFunction*%
%TA.AperFunction,Conductor*%
G36*
X132078992Y-103099273D02*
G01*
X132222804Y-103144086D01*
X132222808Y-103144086D01*
X132222811Y-103144087D01*
X132293369Y-103150499D01*
X132293377Y-103150499D01*
X132293384Y-103150500D01*
X132293390Y-103150500D01*
X133906610Y-103150500D01*
X133906616Y-103150500D01*
X133906623Y-103150499D01*
X133906630Y-103150499D01*
X133977188Y-103144087D01*
X133977189Y-103144086D01*
X133977196Y-103144086D01*
X134037450Y-103125310D01*
X134134056Y-103115058D01*
X134227239Y-103142557D01*
X134302804Y-103203622D01*
X134318704Y-103224915D01*
X134407680Y-103358378D01*
X134444766Y-103448176D01*
X134449500Y-103496499D01*
X134449500Y-104912937D01*
X134447355Y-104997543D01*
X134448315Y-105010135D01*
X134447592Y-105010190D01*
X134449500Y-105031644D01*
X134449500Y-105425165D01*
X134430546Y-105520453D01*
X134399700Y-105574565D01*
X134118199Y-105949900D01*
X134045863Y-106014758D01*
X133954213Y-106046997D01*
X133918999Y-106049500D01*
X133443369Y-106049500D01*
X133372811Y-106055912D01*
X133372803Y-106055914D01*
X133210391Y-106106522D01*
X133064816Y-106194527D01*
X132944527Y-106314816D01*
X132856522Y-106460391D01*
X132805914Y-106622803D01*
X132805912Y-106622811D01*
X132799500Y-106693369D01*
X132799500Y-108600500D01*
X132780546Y-108695788D01*
X132726570Y-108776570D01*
X132645788Y-108830546D01*
X132550500Y-108849500D01*
X132296850Y-108849500D01*
X132201562Y-108830546D01*
X132120780Y-108776570D01*
X128898905Y-105554695D01*
X128898884Y-105554664D01*
X128818546Y-105474330D01*
X128818547Y-105474330D01*
X128751320Y-105407106D01*
X128751315Y-105407102D01*
X128751314Y-105407101D01*
X128600474Y-105291359D01*
X128600471Y-105291357D01*
X128435800Y-105196287D01*
X128435790Y-105196282D01*
X128260132Y-105123525D01*
X128260121Y-105123522D01*
X128233593Y-105116414D01*
X128146457Y-105073444D01*
X128082398Y-105000399D01*
X128051168Y-104908400D01*
X128057522Y-104811453D01*
X128067987Y-104780621D01*
X128076475Y-104760131D01*
X128125685Y-104576467D01*
X128149335Y-104396799D01*
X128150412Y-104390408D01*
X128150498Y-104389555D01*
X128150500Y-104389549D01*
X128150500Y-104387958D01*
X128150501Y-104387951D01*
X128150500Y-104292880D01*
X128150500Y-104247557D01*
X128150500Y-103569107D01*
X128169454Y-103473819D01*
X128223430Y-103393037D01*
X128304212Y-103339061D01*
X128399500Y-103320107D01*
X128463946Y-103328592D01*
X128503017Y-103339061D01*
X128614956Y-103369055D01*
X128614963Y-103369055D01*
X128614966Y-103369056D01*
X128696847Y-103375500D01*
X128696848Y-103375500D01*
X128848423Y-103375499D01*
X129303152Y-103375499D01*
X129385044Y-103369055D01*
X129575501Y-103318022D01*
X129738529Y-103234954D01*
X129748287Y-103230501D01*
X129806466Y-103206920D01*
X129901896Y-103188692D01*
X129993528Y-103206918D01*
X130051709Y-103230499D01*
X130061459Y-103234948D01*
X130224499Y-103318022D01*
X130414956Y-103369055D01*
X130414962Y-103369055D01*
X130414966Y-103369056D01*
X130496847Y-103375500D01*
X130496848Y-103375500D01*
X130648423Y-103375499D01*
X131103152Y-103375499D01*
X131185044Y-103369055D01*
X131375501Y-103318022D01*
X131538541Y-103234948D01*
X131548275Y-103230505D01*
X131854884Y-103106233D01*
X131948415Y-103088000D01*
X132004919Y-103088000D01*
X132078992Y-103099273D01*
G37*
%TD.AperFunction*%
%TA.AperFunction,Conductor*%
G36*
X154845788Y-100019454D02*
G01*
X154926570Y-100073430D01*
X154980546Y-100154212D01*
X154999500Y-100249500D01*
X154999500Y-101978164D01*
X154980546Y-102073452D01*
X154926570Y-102154234D01*
X154845788Y-102208210D01*
X154750500Y-102227164D01*
X154655212Y-102208210D01*
X154574430Y-102154234D01*
X154567999Y-102147558D01*
X154539642Y-102116998D01*
X154519061Y-102101091D01*
X154405076Y-102012992D01*
X154405071Y-102012990D01*
X154249529Y-101944212D01*
X154249527Y-101944211D01*
X154249524Y-101944210D01*
X154182684Y-101923863D01*
X154152848Y-101915492D01*
X154152844Y-101915491D01*
X154152840Y-101915490D01*
X154152836Y-101915489D01*
X154152829Y-101915488D01*
X153984220Y-101893319D01*
X151275184Y-101866496D01*
X151275183Y-101866496D01*
X151275182Y-101866496D01*
X151250767Y-101867249D01*
X151191319Y-101871601D01*
X151191317Y-101871601D01*
X151025972Y-101911392D01*
X151025962Y-101911395D01*
X150960500Y-101935812D01*
X150903434Y-101960002D01*
X150759849Y-102051168D01*
X150759847Y-102051170D01*
X150637075Y-102179463D01*
X150557499Y-102235202D01*
X150462651Y-102256246D01*
X150437642Y-102255538D01*
X150300006Y-102244706D01*
X150300005Y-102244706D01*
X150300002Y-102244706D01*
X150300000Y-102244706D01*
X150231517Y-102250095D01*
X150194979Y-102252971D01*
X150098497Y-102241551D01*
X150013730Y-102194078D01*
X149985657Y-102165927D01*
X149943685Y-102116508D01*
X149929379Y-102101091D01*
X149901528Y-102071076D01*
X149901526Y-102071074D01*
X149901522Y-102071070D01*
X149766963Y-101967070D01*
X149766958Y-101967068D01*
X149611416Y-101898289D01*
X149544575Y-101877942D01*
X149514729Y-101869568D01*
X149514726Y-101869567D01*
X149514724Y-101869567D01*
X149346109Y-101847397D01*
X146739156Y-101821585D01*
X144132209Y-101795774D01*
X144132208Y-101795774D01*
X144132203Y-101795774D01*
X143978658Y-101811130D01*
X143978654Y-101811131D01*
X143925922Y-101822331D01*
X143911182Y-101825627D01*
X143751506Y-101884186D01*
X143610484Y-101979257D01*
X143610482Y-101979258D01*
X143557680Y-102025013D01*
X143512672Y-102067613D01*
X143410004Y-102203201D01*
X143399690Y-102227164D01*
X143348362Y-102346421D01*
X143342766Y-102359422D01*
X143342761Y-102359435D01*
X143323079Y-102426464D01*
X143315002Y-102456391D01*
X143315000Y-102456397D01*
X143306569Y-102525837D01*
X143294500Y-102625233D01*
X143294500Y-102625239D01*
X143294500Y-104373609D01*
X143275546Y-104468897D01*
X143221570Y-104549679D01*
X143140788Y-104603655D01*
X143045500Y-104622609D01*
X142950212Y-104603655D01*
X142948454Y-104602919D01*
X142564501Y-104440427D01*
X142556500Y-104436701D01*
X142375502Y-104344478D01*
X142185040Y-104293444D01*
X142185033Y-104293443D01*
X142103153Y-104287000D01*
X142103152Y-104287000D01*
X141951576Y-104287000D01*
X141496848Y-104287001D01*
X141414956Y-104293445D01*
X141284421Y-104328422D01*
X141224495Y-104344479D01*
X141061483Y-104427538D01*
X141051723Y-104431992D01*
X141040105Y-104436701D01*
X140994617Y-104455138D01*
X140993531Y-104455578D01*
X140898101Y-104473805D01*
X140806468Y-104455578D01*
X140759893Y-104436701D01*
X140748270Y-104431990D01*
X140738517Y-104427538D01*
X140575502Y-104344478D01*
X140385040Y-104293444D01*
X140385033Y-104293443D01*
X140303153Y-104287000D01*
X140303152Y-104287000D01*
X140151576Y-104287000D01*
X139696848Y-104287001D01*
X139614956Y-104293445D01*
X139484421Y-104328422D01*
X139424495Y-104344479D01*
X139261487Y-104427536D01*
X139251727Y-104431990D01*
X139006731Y-104531290D01*
X138948345Y-104554955D01*
X138945110Y-104556266D01*
X138851578Y-104574500D01*
X136599500Y-104574500D01*
X136504212Y-104555546D01*
X136423430Y-104501570D01*
X136369454Y-104420788D01*
X136350500Y-104325500D01*
X136350500Y-103496499D01*
X136369454Y-103401211D01*
X136392319Y-103358379D01*
X136419224Y-103318022D01*
X136732422Y-102848225D01*
X136757476Y-102799699D01*
X136761533Y-102792447D01*
X136793478Y-102739606D01*
X136797836Y-102725615D01*
X136803093Y-102711722D01*
X136804347Y-102708921D01*
X136804373Y-102708872D01*
X136806220Y-102704042D01*
X136833705Y-102614902D01*
X136833705Y-102614895D01*
X136835243Y-102607521D01*
X136838259Y-102595890D01*
X136844086Y-102577196D01*
X136850500Y-102506616D01*
X136850500Y-102472691D01*
X136851282Y-102458751D01*
X136851547Y-102456397D01*
X136852730Y-102445892D01*
X136851543Y-102436786D01*
X136850500Y-102420691D01*
X136850500Y-100393390D01*
X136850499Y-100393369D01*
X136844087Y-100322811D01*
X136841516Y-100309887D01*
X136842844Y-100309622D01*
X136834076Y-100226955D01*
X136861580Y-100133774D01*
X136922649Y-100058212D01*
X137007986Y-100011771D01*
X137082053Y-100000500D01*
X154750500Y-100000500D01*
X154845788Y-100019454D01*
G37*
%TD.AperFunction*%
%TD*%
M02*
