M48
; DRILL file {KiCad 7.0.8} date Sun Apr 14 20:32:06 2024
; FORMAT={-:-/ absolute / metric / decimal}
; #@! TF.CreationDate,2024-04-14T20:32:06+02:00
; #@! TF.GenerationSoftware,Kicad,Pcbnew,7.0.8
; #@! TF.FileFunction,MixedPlating,1,2
FMAT,2
METRIC
; #@! TA.AperFunction,Plated,PTH,ViaDrill
T1C0.300
; #@! TA.AperFunction,Plated,PTH,ComponentDrill
T2C0.750
; #@! TA.AperFunction,Plated,PTH,ComponentDrill
T3C0.800
; #@! TA.AperFunction,Plated,PTH,ComponentDrill
T4C0.900
; #@! TA.AperFunction,Plated,PTH,ComponentDrill
T5C1.000
; #@! TA.AperFunction,Plated,PTH,ComponentDrill
T6C1.750
; #@! TA.AperFunction,NonPlated,NPTH,ComponentDrill
T7C2.200
; #@! TA.AperFunction,NonPlated,NPTH,ComponentDrill
T8C2.500
%
G90
G05
T1
X100.6Y-111.8
X101.2Y-100.8
X101.2Y-102.8
X101.2Y-105.2
X101.2Y-107.6
X101.2Y-110.0
X101.6Y-111.8
X102.6Y-111.8
X103.2Y-100.8
X103.2Y-102.8
X103.2Y-105.2
X103.2Y-107.6
X103.2Y-110.0
X103.6Y-111.8
X104.6Y-111.8
X105.2Y-100.8
X105.2Y-102.8
X105.2Y-105.2
X105.2Y-107.6
X105.2Y-110.0
X105.6Y-111.8
X106.6Y-111.8
X107.2Y-100.8
X107.2Y-102.8
X107.2Y-105.2
X107.2Y-107.6
X107.2Y-110.0
X107.6Y-111.8
X108.6Y-111.8
X109.0Y-119.4
X109.0Y-120.4
X109.0Y-121.4
X109.2Y-100.8
X109.2Y-102.8
X109.2Y-105.2
X109.2Y-107.6
X109.2Y-110.0
X110.0Y-121.0
X110.0Y-122.0
X112.2Y-101.0
X112.8Y-126.4
X114.4Y-111.8
X117.4Y-102.625
X117.6Y-105.4
X117.6Y-106.6
X117.8Y-119.4
X118.8Y-128.0
X122.2Y-127.8
X129.0Y-105.0
X130.8Y-105.0
X137.0Y-122.0
X137.4Y-111.295
X137.997Y-114.534
X138.0Y-113.135
X139.2Y-100.6
X139.2Y-101.6
X139.2Y-102.6
X140.2Y-102.6
X141.2Y-102.6
X142.2Y-102.6
X142.8Y-111.2
X148.4Y-110.4
X148.4Y-111.4
X148.4Y-112.4
T2
X110.73Y-127.76
X112.0Y-127.76
X113.27Y-127.76
T3
X115.397Y-119.4
X119.197Y-119.4
T4
X145.8Y-104.26
X145.8Y-106.8
X145.8Y-109.34
T5
X111.0Y-114.135
X111.0Y-116.675
X141.6Y-120.6
X141.6Y-123.1
X141.6Y-125.6
X150.66Y-103.8
X150.66Y-106.34
X150.66Y-108.88
X150.66Y-111.42
X153.2Y-103.8
X153.2Y-106.34
X153.2Y-108.88
X153.2Y-111.42
T6
X105.2Y-114.6
X105.2Y-118.1
X105.2Y-123.8
X105.2Y-127.3
T7
X148.6Y-118.7
X148.6Y-127.5
T8
X127.5Y-127.0
T0
M30
