%TF.GenerationSoftware,KiCad,Pcbnew,7.0.8*%
%TF.CreationDate,2024-04-14T20:32:09+02:00*%
%TF.ProjectId,LED_Driver,4c45445f-4472-4697-9665-722e6b696361,rev?*%
%TF.SameCoordinates,Original*%
%TF.FileFunction,Copper,L2,Bot*%
%TF.FilePolarity,Positive*%
%FSLAX46Y46*%
G04 Gerber Fmt 4.6, Leading zero omitted, Abs format (unit mm)*
G04 Created by KiCad (PCBNEW 7.0.8) date 2024-04-14 20:32:09*
%MOMM*%
%LPD*%
G01*
G04 APERTURE LIST*
%TA.AperFunction,ComponentPad*%
%ADD10C,1.676400*%
%TD*%
%TA.AperFunction,ComponentPad*%
%ADD11R,1.050000X1.500000*%
%TD*%
%TA.AperFunction,ComponentPad*%
%ADD12O,1.050000X1.500000*%
%TD*%
%TA.AperFunction,ComponentPad*%
%ADD13R,1.600000X1.600000*%
%TD*%
%TA.AperFunction,ComponentPad*%
%ADD14C,1.600000*%
%TD*%
%TA.AperFunction,ComponentPad*%
%ADD15R,1.700000X1.700000*%
%TD*%
%TA.AperFunction,ComponentPad*%
%ADD16O,1.700000X1.700000*%
%TD*%
%TA.AperFunction,ComponentPad*%
%ADD17R,3.000000X3.000000*%
%TD*%
%TA.AperFunction,ComponentPad*%
%ADD18C,3.000000*%
%TD*%
%TA.AperFunction,WasherPad*%
%ADD19C,4.000000*%
%TD*%
%TA.AperFunction,ComponentPad*%
%ADD20C,1.800000*%
%TD*%
%TA.AperFunction,ViaPad*%
%ADD21C,0.700000*%
%TD*%
%TA.AperFunction,Conductor*%
%ADD22C,0.300000*%
%TD*%
G04 APERTURE END LIST*
D10*
%TO.P,SW2,3,C*%
%TO.N,ESP-01_GPIO1*%
X145800000Y-109340000D03*
%TO.P,SW2,2,B*%
%TO.N,+3.3V*%
X145800000Y-106800000D03*
%TO.P,SW2,1,A*%
%TO.N,ESP-01_EN*%
X145800000Y-104260000D03*
%TD*%
D11*
%TO.P,Q2,1,C*%
%TO.N,LOAD_OUT*%
X110730000Y-127760000D03*
D12*
%TO.P,Q2,2,B*%
%TO.N,Net-(Q2-B)*%
X112000000Y-127760000D03*
%TO.P,Q2,3,E*%
%TO.N,GND*%
X113270000Y-127760000D03*
%TD*%
D13*
%TO.P,C1,1*%
%TO.N,VDC*%
X115397349Y-119400000D03*
D14*
%TO.P,C1,2*%
%TO.N,GND*%
X119197349Y-119400000D03*
%TD*%
D15*
%TO.P,SW1,1,A*%
%TO.N,VDC*%
X111000000Y-116675000D03*
D16*
%TO.P,SW1,2,B*%
%TO.N,Net-(J1-Pin_1)*%
X111000000Y-114135000D03*
%TD*%
D17*
%TO.P,J1,1,Pin_1*%
%TO.N,Net-(J1-Pin_1)*%
X105200000Y-118100000D03*
D18*
%TO.P,J1,2,Pin_2*%
%TO.N,GND*%
X105200000Y-114600000D03*
%TD*%
D15*
%TO.P,U4,1,UTXD*%
%TO.N,ESP-01_GPIO1*%
X153200000Y-111420000D03*
D16*
%TO.P,U4,2,GND*%
%TO.N,GND*%
X150660000Y-111420000D03*
%TO.P,U4,3,CH_PD*%
%TO.N,ESP-01_EN*%
X153200000Y-108880000D03*
%TO.P,U4,4,GPIO2*%
X150660000Y-108880000D03*
%TO.P,U4,5,RST*%
%TO.N,unconnected-(U4-RST-Pad5)*%
X153200000Y-106340000D03*
%TO.P,U4,6,GPIO0*%
%TO.N,ESP-01_EN*%
X150660000Y-106340000D03*
%TO.P,U4,7,VCC*%
X153200000Y-103800000D03*
%TO.P,U4,8,URXD*%
%TO.N,unconnected-(U4-URXD-Pad8)*%
X150660000Y-103800000D03*
%TD*%
D18*
%TO.P,J2,2,Pin_2*%
%TO.N,VDC*%
X105200000Y-123800000D03*
D17*
%TO.P,J2,1,Pin_1*%
%TO.N,LOAD_OUT*%
X105200000Y-127300000D03*
%TD*%
D19*
%TO.P,RV1,*%
%TO.N,*%
X148600000Y-118700000D03*
X148600000Y-127500000D03*
D20*
%TO.P,RV1,1,1*%
%TO.N,Net-(D2-K)*%
X141600000Y-125600000D03*
%TO.P,RV1,2,2*%
%TO.N,Net-(U2-THR)*%
X141600000Y-123100000D03*
%TO.P,RV1,3,3*%
%TO.N,Net-(D3-A)*%
X141600000Y-120600000D03*
%TD*%
D21*
%TO.N,GND*%
X117600000Y-106600000D03*
X112200000Y-101000000D03*
X109200000Y-100800000D03*
X107200000Y-100800000D03*
X105200000Y-100800000D03*
X103200000Y-100800000D03*
X101200000Y-100800000D03*
X101200000Y-102800000D03*
X103200000Y-102800000D03*
X105200000Y-102800000D03*
X107200000Y-102800000D03*
X109200000Y-102800000D03*
X109200000Y-105200000D03*
X107200000Y-105200000D03*
X105200000Y-105200000D03*
X103200000Y-105200000D03*
X101200000Y-105200000D03*
X101200000Y-107600000D03*
X103200000Y-107600000D03*
X105200000Y-107600000D03*
X107200000Y-107600000D03*
X109200000Y-107600000D03*
X109200000Y-110000000D03*
X107200000Y-110000000D03*
X105200000Y-110000000D03*
X103200000Y-110000000D03*
X101200000Y-110000000D03*
X108600000Y-111800000D03*
X107600000Y-111800000D03*
X106600000Y-111800000D03*
X105600000Y-111800000D03*
X104600000Y-111800000D03*
X103600000Y-111800000D03*
X102600000Y-111800000D03*
X101600000Y-111800000D03*
X100600000Y-111800000D03*
X109000000Y-121400000D03*
X110000000Y-122000000D03*
X110000000Y-121000000D03*
X139200000Y-100600000D03*
X139200000Y-101600000D03*
X139200000Y-102600000D03*
X140200000Y-102600000D03*
X141200000Y-102600000D03*
X142200000Y-102600000D03*
X148400000Y-110400000D03*
X148400000Y-111400000D03*
X148400000Y-112400000D03*
%TO.N,Net-(D2-A)*%
X137996773Y-114534500D03*
X138000000Y-113135500D03*
%TO.N,GND*%
X137400000Y-111295000D03*
X137000000Y-122000000D03*
X117800000Y-119400000D03*
X109000000Y-119400000D03*
X109000000Y-120400000D03*
X112800000Y-126400000D03*
X118800000Y-128000000D03*
X122200000Y-127800000D03*
X114400000Y-111800000D03*
X117400000Y-102625000D03*
X117600000Y-105400000D03*
X129000000Y-105000000D03*
X130800000Y-105000000D03*
X142800000Y-111200000D03*
%TD*%
D22*
%TO.N,Net-(D2-A)*%
X137996773Y-114534500D02*
X137996773Y-113138727D01*
X137996773Y-113138727D02*
X138000000Y-113135500D01*
%TD*%
%TA.AperFunction,Conductor*%
%TO.N,GND*%
G36*
X154942539Y-100020185D02*
G01*
X154988294Y-100072989D01*
X154999500Y-100124500D01*
X154999500Y-129875500D01*
X154979815Y-129942539D01*
X154927011Y-129988294D01*
X154875500Y-129999500D01*
X149726787Y-129999500D01*
X149659748Y-129979815D01*
X149613993Y-129927011D01*
X149604049Y-129857853D01*
X149633074Y-129794297D01*
X149667047Y-129766839D01*
X149942484Y-129615416D01*
X150197030Y-129430478D01*
X150426390Y-129215094D01*
X150626947Y-128972663D01*
X150795537Y-128707007D01*
X150929503Y-128422315D01*
X151026731Y-128123079D01*
X151085688Y-127814015D01*
X151098850Y-127604810D01*
X151105444Y-127500005D01*
X151105444Y-127499994D01*
X151085689Y-127185995D01*
X151085688Y-127185988D01*
X151085688Y-127185985D01*
X151026731Y-126876921D01*
X150929503Y-126577685D01*
X150926100Y-126570454D01*
X150873695Y-126459087D01*
X150795537Y-126292993D01*
X150721603Y-126176491D01*
X150626948Y-126027338D01*
X150626945Y-126027334D01*
X150426393Y-125784909D01*
X150426391Y-125784907D01*
X150391493Y-125752135D01*
X150197030Y-125569522D01*
X150197027Y-125569520D01*
X150197021Y-125569515D01*
X149942495Y-125384591D01*
X149942488Y-125384586D01*
X149942484Y-125384584D01*
X149666766Y-125233006D01*
X149666763Y-125233004D01*
X149666758Y-125233002D01*
X149666757Y-125233001D01*
X149374228Y-125117181D01*
X149374225Y-125117180D01*
X149069476Y-125038934D01*
X149069463Y-125038932D01*
X148757329Y-124999500D01*
X148757318Y-124999500D01*
X148442682Y-124999500D01*
X148442670Y-124999500D01*
X148130536Y-125038932D01*
X148130523Y-125038934D01*
X147825774Y-125117180D01*
X147825771Y-125117181D01*
X147533242Y-125233001D01*
X147533241Y-125233002D01*
X147257516Y-125384584D01*
X147257504Y-125384591D01*
X147002978Y-125569515D01*
X147002968Y-125569523D01*
X146773608Y-125784907D01*
X146773606Y-125784909D01*
X146573054Y-126027334D01*
X146573051Y-126027338D01*
X146404464Y-126292990D01*
X146404461Y-126292996D01*
X146270499Y-126577678D01*
X146270497Y-126577683D01*
X146173270Y-126876916D01*
X146114311Y-127185988D01*
X146114310Y-127185995D01*
X146094556Y-127499994D01*
X146094556Y-127500005D01*
X146114310Y-127814004D01*
X146114311Y-127814011D01*
X146116123Y-127823509D01*
X146167773Y-128094270D01*
X146173270Y-128123083D01*
X146270497Y-128422316D01*
X146270499Y-128422321D01*
X146404461Y-128707003D01*
X146404464Y-128707009D01*
X146573051Y-128972661D01*
X146573054Y-128972665D01*
X146773606Y-129215090D01*
X146773608Y-129215092D01*
X146773610Y-129215094D01*
X146804175Y-129243796D01*
X147002968Y-129430476D01*
X147002978Y-129430484D01*
X147257504Y-129615408D01*
X147257509Y-129615410D01*
X147257516Y-129615416D01*
X147532951Y-129766838D01*
X147582215Y-129816384D01*
X147596871Y-129884699D01*
X147572267Y-129950094D01*
X147516214Y-129991805D01*
X147473213Y-129999500D01*
X100124500Y-129999500D01*
X100057461Y-129979815D01*
X100011706Y-129927011D01*
X100000500Y-129875500D01*
X100000500Y-123800001D01*
X103194390Y-123800001D01*
X103214804Y-124085433D01*
X103275628Y-124365037D01*
X103275630Y-124365043D01*
X103275631Y-124365046D01*
X103350615Y-124566084D01*
X103375635Y-124633166D01*
X103512770Y-124884309D01*
X103512775Y-124884317D01*
X103680309Y-125108117D01*
X103704726Y-125173581D01*
X103689874Y-125241854D01*
X103640469Y-125291259D01*
X103600021Y-125303925D01*
X103600068Y-125304124D01*
X103597299Y-125304778D01*
X103594305Y-125305716D01*
X103592518Y-125305908D01*
X103457671Y-125356202D01*
X103457664Y-125356206D01*
X103342455Y-125442452D01*
X103342452Y-125442455D01*
X103256206Y-125557664D01*
X103256202Y-125557671D01*
X103205908Y-125692517D01*
X103199501Y-125752116D01*
X103199501Y-125752123D01*
X103199500Y-125752135D01*
X103199500Y-128847870D01*
X103199501Y-128847876D01*
X103205908Y-128907483D01*
X103256202Y-129042328D01*
X103256206Y-129042335D01*
X103342452Y-129157544D01*
X103342455Y-129157547D01*
X103457664Y-129243793D01*
X103457671Y-129243797D01*
X103592517Y-129294091D01*
X103592516Y-129294091D01*
X103599444Y-129294835D01*
X103652127Y-129300500D01*
X106747872Y-129300499D01*
X106807483Y-129294091D01*
X106942331Y-129243796D01*
X107057546Y-129157546D01*
X107143796Y-129042331D01*
X107194091Y-128907483D01*
X107200500Y-128847873D01*
X107200500Y-128557870D01*
X109704500Y-128557870D01*
X109704501Y-128557876D01*
X109710908Y-128617483D01*
X109761202Y-128752328D01*
X109761206Y-128752335D01*
X109847452Y-128867544D01*
X109847455Y-128867547D01*
X109962664Y-128953793D01*
X109962671Y-128953797D01*
X110097517Y-129004091D01*
X110097516Y-129004091D01*
X110104444Y-129004835D01*
X110157127Y-129010500D01*
X111302872Y-129010499D01*
X111362483Y-129004091D01*
X111497331Y-128953796D01*
X111497335Y-128953792D01*
X111505118Y-128949544D01*
X111506252Y-128951621D01*
X111559715Y-128931671D01*
X111604576Y-128936694D01*
X111605656Y-128937021D01*
X111605659Y-128937023D01*
X111798967Y-128995662D01*
X112000000Y-129015462D01*
X112201033Y-128995662D01*
X112394341Y-128937023D01*
X112444471Y-128910228D01*
X112577078Y-128839348D01*
X112645480Y-128825106D01*
X112693985Y-128839348D01*
X112875848Y-128936557D01*
X113020000Y-128980285D01*
X113020000Y-128094270D01*
X113020299Y-128088190D01*
X113024629Y-128044220D01*
X113089052Y-128094363D01*
X113207424Y-128135000D01*
X113301073Y-128135000D01*
X113393446Y-128119586D01*
X113503514Y-128060019D01*
X113520000Y-128042110D01*
X113520000Y-128980285D01*
X113664153Y-128936557D01*
X113842209Y-128841384D01*
X113842215Y-128841379D01*
X113998292Y-128713292D01*
X114126379Y-128557215D01*
X114126384Y-128557209D01*
X114221556Y-128379154D01*
X114280170Y-128185932D01*
X114295000Y-128035357D01*
X114295000Y-128010000D01*
X113549560Y-128010000D01*
X113588278Y-127967941D01*
X113638551Y-127853330D01*
X113648886Y-127728605D01*
X113618163Y-127607281D01*
X113554606Y-127510000D01*
X114295000Y-127510000D01*
X114295000Y-127484642D01*
X114280170Y-127334067D01*
X114221556Y-127140845D01*
X114212731Y-127124334D01*
X125999500Y-127124334D01*
X126040429Y-127369616D01*
X126121169Y-127604802D01*
X126121172Y-127604811D01*
X126234382Y-127814004D01*
X126239526Y-127823509D01*
X126392262Y-128019744D01*
X126551744Y-128166557D01*
X126575217Y-128188166D01*
X126783393Y-128324173D01*
X127011118Y-128424063D01*
X127252175Y-128485107D01*
X127252179Y-128485108D01*
X127252181Y-128485108D01*
X127252186Y-128485109D01*
X127385376Y-128496145D01*
X127437933Y-128500500D01*
X127437935Y-128500500D01*
X127562065Y-128500500D01*
X127562067Y-128500500D01*
X127623284Y-128495427D01*
X127747813Y-128485109D01*
X127747816Y-128485108D01*
X127747821Y-128485108D01*
X127988881Y-128424063D01*
X128216607Y-128324173D01*
X128424785Y-128188164D01*
X128607738Y-128019744D01*
X128760474Y-127823509D01*
X128878828Y-127604810D01*
X128959571Y-127369614D01*
X129000500Y-127124335D01*
X129000500Y-126875665D01*
X128959571Y-126630386D01*
X128878828Y-126395190D01*
X128760474Y-126176491D01*
X128607738Y-125980256D01*
X128424785Y-125811836D01*
X128424782Y-125811833D01*
X128216606Y-125675826D01*
X128043755Y-125600006D01*
X140194700Y-125600006D01*
X140213864Y-125831297D01*
X140213866Y-125831308D01*
X140270842Y-126056300D01*
X140364075Y-126268848D01*
X140491016Y-126463147D01*
X140491019Y-126463151D01*
X140491021Y-126463153D01*
X140648216Y-126633913D01*
X140648219Y-126633915D01*
X140648222Y-126633918D01*
X140831365Y-126776464D01*
X140831371Y-126776468D01*
X140831374Y-126776470D01*
X141035497Y-126886936D01*
X141149487Y-126926068D01*
X141255015Y-126962297D01*
X141255017Y-126962297D01*
X141255019Y-126962298D01*
X141483951Y-127000500D01*
X141483952Y-127000500D01*
X141716048Y-127000500D01*
X141716049Y-127000500D01*
X141944981Y-126962298D01*
X142164503Y-126886936D01*
X142368626Y-126776470D01*
X142551784Y-126633913D01*
X142708979Y-126463153D01*
X142835924Y-126268849D01*
X142929157Y-126056300D01*
X142986134Y-125831305D01*
X142986135Y-125831297D01*
X143005300Y-125600006D01*
X143005300Y-125599993D01*
X142986135Y-125368702D01*
X142986133Y-125368691D01*
X142929157Y-125143699D01*
X142835924Y-124931151D01*
X142708983Y-124736852D01*
X142708980Y-124736849D01*
X142708979Y-124736847D01*
X142551784Y-124566087D01*
X142399876Y-124447852D01*
X142359064Y-124391143D01*
X142355389Y-124321370D01*
X142390020Y-124260687D01*
X142399876Y-124252147D01*
X142551784Y-124133913D01*
X142708979Y-123963153D01*
X142835924Y-123768849D01*
X142929157Y-123556300D01*
X142986134Y-123331305D01*
X143005300Y-123100000D01*
X143005300Y-123099993D01*
X142986135Y-122868702D01*
X142986133Y-122868691D01*
X142929157Y-122643699D01*
X142835924Y-122431151D01*
X142708983Y-122236852D01*
X142708980Y-122236849D01*
X142708979Y-122236847D01*
X142551784Y-122066087D01*
X142399876Y-121947852D01*
X142359064Y-121891143D01*
X142355389Y-121821370D01*
X142390020Y-121760687D01*
X142399876Y-121752147D01*
X142551784Y-121633913D01*
X142708979Y-121463153D01*
X142835924Y-121268849D01*
X142929157Y-121056300D01*
X142986134Y-120831305D01*
X142987451Y-120815415D01*
X143005300Y-120600006D01*
X143005300Y-120599993D01*
X142986135Y-120368702D01*
X142986133Y-120368691D01*
X142929157Y-120143699D01*
X142835924Y-119931151D01*
X142708983Y-119736852D01*
X142708980Y-119736849D01*
X142708979Y-119736847D01*
X142551784Y-119566087D01*
X142551779Y-119566083D01*
X142551777Y-119566081D01*
X142368634Y-119423535D01*
X142368628Y-119423531D01*
X142164504Y-119313064D01*
X142164495Y-119313061D01*
X141944984Y-119237702D01*
X141773282Y-119209050D01*
X141716049Y-119199500D01*
X141483951Y-119199500D01*
X141438164Y-119207140D01*
X141255015Y-119237702D01*
X141035504Y-119313061D01*
X141035495Y-119313064D01*
X140831371Y-119423531D01*
X140831365Y-119423535D01*
X140648222Y-119566081D01*
X140648219Y-119566084D01*
X140491016Y-119736852D01*
X140364075Y-119931151D01*
X140270842Y-120143699D01*
X140213866Y-120368691D01*
X140213864Y-120368702D01*
X140194700Y-120599993D01*
X140194700Y-120600006D01*
X140213864Y-120831297D01*
X140213866Y-120831308D01*
X140270842Y-121056300D01*
X140364075Y-121268848D01*
X140491016Y-121463147D01*
X140491019Y-121463151D01*
X140491021Y-121463153D01*
X140648216Y-121633913D01*
X140648219Y-121633915D01*
X140648222Y-121633918D01*
X140800122Y-121752147D01*
X140840935Y-121808857D01*
X140844610Y-121878630D01*
X140809978Y-121939313D01*
X140800122Y-121947853D01*
X140648222Y-122066081D01*
X140648219Y-122066084D01*
X140648216Y-122066086D01*
X140648216Y-122066087D01*
X140605238Y-122112774D01*
X140491016Y-122236852D01*
X140364075Y-122431151D01*
X140270842Y-122643699D01*
X140213866Y-122868691D01*
X140213864Y-122868702D01*
X140194700Y-123099993D01*
X140194700Y-123100006D01*
X140213864Y-123331297D01*
X140213866Y-123331308D01*
X140270842Y-123556300D01*
X140364075Y-123768848D01*
X140491016Y-123963147D01*
X140491019Y-123963151D01*
X140491021Y-123963153D01*
X140648216Y-124133913D01*
X140648219Y-124133915D01*
X140648222Y-124133918D01*
X140800122Y-124252147D01*
X140840935Y-124308857D01*
X140844610Y-124378630D01*
X140809978Y-124439313D01*
X140800122Y-124447853D01*
X140648222Y-124566081D01*
X140648219Y-124566084D01*
X140491016Y-124736852D01*
X140364075Y-124931151D01*
X140270842Y-125143699D01*
X140213866Y-125368691D01*
X140213864Y-125368702D01*
X140194700Y-125599993D01*
X140194700Y-125600006D01*
X128043755Y-125600006D01*
X127988881Y-125575936D01*
X127747824Y-125514892D01*
X127747813Y-125514890D01*
X127582548Y-125501197D01*
X127562067Y-125499500D01*
X127437933Y-125499500D01*
X127418521Y-125501108D01*
X127252186Y-125514890D01*
X127252175Y-125514892D01*
X127011118Y-125575936D01*
X126783393Y-125675826D01*
X126575217Y-125811833D01*
X126392261Y-125980257D01*
X126239524Y-126176493D01*
X126121172Y-126395188D01*
X126121169Y-126395197D01*
X126040429Y-126630383D01*
X125999500Y-126875665D01*
X125999500Y-127124334D01*
X114212731Y-127124334D01*
X114126384Y-126962790D01*
X114126379Y-126962784D01*
X113998292Y-126806707D01*
X113842215Y-126678620D01*
X113842209Y-126678615D01*
X113664150Y-126583441D01*
X113520000Y-126539712D01*
X113520000Y-127479382D01*
X113450948Y-127425637D01*
X113332576Y-127385000D01*
X113238927Y-127385000D01*
X113146554Y-127400414D01*
X113036486Y-127459981D01*
X113024369Y-127473142D01*
X113020299Y-127431808D01*
X113020000Y-127425728D01*
X113020000Y-126539712D01*
X112875849Y-126583441D01*
X112693983Y-126680651D01*
X112625580Y-126694893D01*
X112577077Y-126680651D01*
X112394345Y-126582978D01*
X112201031Y-126524337D01*
X112000000Y-126504538D01*
X111798968Y-126524337D01*
X111660959Y-126566202D01*
X111605659Y-126582977D01*
X111605658Y-126582977D01*
X111604575Y-126583306D01*
X111534708Y-126583929D01*
X111505618Y-126569529D01*
X111505114Y-126570454D01*
X111497328Y-126566202D01*
X111362482Y-126515908D01*
X111362483Y-126515908D01*
X111302883Y-126509501D01*
X111302881Y-126509500D01*
X111302873Y-126509500D01*
X111302864Y-126509500D01*
X110157129Y-126509500D01*
X110157123Y-126509501D01*
X110097516Y-126515908D01*
X109962671Y-126566202D01*
X109962664Y-126566206D01*
X109847455Y-126652452D01*
X109847452Y-126652455D01*
X109761206Y-126767664D01*
X109761202Y-126767671D01*
X109710908Y-126902517D01*
X109704501Y-126962116D01*
X109704500Y-126962135D01*
X109704500Y-128557870D01*
X107200500Y-128557870D01*
X107200499Y-125752128D01*
X107194091Y-125692517D01*
X107159584Y-125600000D01*
X107143797Y-125557671D01*
X107143793Y-125557664D01*
X107057547Y-125442455D01*
X107057544Y-125442452D01*
X106942335Y-125356206D01*
X106942328Y-125356202D01*
X106807482Y-125305908D01*
X106807484Y-125305908D01*
X106805699Y-125305717D01*
X106804407Y-125305182D01*
X106799938Y-125304126D01*
X106800109Y-125303401D01*
X106741148Y-125278978D01*
X106701301Y-125221585D01*
X106698808Y-125151760D01*
X106719687Y-125108120D01*
X106887226Y-124884315D01*
X107024367Y-124633161D01*
X107124369Y-124365046D01*
X107136592Y-124308857D01*
X107185195Y-124085433D01*
X107185195Y-124085432D01*
X107185196Y-124085428D01*
X107205610Y-123800000D01*
X107185196Y-123514572D01*
X107145329Y-123331308D01*
X107124371Y-123234962D01*
X107124370Y-123234960D01*
X107124369Y-123234954D01*
X107024367Y-122966839D01*
X106887226Y-122715685D01*
X106833338Y-122643699D01*
X106715745Y-122486612D01*
X106715729Y-122486594D01*
X106513405Y-122284270D01*
X106513387Y-122284254D01*
X106284317Y-122112775D01*
X106284309Y-122112770D01*
X106033166Y-121975635D01*
X106033167Y-121975635D01*
X105893468Y-121923530D01*
X105765046Y-121875631D01*
X105765043Y-121875630D01*
X105765037Y-121875628D01*
X105485433Y-121814804D01*
X105200001Y-121794390D01*
X105199999Y-121794390D01*
X104914566Y-121814804D01*
X104634962Y-121875628D01*
X104366833Y-121975635D01*
X104115690Y-122112770D01*
X104115682Y-122112775D01*
X103886612Y-122284254D01*
X103886594Y-122284270D01*
X103684270Y-122486594D01*
X103684254Y-122486612D01*
X103512775Y-122715682D01*
X103512770Y-122715690D01*
X103375635Y-122966833D01*
X103275628Y-123234962D01*
X103214804Y-123514566D01*
X103194390Y-123799998D01*
X103194390Y-123800001D01*
X100000500Y-123800001D01*
X100000500Y-120247870D01*
X114096849Y-120247870D01*
X114096850Y-120247876D01*
X114103257Y-120307483D01*
X114153551Y-120442328D01*
X114153555Y-120442335D01*
X114239801Y-120557544D01*
X114239804Y-120557547D01*
X114355013Y-120643793D01*
X114355020Y-120643797D01*
X114489866Y-120694091D01*
X114489865Y-120694091D01*
X114496793Y-120694835D01*
X114549476Y-120700500D01*
X116245221Y-120700499D01*
X116304832Y-120694091D01*
X116439680Y-120643796D01*
X116554895Y-120557546D01*
X116641145Y-120442331D01*
X116691440Y-120307483D01*
X116697849Y-120247873D01*
X116697849Y-119400002D01*
X117892383Y-119400002D01*
X117912207Y-119626599D01*
X117912209Y-119626610D01*
X117971079Y-119846317D01*
X117971083Y-119846326D01*
X118067214Y-120052481D01*
X118067215Y-120052483D01*
X118118322Y-120125471D01*
X118118323Y-120125472D01*
X118799395Y-119444399D01*
X118812184Y-119525148D01*
X118869708Y-119638045D01*
X118959304Y-119727641D01*
X119072201Y-119785165D01*
X119152948Y-119797953D01*
X118471875Y-120479025D01*
X118471875Y-120479026D01*
X118544861Y-120530131D01*
X118544865Y-120530133D01*
X118751022Y-120626265D01*
X118751031Y-120626269D01*
X118970738Y-120685139D01*
X118970749Y-120685141D01*
X119197347Y-120704966D01*
X119197351Y-120704966D01*
X119423948Y-120685141D01*
X119423959Y-120685139D01*
X119643666Y-120626269D01*
X119643680Y-120626264D01*
X119849827Y-120530136D01*
X119922821Y-120479025D01*
X119241750Y-119797953D01*
X119322497Y-119785165D01*
X119435394Y-119727641D01*
X119524990Y-119638045D01*
X119582514Y-119525148D01*
X119595302Y-119444400D01*
X120276374Y-120125472D01*
X120327485Y-120052478D01*
X120423613Y-119846331D01*
X120423618Y-119846317D01*
X120482488Y-119626610D01*
X120482490Y-119626599D01*
X120502315Y-119400002D01*
X120502315Y-119399997D01*
X120482490Y-119173400D01*
X120482488Y-119173389D01*
X120423618Y-118953682D01*
X120423614Y-118953673D01*
X120327482Y-118747516D01*
X120327480Y-118747512D01*
X120294215Y-118700005D01*
X146094556Y-118700005D01*
X146114310Y-119014004D01*
X146114311Y-119014011D01*
X146125442Y-119072359D01*
X146156982Y-119237702D01*
X146173270Y-119323083D01*
X146270497Y-119622316D01*
X146270499Y-119622321D01*
X146404461Y-119907003D01*
X146404464Y-119907009D01*
X146573051Y-120172661D01*
X146573054Y-120172665D01*
X146773606Y-120415090D01*
X146773608Y-120415092D01*
X146773610Y-120415094D01*
X146925304Y-120557544D01*
X147002968Y-120630476D01*
X147002978Y-120630484D01*
X147257504Y-120815408D01*
X147257509Y-120815410D01*
X147257516Y-120815416D01*
X147533234Y-120966994D01*
X147533239Y-120966996D01*
X147533241Y-120966997D01*
X147533242Y-120966998D01*
X147825771Y-121082818D01*
X147825774Y-121082819D01*
X148130523Y-121161065D01*
X148130527Y-121161066D01*
X148196010Y-121169338D01*
X148442670Y-121200499D01*
X148442679Y-121200499D01*
X148442682Y-121200500D01*
X148442684Y-121200500D01*
X148757316Y-121200500D01*
X148757318Y-121200500D01*
X148757321Y-121200499D01*
X148757329Y-121200499D01*
X148943593Y-121176968D01*
X149069473Y-121161066D01*
X149374225Y-121082819D01*
X149374228Y-121082818D01*
X149666757Y-120966998D01*
X149666758Y-120966997D01*
X149666756Y-120966997D01*
X149666766Y-120966994D01*
X149942484Y-120815416D01*
X150197030Y-120630478D01*
X150426390Y-120415094D01*
X150626947Y-120172663D01*
X150795537Y-119907007D01*
X150929503Y-119622315D01*
X151026731Y-119323079D01*
X151085688Y-119014015D01*
X151089484Y-118953682D01*
X151105444Y-118700005D01*
X151105444Y-118699994D01*
X151085689Y-118385995D01*
X151085688Y-118385988D01*
X151085688Y-118385985D01*
X151026731Y-118076921D01*
X150929503Y-117777685D01*
X150924629Y-117767328D01*
X150833127Y-117572876D01*
X150795537Y-117492993D01*
X150626947Y-117227337D01*
X150626945Y-117227334D01*
X150426393Y-116984909D01*
X150426391Y-116984907D01*
X150197031Y-116769523D01*
X150197021Y-116769515D01*
X149942495Y-116584591D01*
X149942488Y-116584586D01*
X149942484Y-116584584D01*
X149666766Y-116433006D01*
X149666763Y-116433004D01*
X149666758Y-116433002D01*
X149666757Y-116433001D01*
X149374228Y-116317181D01*
X149374225Y-116317180D01*
X149069476Y-116238934D01*
X149069463Y-116238932D01*
X148757329Y-116199500D01*
X148757318Y-116199500D01*
X148442682Y-116199500D01*
X148442670Y-116199500D01*
X148130536Y-116238932D01*
X148130523Y-116238934D01*
X147825774Y-116317180D01*
X147825771Y-116317181D01*
X147533242Y-116433001D01*
X147533241Y-116433002D01*
X147257516Y-116584584D01*
X147257504Y-116584591D01*
X147002978Y-116769515D01*
X147002968Y-116769523D01*
X146773608Y-116984907D01*
X146773606Y-116984909D01*
X146573054Y-117227334D01*
X146573051Y-117227338D01*
X146404464Y-117492990D01*
X146404461Y-117492996D01*
X146270499Y-117777678D01*
X146270497Y-117777683D01*
X146173270Y-118076916D01*
X146114311Y-118385988D01*
X146114310Y-118385995D01*
X146094556Y-118699994D01*
X146094556Y-118700005D01*
X120294215Y-118700005D01*
X120276375Y-118674526D01*
X120276374Y-118674526D01*
X119595302Y-119355598D01*
X119582514Y-119274852D01*
X119524990Y-119161955D01*
X119435394Y-119072359D01*
X119322497Y-119014835D01*
X119241749Y-119002046D01*
X119922821Y-118320974D01*
X119922820Y-118320973D01*
X119849832Y-118269866D01*
X119849830Y-118269865D01*
X119643675Y-118173734D01*
X119643666Y-118173730D01*
X119423959Y-118114860D01*
X119423948Y-118114858D01*
X119197351Y-118095034D01*
X119197347Y-118095034D01*
X118970749Y-118114858D01*
X118970738Y-118114860D01*
X118751031Y-118173730D01*
X118751022Y-118173734D01*
X118544862Y-118269868D01*
X118471876Y-118320972D01*
X118471875Y-118320973D01*
X119152949Y-119002046D01*
X119072201Y-119014835D01*
X118959304Y-119072359D01*
X118869708Y-119161955D01*
X118812184Y-119274852D01*
X118799395Y-119355599D01*
X118118322Y-118674526D01*
X118118321Y-118674527D01*
X118067217Y-118747513D01*
X117971083Y-118953673D01*
X117971079Y-118953682D01*
X117912209Y-119173389D01*
X117912207Y-119173400D01*
X117892383Y-119399997D01*
X117892383Y-119400002D01*
X116697849Y-119400002D01*
X116697848Y-118552128D01*
X116691440Y-118492517D01*
X116651707Y-118385988D01*
X116641146Y-118357671D01*
X116641142Y-118357664D01*
X116554896Y-118242455D01*
X116554893Y-118242452D01*
X116439684Y-118156206D01*
X116439677Y-118156202D01*
X116304831Y-118105908D01*
X116304832Y-118105908D01*
X116245232Y-118099501D01*
X116245230Y-118099500D01*
X116245222Y-118099500D01*
X116245213Y-118099500D01*
X114549478Y-118099500D01*
X114549472Y-118099501D01*
X114489865Y-118105908D01*
X114355020Y-118156202D01*
X114355013Y-118156206D01*
X114239804Y-118242452D01*
X114239801Y-118242455D01*
X114153555Y-118357664D01*
X114153551Y-118357671D01*
X114103257Y-118492517D01*
X114096850Y-118552116D01*
X114096850Y-118552123D01*
X114096849Y-118552135D01*
X114096849Y-120247870D01*
X100000500Y-120247870D01*
X100000500Y-114600001D01*
X103194891Y-114600001D01*
X103215300Y-114885362D01*
X103276109Y-115164895D01*
X103376091Y-115432958D01*
X103513191Y-115684038D01*
X103513196Y-115684046D01*
X103680887Y-115908055D01*
X103705304Y-115973519D01*
X103690452Y-116041792D01*
X103641047Y-116091197D01*
X103600047Y-116104036D01*
X103600068Y-116104124D01*
X103598840Y-116104414D01*
X103594881Y-116105654D01*
X103592518Y-116105908D01*
X103457671Y-116156202D01*
X103457664Y-116156206D01*
X103342455Y-116242452D01*
X103342452Y-116242455D01*
X103256206Y-116357664D01*
X103256202Y-116357671D01*
X103205908Y-116492517D01*
X103199501Y-116552116D01*
X103199501Y-116552123D01*
X103199500Y-116552135D01*
X103199500Y-119647870D01*
X103199501Y-119647876D01*
X103205908Y-119707483D01*
X103256202Y-119842328D01*
X103256206Y-119842335D01*
X103342452Y-119957544D01*
X103342455Y-119957547D01*
X103457664Y-120043793D01*
X103457671Y-120043797D01*
X103592517Y-120094091D01*
X103592516Y-120094091D01*
X103599444Y-120094835D01*
X103652127Y-120100500D01*
X106747872Y-120100499D01*
X106807483Y-120094091D01*
X106942331Y-120043796D01*
X107057546Y-119957546D01*
X107143796Y-119842331D01*
X107194091Y-119707483D01*
X107200500Y-119647873D01*
X107200499Y-116552128D01*
X107194091Y-116492517D01*
X107171893Y-116433002D01*
X107143797Y-116357671D01*
X107143793Y-116357664D01*
X107057547Y-116242455D01*
X107057544Y-116242452D01*
X106942335Y-116156206D01*
X106942328Y-116156202D01*
X106807482Y-116105908D01*
X106807483Y-116105908D01*
X106805123Y-116105655D01*
X106803414Y-116104947D01*
X106799938Y-116104126D01*
X106800071Y-116103562D01*
X106740571Y-116078917D01*
X106700723Y-116021525D01*
X106698230Y-115951700D01*
X106719111Y-115908055D01*
X106886807Y-115684039D01*
X106886808Y-115684038D01*
X107023908Y-115432958D01*
X107123890Y-115164895D01*
X107184699Y-114885362D01*
X107205109Y-114600001D01*
X107205109Y-114599998D01*
X107184699Y-114314637D01*
X107145621Y-114135000D01*
X109644341Y-114135000D01*
X109664936Y-114370403D01*
X109664938Y-114370413D01*
X109726094Y-114598655D01*
X109726096Y-114598659D01*
X109726097Y-114598663D01*
X109779090Y-114712307D01*
X109825965Y-114812830D01*
X109825967Y-114812834D01*
X109883062Y-114894373D01*
X109961501Y-115006396D01*
X109961506Y-115006402D01*
X110083430Y-115128326D01*
X110116915Y-115189649D01*
X110111931Y-115259341D01*
X110070059Y-115315274D01*
X110039083Y-115332189D01*
X109907669Y-115381203D01*
X109907664Y-115381206D01*
X109792455Y-115467452D01*
X109792452Y-115467455D01*
X109706206Y-115582664D01*
X109706202Y-115582671D01*
X109655908Y-115717517D01*
X109649501Y-115777116D01*
X109649501Y-115777123D01*
X109649500Y-115777135D01*
X109649500Y-117572870D01*
X109649501Y-117572876D01*
X109655908Y-117632483D01*
X109706202Y-117767328D01*
X109706206Y-117767335D01*
X109792452Y-117882544D01*
X109792455Y-117882547D01*
X109907664Y-117968793D01*
X109907671Y-117968797D01*
X110042517Y-118019091D01*
X110042516Y-118019091D01*
X110049444Y-118019835D01*
X110102127Y-118025500D01*
X111897872Y-118025499D01*
X111957483Y-118019091D01*
X112092331Y-117968796D01*
X112207546Y-117882546D01*
X112293796Y-117767331D01*
X112344091Y-117632483D01*
X112350500Y-117572873D01*
X112350499Y-115777128D01*
X112344091Y-115717517D01*
X112293796Y-115582669D01*
X112293795Y-115582668D01*
X112293793Y-115582664D01*
X112207547Y-115467455D01*
X112207544Y-115467452D01*
X112092335Y-115381206D01*
X112092328Y-115381202D01*
X111960917Y-115332189D01*
X111904983Y-115290318D01*
X111880566Y-115224853D01*
X111895418Y-115156580D01*
X111916563Y-115128332D01*
X112038495Y-115006401D01*
X112174035Y-114812830D01*
X112273903Y-114598663D01*
X112291095Y-114534500D01*
X137141588Y-114534500D01*
X137160276Y-114712305D01*
X137160277Y-114712307D01*
X137215520Y-114882329D01*
X137215523Y-114882335D01*
X137304914Y-115037165D01*
X137346585Y-115083446D01*
X137424537Y-115170021D01*
X137424540Y-115170023D01*
X137424543Y-115170026D01*
X137569180Y-115275112D01*
X137732506Y-115347829D01*
X137907382Y-115385000D01*
X137907383Y-115385000D01*
X138086162Y-115385000D01*
X138086164Y-115385000D01*
X138261040Y-115347829D01*
X138424366Y-115275112D01*
X138569003Y-115170026D01*
X138688632Y-115037165D01*
X138778023Y-114882335D01*
X138833270Y-114712303D01*
X138851958Y-114534500D01*
X138833270Y-114356697D01*
X138778023Y-114186665D01*
X138688632Y-114031835D01*
X138679122Y-114021273D01*
X138648893Y-113958282D01*
X138647273Y-113938302D01*
X138647273Y-113735281D01*
X138666958Y-113668242D01*
X138679125Y-113652307D01*
X138685579Y-113645139D01*
X138691859Y-113638165D01*
X138781250Y-113483335D01*
X138836497Y-113313303D01*
X138855185Y-113135500D01*
X138836497Y-112957697D01*
X138785238Y-112799938D01*
X138781252Y-112787670D01*
X138781249Y-112787664D01*
X138776444Y-112779341D01*
X138691859Y-112632835D01*
X138645003Y-112580796D01*
X138572235Y-112499978D01*
X138572232Y-112499976D01*
X138572231Y-112499975D01*
X138572230Y-112499974D01*
X138427593Y-112394888D01*
X138264267Y-112322171D01*
X138264265Y-112322170D01*
X138136594Y-112295033D01*
X138089391Y-112285000D01*
X137910609Y-112285000D01*
X137881995Y-112291082D01*
X137735733Y-112322170D01*
X137735728Y-112322172D01*
X137572408Y-112394887D01*
X137427768Y-112499975D01*
X137308140Y-112632836D01*
X137218750Y-112787664D01*
X137218747Y-112787670D01*
X137163504Y-112957692D01*
X137163503Y-112957694D01*
X137144815Y-113135500D01*
X137163503Y-113313305D01*
X137163504Y-113313307D01*
X137218747Y-113483329D01*
X137218750Y-113483335D01*
X137308140Y-113638164D01*
X137308143Y-113638168D01*
X137314420Y-113645139D01*
X137344652Y-113708129D01*
X137346273Y-113728114D01*
X137346273Y-113938302D01*
X137326588Y-114005341D01*
X137314424Y-114021273D01*
X137304913Y-114031836D01*
X137215523Y-114186664D01*
X137215520Y-114186670D01*
X137160277Y-114356692D01*
X137160276Y-114356694D01*
X137141588Y-114534500D01*
X112291095Y-114534500D01*
X112335063Y-114370408D01*
X112355659Y-114135000D01*
X112335063Y-113899592D01*
X112273903Y-113671337D01*
X112174035Y-113457171D01*
X112115404Y-113373436D01*
X112038494Y-113263597D01*
X111871402Y-113096506D01*
X111871395Y-113096501D01*
X111677834Y-112960967D01*
X111677830Y-112960965D01*
X111575389Y-112913196D01*
X111463663Y-112861097D01*
X111463659Y-112861096D01*
X111463655Y-112861094D01*
X111235413Y-112799938D01*
X111235403Y-112799936D01*
X111000001Y-112779341D01*
X110999999Y-112779341D01*
X110764596Y-112799936D01*
X110764586Y-112799938D01*
X110536344Y-112861094D01*
X110536335Y-112861098D01*
X110322171Y-112960964D01*
X110322169Y-112960965D01*
X110128597Y-113096505D01*
X109961505Y-113263597D01*
X109825965Y-113457169D01*
X109825964Y-113457171D01*
X109726098Y-113671335D01*
X109726094Y-113671344D01*
X109664938Y-113899586D01*
X109664936Y-113899596D01*
X109644341Y-114134999D01*
X109644341Y-114135000D01*
X107145621Y-114135000D01*
X107123890Y-114035104D01*
X107023908Y-113767041D01*
X106886808Y-113515961D01*
X106886807Y-113515960D01*
X106780115Y-113373436D01*
X105969724Y-114183826D01*
X105928499Y-114106066D01*
X105805286Y-113961008D01*
X105653770Y-113845829D01*
X105617429Y-113829016D01*
X106426562Y-113019883D01*
X106426561Y-113019882D01*
X106284046Y-112913196D01*
X106284038Y-112913191D01*
X106032957Y-112776091D01*
X106032958Y-112776091D01*
X105764895Y-112676109D01*
X105485362Y-112615300D01*
X105200001Y-112594891D01*
X105199999Y-112594891D01*
X104914637Y-112615300D01*
X104635104Y-112676109D01*
X104367041Y-112776091D01*
X104115961Y-112913191D01*
X104115953Y-112913196D01*
X103973437Y-113019882D01*
X103973436Y-113019883D01*
X104783174Y-113829620D01*
X104667350Y-113899311D01*
X104529175Y-114030196D01*
X104427137Y-114180691D01*
X103619882Y-113373436D01*
X103513196Y-113515953D01*
X103513191Y-113515961D01*
X103376091Y-113767041D01*
X103276109Y-114035104D01*
X103215300Y-114314637D01*
X103194891Y-114599998D01*
X103194891Y-114600001D01*
X100000500Y-114600001D01*
X100000500Y-109340000D01*
X144456186Y-109340000D01*
X144476601Y-109573346D01*
X144476603Y-109573356D01*
X144537225Y-109799603D01*
X144537227Y-109799607D01*
X144537228Y-109799611D01*
X144636223Y-110011907D01*
X144770579Y-110203787D01*
X144936213Y-110369421D01*
X145128093Y-110503777D01*
X145340389Y-110602772D01*
X145566649Y-110663398D01*
X145753329Y-110679730D01*
X145799999Y-110683814D01*
X145800000Y-110683814D01*
X145800001Y-110683814D01*
X145838891Y-110680411D01*
X146033351Y-110663398D01*
X146259611Y-110602772D01*
X146471907Y-110503777D01*
X146663787Y-110369421D01*
X146829421Y-110203787D01*
X146963777Y-110011907D01*
X147062772Y-109799611D01*
X147123398Y-109573351D01*
X147143814Y-109340000D01*
X147123398Y-109106649D01*
X147062772Y-108880389D01*
X147062591Y-108880000D01*
X149304341Y-108880000D01*
X149324936Y-109115403D01*
X149324938Y-109115413D01*
X149386094Y-109343655D01*
X149386096Y-109343659D01*
X149386097Y-109343663D01*
X149390000Y-109352032D01*
X149485965Y-109557830D01*
X149485967Y-109557834D01*
X149496836Y-109573356D01*
X149621505Y-109751401D01*
X149788599Y-109918495D01*
X149955439Y-110035318D01*
X149974594Y-110048730D01*
X150018219Y-110103307D01*
X150025413Y-110172805D01*
X149993890Y-110235160D01*
X149974595Y-110251880D01*
X149788922Y-110381890D01*
X149788920Y-110381891D01*
X149621891Y-110548920D01*
X149621886Y-110548926D01*
X149486400Y-110742420D01*
X149486399Y-110742422D01*
X149386570Y-110956507D01*
X149386567Y-110956513D01*
X149329364Y-111169999D01*
X149329364Y-111170000D01*
X150226314Y-111170000D01*
X150200507Y-111210156D01*
X150160000Y-111348111D01*
X150160000Y-111491889D01*
X150200507Y-111629844D01*
X150226314Y-111670000D01*
X149329364Y-111670000D01*
X149386567Y-111883486D01*
X149386570Y-111883492D01*
X149486399Y-112097578D01*
X149621894Y-112291082D01*
X149788917Y-112458105D01*
X149982421Y-112593600D01*
X150196507Y-112693429D01*
X150196516Y-112693433D01*
X150410000Y-112750634D01*
X150410000Y-111855501D01*
X150517685Y-111904680D01*
X150624237Y-111920000D01*
X150695763Y-111920000D01*
X150802315Y-111904680D01*
X150910000Y-111855501D01*
X150910000Y-112750633D01*
X151123483Y-112693433D01*
X151123492Y-112693429D01*
X151337578Y-112593600D01*
X151531078Y-112458108D01*
X151653133Y-112336053D01*
X151714456Y-112302568D01*
X151784148Y-112307552D01*
X151840082Y-112349423D01*
X151856997Y-112380401D01*
X151906202Y-112512328D01*
X151906206Y-112512335D01*
X151992452Y-112627544D01*
X151992455Y-112627547D01*
X152107664Y-112713793D01*
X152107671Y-112713797D01*
X152242517Y-112764091D01*
X152242516Y-112764091D01*
X152249444Y-112764835D01*
X152302127Y-112770500D01*
X154097872Y-112770499D01*
X154157483Y-112764091D01*
X154292331Y-112713796D01*
X154407546Y-112627546D01*
X154493796Y-112512331D01*
X154544091Y-112377483D01*
X154550500Y-112317873D01*
X154550499Y-110522128D01*
X154544091Y-110462517D01*
X154543002Y-110459598D01*
X154493797Y-110327671D01*
X154493793Y-110327664D01*
X154407547Y-110212455D01*
X154407544Y-110212452D01*
X154292335Y-110126206D01*
X154292328Y-110126202D01*
X154160917Y-110077189D01*
X154104983Y-110035318D01*
X154080566Y-109969853D01*
X154095418Y-109901580D01*
X154116563Y-109873332D01*
X154238495Y-109751401D01*
X154374035Y-109557830D01*
X154473903Y-109343663D01*
X154535063Y-109115408D01*
X154555659Y-108880000D01*
X154535063Y-108644592D01*
X154473903Y-108416337D01*
X154374035Y-108202171D01*
X154368425Y-108194158D01*
X154238494Y-108008597D01*
X154071402Y-107841506D01*
X154071396Y-107841501D01*
X153885842Y-107711575D01*
X153842217Y-107656998D01*
X153835023Y-107587500D01*
X153866546Y-107525145D01*
X153885842Y-107508425D01*
X153937996Y-107471906D01*
X154071401Y-107378495D01*
X154238495Y-107211401D01*
X154374035Y-107017830D01*
X154473903Y-106803663D01*
X154535063Y-106575408D01*
X154555659Y-106340000D01*
X154535063Y-106104592D01*
X154473903Y-105876337D01*
X154374035Y-105662171D01*
X154368425Y-105654158D01*
X154238494Y-105468597D01*
X154071402Y-105301506D01*
X154071396Y-105301501D01*
X153885842Y-105171575D01*
X153842217Y-105116998D01*
X153835023Y-105047500D01*
X153866546Y-104985145D01*
X153885842Y-104968425D01*
X153937996Y-104931906D01*
X154071401Y-104838495D01*
X154238495Y-104671401D01*
X154374035Y-104477830D01*
X154473903Y-104263663D01*
X154535063Y-104035408D01*
X154555659Y-103800000D01*
X154535063Y-103564592D01*
X154473903Y-103336337D01*
X154374035Y-103122171D01*
X154368425Y-103114158D01*
X154238494Y-102928597D01*
X154071402Y-102761506D01*
X154071395Y-102761501D01*
X153877834Y-102625967D01*
X153877830Y-102625965D01*
X153877828Y-102625964D01*
X153663663Y-102526097D01*
X153663659Y-102526096D01*
X153663655Y-102526094D01*
X153435413Y-102464938D01*
X153435403Y-102464936D01*
X153200001Y-102444341D01*
X153199999Y-102444341D01*
X152964596Y-102464936D01*
X152964586Y-102464938D01*
X152736344Y-102526094D01*
X152736335Y-102526098D01*
X152522171Y-102625964D01*
X152522169Y-102625965D01*
X152328597Y-102761505D01*
X152161505Y-102928597D01*
X152031575Y-103114158D01*
X151976998Y-103157783D01*
X151907500Y-103164977D01*
X151845145Y-103133454D01*
X151828425Y-103114158D01*
X151698494Y-102928597D01*
X151531402Y-102761506D01*
X151531395Y-102761501D01*
X151337834Y-102625967D01*
X151337830Y-102625965D01*
X151337828Y-102625964D01*
X151123663Y-102526097D01*
X151123659Y-102526096D01*
X151123655Y-102526094D01*
X150895413Y-102464938D01*
X150895403Y-102464936D01*
X150660001Y-102444341D01*
X150659999Y-102444341D01*
X150424596Y-102464936D01*
X150424586Y-102464938D01*
X150196344Y-102526094D01*
X150196335Y-102526098D01*
X149982171Y-102625964D01*
X149982169Y-102625965D01*
X149788597Y-102761505D01*
X149621505Y-102928597D01*
X149485965Y-103122169D01*
X149485964Y-103122171D01*
X149386098Y-103336335D01*
X149386094Y-103336344D01*
X149324938Y-103564586D01*
X149324936Y-103564596D01*
X149304341Y-103799999D01*
X149304341Y-103800000D01*
X149324936Y-104035403D01*
X149324938Y-104035413D01*
X149386094Y-104263655D01*
X149386096Y-104263659D01*
X149386097Y-104263663D01*
X149390000Y-104272032D01*
X149485965Y-104477830D01*
X149485967Y-104477834D01*
X149496836Y-104493356D01*
X149621501Y-104671396D01*
X149621506Y-104671402D01*
X149788597Y-104838493D01*
X149788603Y-104838498D01*
X149974158Y-104968425D01*
X150017783Y-105023002D01*
X150024977Y-105092500D01*
X149993454Y-105154855D01*
X149974158Y-105171575D01*
X149788597Y-105301505D01*
X149621505Y-105468597D01*
X149485965Y-105662169D01*
X149485964Y-105662171D01*
X149386098Y-105876335D01*
X149386094Y-105876344D01*
X149324938Y-106104586D01*
X149324936Y-106104596D01*
X149304341Y-106339999D01*
X149304341Y-106340000D01*
X149324936Y-106575403D01*
X149324938Y-106575413D01*
X149386094Y-106803655D01*
X149386096Y-106803659D01*
X149386097Y-106803663D01*
X149390000Y-106812032D01*
X149485965Y-107017830D01*
X149485967Y-107017834D01*
X149496836Y-107033356D01*
X149621501Y-107211396D01*
X149621506Y-107211402D01*
X149788597Y-107378493D01*
X149788603Y-107378498D01*
X149974158Y-107508425D01*
X150017783Y-107563002D01*
X150024977Y-107632500D01*
X149993454Y-107694855D01*
X149974158Y-107711575D01*
X149788597Y-107841505D01*
X149621505Y-108008597D01*
X149485965Y-108202169D01*
X149485964Y-108202171D01*
X149386098Y-108416335D01*
X149386094Y-108416344D01*
X149324938Y-108644586D01*
X149324936Y-108644596D01*
X149304341Y-108879999D01*
X149304341Y-108880000D01*
X147062591Y-108880000D01*
X146963777Y-108668093D01*
X146829421Y-108476213D01*
X146663787Y-108310579D01*
X146471907Y-108176223D01*
X146471905Y-108176222D01*
X146467472Y-108173118D01*
X146468481Y-108171676D01*
X146425712Y-108126828D01*
X146412484Y-108058222D01*
X146438447Y-107993355D01*
X146468048Y-107967705D01*
X146467472Y-107966882D01*
X146471905Y-107963777D01*
X146471907Y-107963777D01*
X146663787Y-107829421D01*
X146829421Y-107663787D01*
X146963777Y-107471907D01*
X147062772Y-107259611D01*
X147123398Y-107033351D01*
X147143814Y-106800000D01*
X147123398Y-106566649D01*
X147062772Y-106340389D01*
X146963777Y-106128093D01*
X146829421Y-105936213D01*
X146663787Y-105770579D01*
X146471907Y-105636223D01*
X146471905Y-105636222D01*
X146467472Y-105633118D01*
X146468481Y-105631676D01*
X146425712Y-105586828D01*
X146412484Y-105518222D01*
X146438447Y-105453355D01*
X146468048Y-105427705D01*
X146467472Y-105426882D01*
X146471905Y-105423777D01*
X146471907Y-105423777D01*
X146663787Y-105289421D01*
X146829421Y-105123787D01*
X146963777Y-104931907D01*
X147062772Y-104719611D01*
X147123398Y-104493351D01*
X147143814Y-104260000D01*
X147123398Y-104026649D01*
X147062772Y-103800389D01*
X146963777Y-103588093D01*
X146829421Y-103396213D01*
X146663787Y-103230579D01*
X146471907Y-103096223D01*
X146259611Y-102997228D01*
X146259607Y-102997227D01*
X146259603Y-102997225D01*
X146033356Y-102936603D01*
X146033346Y-102936601D01*
X145800001Y-102916186D01*
X145799999Y-102916186D01*
X145566653Y-102936601D01*
X145566643Y-102936603D01*
X145340396Y-102997225D01*
X145340389Y-102997227D01*
X145340389Y-102997228D01*
X145128093Y-103096223D01*
X144936213Y-103230579D01*
X144936211Y-103230580D01*
X144936208Y-103230583D01*
X144770583Y-103396208D01*
X144636223Y-103588093D01*
X144537229Y-103800387D01*
X144537225Y-103800396D01*
X144476603Y-104026643D01*
X144476601Y-104026653D01*
X144456186Y-104259999D01*
X144456186Y-104260000D01*
X144476601Y-104493346D01*
X144476603Y-104493356D01*
X144537225Y-104719603D01*
X144537227Y-104719607D01*
X144537228Y-104719611D01*
X144636223Y-104931907D01*
X144770579Y-105123787D01*
X144936213Y-105289421D01*
X145128093Y-105423777D01*
X145128094Y-105423777D01*
X145132528Y-105426882D01*
X145131521Y-105428319D01*
X145174297Y-105473190D01*
X145187513Y-105541798D01*
X145161540Y-105606660D01*
X145131953Y-105632297D01*
X145132528Y-105633118D01*
X145128094Y-105636222D01*
X145128093Y-105636223D01*
X144936213Y-105770579D01*
X144936211Y-105770580D01*
X144936208Y-105770583D01*
X144770583Y-105936208D01*
X144636223Y-106128093D01*
X144537229Y-106340387D01*
X144537225Y-106340396D01*
X144476603Y-106566643D01*
X144476601Y-106566653D01*
X144456186Y-106799999D01*
X144456186Y-106800000D01*
X144476601Y-107033346D01*
X144476603Y-107033356D01*
X144537225Y-107259603D01*
X144537227Y-107259607D01*
X144537228Y-107259611D01*
X144636223Y-107471907D01*
X144770579Y-107663787D01*
X144936213Y-107829421D01*
X145128093Y-107963777D01*
X145128094Y-107963777D01*
X145132528Y-107966882D01*
X145131521Y-107968319D01*
X145174297Y-108013190D01*
X145187513Y-108081798D01*
X145161540Y-108146660D01*
X145131953Y-108172297D01*
X145132528Y-108173118D01*
X145128094Y-108176222D01*
X145128093Y-108176223D01*
X144936213Y-108310579D01*
X144936211Y-108310580D01*
X144936208Y-108310583D01*
X144770583Y-108476208D01*
X144636223Y-108668093D01*
X144537229Y-108880387D01*
X144537225Y-108880396D01*
X144476603Y-109106643D01*
X144476601Y-109106653D01*
X144456186Y-109339999D01*
X144456186Y-109340000D01*
X100000500Y-109340000D01*
X100000500Y-100124500D01*
X100020185Y-100057461D01*
X100072989Y-100011706D01*
X100124500Y-100000500D01*
X154875500Y-100000500D01*
X154942539Y-100020185D01*
G37*
%TD.AperFunction*%
%TD*%
M02*
