%TF.GenerationSoftware,KiCad,Pcbnew,7.0.8*%
%TF.CreationDate,2024-04-14T20:32:09+02:00*%
%TF.ProjectId,LED_Driver,4c45445f-4472-4697-9665-722e6b696361,rev?*%
%TF.SameCoordinates,Original*%
%TF.FileFunction,Soldermask,Top*%
%TF.FilePolarity,Negative*%
%FSLAX46Y46*%
G04 Gerber Fmt 4.6, Leading zero omitted, Abs format (unit mm)*
G04 Created by KiCad (PCBNEW 7.0.8) date 2024-04-14 20:32:09*
%MOMM*%
%LPD*%
G01*
G04 APERTURE LIST*
G04 Aperture macros list*
%AMRoundRect*
0 Rectangle with rounded corners*
0 $1 Rounding radius*
0 $2 $3 $4 $5 $6 $7 $8 $9 X,Y pos of 4 corners*
0 Add a 4 corners polygon primitive as box body*
4,1,4,$2,$3,$4,$5,$6,$7,$8,$9,$2,$3,0*
0 Add four circle primitives for the rounded corners*
1,1,$1+$1,$2,$3*
1,1,$1+$1,$4,$5*
1,1,$1+$1,$6,$7*
1,1,$1+$1,$8,$9*
0 Add four rect primitives between the rounded corners*
20,1,$1+$1,$2,$3,$4,$5,0*
20,1,$1+$1,$4,$5,$6,$7,0*
20,1,$1+$1,$6,$7,$8,$9,0*
20,1,$1+$1,$8,$9,$2,$3,0*%
G04 Aperture macros list end*
%ADD10R,2.700000X3.600000*%
%ADD11C,2.500000*%
%ADD12C,1.676400*%
%ADD13RoundRect,0.250000X0.262500X0.450000X-0.262500X0.450000X-0.262500X-0.450000X0.262500X-0.450000X0*%
%ADD14R,1.050000X1.500000*%
%ADD15O,1.050000X1.500000*%
%ADD16RoundRect,0.150000X0.150000X-0.587500X0.150000X0.587500X-0.150000X0.587500X-0.150000X-0.587500X0*%
%ADD17RoundRect,0.250000X-0.450000X0.262500X-0.450000X-0.262500X0.450000X-0.262500X0.450000X0.262500X0*%
%ADD18RoundRect,0.250000X1.500000X0.550000X-1.500000X0.550000X-1.500000X-0.550000X1.500000X-0.550000X0*%
%ADD19R,1.600000X1.600000*%
%ADD20C,1.600000*%
%ADD21RoundRect,0.237500X0.237500X-0.300000X0.237500X0.300000X-0.237500X0.300000X-0.237500X-0.300000X0*%
%ADD22RoundRect,0.237500X-0.237500X0.300000X-0.237500X-0.300000X0.237500X-0.300000X0.237500X0.300000X0*%
%ADD23RoundRect,0.250000X-0.262500X-0.450000X0.262500X-0.450000X0.262500X0.450000X-0.262500X0.450000X0*%
%ADD24R,1.700000X1.700000*%
%ADD25O,1.700000X1.700000*%
%ADD26R,3.000000X3.000000*%
%ADD27C,3.000000*%
%ADD28R,1.500000X2.000000*%
%ADD29R,3.800000X2.000000*%
%ADD30RoundRect,0.237500X0.300000X0.237500X-0.300000X0.237500X-0.300000X-0.237500X0.300000X-0.237500X0*%
%ADD31RoundRect,0.250000X1.000000X0.650000X-1.000000X0.650000X-1.000000X-0.650000X1.000000X-0.650000X0*%
%ADD32RoundRect,0.225000X-0.375000X0.225000X-0.375000X-0.225000X0.375000X-0.225000X0.375000X0.225000X0*%
%ADD33RoundRect,0.150000X-0.825000X-0.150000X0.825000X-0.150000X0.825000X0.150000X-0.825000X0.150000X0*%
%ADD34RoundRect,0.150000X-0.587500X-0.150000X0.587500X-0.150000X0.587500X0.150000X-0.587500X0.150000X0*%
%ADD35RoundRect,0.225000X0.225000X0.375000X-0.225000X0.375000X-0.225000X-0.375000X0.225000X-0.375000X0*%
%ADD36RoundRect,0.250000X2.050000X0.300000X-2.050000X0.300000X-2.050000X-0.300000X2.050000X-0.300000X0*%
%ADD37RoundRect,0.250002X4.449998X5.149998X-4.449998X5.149998X-4.449998X-5.149998X4.449998X-5.149998X0*%
%ADD38RoundRect,0.250000X-0.450000X0.350000X-0.450000X-0.350000X0.450000X-0.350000X0.450000X0.350000X0*%
%ADD39C,4.000000*%
%ADD40C,1.800000*%
G04 APERTURE END LIST*
D10*
%TO.C,L1*%
X123450000Y-115800000D03*
X131750000Y-115800000D03*
%TD*%
D11*
%TO.C,H1*%
X127500000Y-127000000D03*
%TD*%
D12*
%TO.C,SW2*%
X145800000Y-109340000D03*
X145800000Y-106800000D03*
X145800000Y-104260000D03*
%TD*%
D13*
%TO.C,R4*%
X111912500Y-119600000D03*
X110087500Y-119600000D03*
%TD*%
D14*
%TO.C,Q2*%
X110730000Y-127760000D03*
D15*
X112000000Y-127760000D03*
X113270000Y-127760000D03*
%TD*%
D13*
%TO.C,R6*%
X117512500Y-126800000D03*
X115687500Y-126800000D03*
%TD*%
D16*
%TO.C,Q1*%
X110050000Y-123675000D03*
X111950000Y-123675000D03*
X111000000Y-121800000D03*
%TD*%
D17*
%TO.C,R8*%
X123600000Y-126687500D03*
X123600000Y-128512500D03*
%TD*%
D18*
%TO.C,C2*%
X125700000Y-106000000D03*
X120300000Y-106000000D03*
%TD*%
D19*
%TO.C,C1*%
X115397349Y-119400000D03*
D20*
X119197349Y-119400000D03*
%TD*%
D21*
%TO.C,C4*%
X142800000Y-114062500D03*
X142800000Y-112337500D03*
%TD*%
D13*
%TO.C,R5*%
X123512500Y-101200000D03*
X121687500Y-101200000D03*
%TD*%
D22*
%TO.C,C7*%
X130800000Y-102137500D03*
X130800000Y-103862500D03*
%TD*%
D23*
%TO.C,R1*%
X117975000Y-101200000D03*
X119800000Y-101200000D03*
%TD*%
D24*
%TO.C,SW1*%
X111000000Y-116675000D03*
D25*
X111000000Y-114135000D03*
%TD*%
D26*
%TO.C,J1*%
X105200000Y-118100000D03*
D27*
X105200000Y-114600000D03*
%TD*%
D28*
%TO.C,U3*%
X133100000Y-101450000D03*
D29*
X135400000Y-107750000D03*
D28*
X135400000Y-101450000D03*
X137700000Y-101450000D03*
%TD*%
D30*
%TO.C,C5*%
X139262500Y-123200000D03*
X137537500Y-123200000D03*
%TD*%
D31*
%TO.C,D1*%
X119200000Y-113400000D03*
X115200000Y-113400000D03*
%TD*%
D32*
%TO.C,D3*%
X139000000Y-117950000D03*
X139000000Y-121250000D03*
%TD*%
D24*
%TO.C,U4*%
X153200000Y-111420000D03*
D25*
X150660000Y-111420000D03*
X153200000Y-108880000D03*
X150660000Y-108880000D03*
X153200000Y-106340000D03*
X150660000Y-106340000D03*
X153200000Y-103800000D03*
X150660000Y-103800000D03*
%TD*%
D33*
%TO.C,U2*%
X135725000Y-111295000D03*
X135725000Y-112565000D03*
X135725000Y-113835000D03*
X135725000Y-115105000D03*
X140675000Y-115105000D03*
X140675000Y-113835000D03*
X140675000Y-112565000D03*
X140675000Y-111295000D03*
%TD*%
D21*
%TO.C,C8*%
X140000000Y-105525000D03*
X140000000Y-103800000D03*
%TD*%
D22*
%TO.C,C6*%
X129000000Y-103862500D03*
X129000000Y-102137500D03*
%TD*%
D34*
%TO.C,Q3*%
X119525000Y-124650000D03*
X119525000Y-126550000D03*
X121400000Y-125600000D03*
%TD*%
D21*
%TO.C,C9*%
X141800000Y-105525000D03*
X141800000Y-103800000D03*
%TD*%
D23*
%TO.C,R7*%
X115687500Y-129000000D03*
X117512500Y-129000000D03*
%TD*%
D35*
%TO.C,D2*%
X139200000Y-125600000D03*
X135900000Y-125600000D03*
%TD*%
D27*
%TO.C,J2*%
X105200000Y-123800000D03*
D26*
X105200000Y-127300000D03*
%TD*%
D36*
%TO.C,U1*%
X114400000Y-109200000D03*
X114400000Y-107500000D03*
X114400000Y-105800000D03*
D37*
X105250000Y-105800000D03*
D36*
X114400000Y-104100000D03*
X114400000Y-102400000D03*
%TD*%
D38*
%TO.C,R2*%
X135600000Y-117200000D03*
X135600000Y-119200000D03*
%TD*%
D39*
%TO.C,RV1*%
X148600000Y-118700000D03*
X148600000Y-127500000D03*
D40*
X141600000Y-125600000D03*
X141600000Y-123100000D03*
X141600000Y-120600000D03*
%TD*%
D13*
%TO.C,R3*%
X117512500Y-124600000D03*
X115687500Y-124600000D03*
%TD*%
M02*
