%TF.GenerationSoftware,KiCad,Pcbnew,7.0.8*%
%TF.CreationDate,2024-04-14T20:32:09+02:00*%
%TF.ProjectId,LED_Driver,4c45445f-4472-4697-9665-722e6b696361,rev?*%
%TF.SameCoordinates,Original*%
%TF.FileFunction,Copper,L1,Top*%
%TF.FilePolarity,Positive*%
%FSLAX46Y46*%
G04 Gerber Fmt 4.6, Leading zero omitted, Abs format (unit mm)*
G04 Created by KiCad (PCBNEW 7.0.8) date 2024-04-14 20:32:09*
%MOMM*%
%LPD*%
G01*
G04 APERTURE LIST*
G04 Aperture macros list*
%AMRoundRect*
0 Rectangle with rounded corners*
0 $1 Rounding radius*
0 $2 $3 $4 $5 $6 $7 $8 $9 X,Y pos of 4 corners*
0 Add a 4 corners polygon primitive as box body*
4,1,4,$2,$3,$4,$5,$6,$7,$8,$9,$2,$3,0*
0 Add four circle primitives for the rounded corners*
1,1,$1+$1,$2,$3*
1,1,$1+$1,$4,$5*
1,1,$1+$1,$6,$7*
1,1,$1+$1,$8,$9*
0 Add four rect primitives between the rounded corners*
20,1,$1+$1,$2,$3,$4,$5,0*
20,1,$1+$1,$4,$5,$6,$7,0*
20,1,$1+$1,$6,$7,$8,$9,0*
20,1,$1+$1,$8,$9,$2,$3,0*%
G04 Aperture macros list end*
%TA.AperFunction,SMDPad,CuDef*%
%ADD10R,2.700000X3.600000*%
%TD*%
%TA.AperFunction,ComponentPad*%
%ADD11C,1.676400*%
%TD*%
%TA.AperFunction,SMDPad,CuDef*%
%ADD12RoundRect,0.250000X0.262500X0.450000X-0.262500X0.450000X-0.262500X-0.450000X0.262500X-0.450000X0*%
%TD*%
%TA.AperFunction,ComponentPad*%
%ADD13R,1.050000X1.500000*%
%TD*%
%TA.AperFunction,ComponentPad*%
%ADD14O,1.050000X1.500000*%
%TD*%
%TA.AperFunction,SMDPad,CuDef*%
%ADD15RoundRect,0.150000X0.150000X-0.587500X0.150000X0.587500X-0.150000X0.587500X-0.150000X-0.587500X0*%
%TD*%
%TA.AperFunction,SMDPad,CuDef*%
%ADD16RoundRect,0.250000X-0.450000X0.262500X-0.450000X-0.262500X0.450000X-0.262500X0.450000X0.262500X0*%
%TD*%
%TA.AperFunction,SMDPad,CuDef*%
%ADD17RoundRect,0.250000X1.500000X0.550000X-1.500000X0.550000X-1.500000X-0.550000X1.500000X-0.550000X0*%
%TD*%
%TA.AperFunction,ComponentPad*%
%ADD18R,1.600000X1.600000*%
%TD*%
%TA.AperFunction,ComponentPad*%
%ADD19C,1.600000*%
%TD*%
%TA.AperFunction,SMDPad,CuDef*%
%ADD20RoundRect,0.237500X0.237500X-0.300000X0.237500X0.300000X-0.237500X0.300000X-0.237500X-0.300000X0*%
%TD*%
%TA.AperFunction,SMDPad,CuDef*%
%ADD21RoundRect,0.237500X-0.237500X0.300000X-0.237500X-0.300000X0.237500X-0.300000X0.237500X0.300000X0*%
%TD*%
%TA.AperFunction,SMDPad,CuDef*%
%ADD22RoundRect,0.250000X-0.262500X-0.450000X0.262500X-0.450000X0.262500X0.450000X-0.262500X0.450000X0*%
%TD*%
%TA.AperFunction,ComponentPad*%
%ADD23R,1.700000X1.700000*%
%TD*%
%TA.AperFunction,ComponentPad*%
%ADD24O,1.700000X1.700000*%
%TD*%
%TA.AperFunction,ComponentPad*%
%ADD25R,3.000000X3.000000*%
%TD*%
%TA.AperFunction,ComponentPad*%
%ADD26C,3.000000*%
%TD*%
%TA.AperFunction,SMDPad,CuDef*%
%ADD27R,1.500000X2.000000*%
%TD*%
%TA.AperFunction,SMDPad,CuDef*%
%ADD28R,3.800000X2.000000*%
%TD*%
%TA.AperFunction,SMDPad,CuDef*%
%ADD29RoundRect,0.237500X0.300000X0.237500X-0.300000X0.237500X-0.300000X-0.237500X0.300000X-0.237500X0*%
%TD*%
%TA.AperFunction,SMDPad,CuDef*%
%ADD30RoundRect,0.250000X1.000000X0.650000X-1.000000X0.650000X-1.000000X-0.650000X1.000000X-0.650000X0*%
%TD*%
%TA.AperFunction,SMDPad,CuDef*%
%ADD31RoundRect,0.225000X-0.375000X0.225000X-0.375000X-0.225000X0.375000X-0.225000X0.375000X0.225000X0*%
%TD*%
%TA.AperFunction,SMDPad,CuDef*%
%ADD32RoundRect,0.150000X-0.825000X-0.150000X0.825000X-0.150000X0.825000X0.150000X-0.825000X0.150000X0*%
%TD*%
%TA.AperFunction,SMDPad,CuDef*%
%ADD33RoundRect,0.150000X-0.587500X-0.150000X0.587500X-0.150000X0.587500X0.150000X-0.587500X0.150000X0*%
%TD*%
%TA.AperFunction,SMDPad,CuDef*%
%ADD34RoundRect,0.225000X0.225000X0.375000X-0.225000X0.375000X-0.225000X-0.375000X0.225000X-0.375000X0*%
%TD*%
%TA.AperFunction,SMDPad,CuDef*%
%ADD35RoundRect,0.250000X2.050000X0.300000X-2.050000X0.300000X-2.050000X-0.300000X2.050000X-0.300000X0*%
%TD*%
%TA.AperFunction,SMDPad,CuDef*%
%ADD36RoundRect,0.250000X2.025000X2.375000X-2.025000X2.375000X-2.025000X-2.375000X2.025000X-2.375000X0*%
%TD*%
%TA.AperFunction,SMDPad,CuDef*%
%ADD37RoundRect,0.250002X4.449998X5.149998X-4.449998X5.149998X-4.449998X-5.149998X4.449998X-5.149998X0*%
%TD*%
%TA.AperFunction,SMDPad,CuDef*%
%ADD38RoundRect,0.250000X-0.450000X0.350000X-0.450000X-0.350000X0.450000X-0.350000X0.450000X0.350000X0*%
%TD*%
%TA.AperFunction,WasherPad*%
%ADD39C,4.000000*%
%TD*%
%TA.AperFunction,ComponentPad*%
%ADD40C,1.800000*%
%TD*%
%TA.AperFunction,ViaPad*%
%ADD41C,0.700000*%
%TD*%
%TA.AperFunction,Conductor*%
%ADD42C,0.500000*%
%TD*%
%TA.AperFunction,Conductor*%
%ADD43C,0.300000*%
%TD*%
G04 APERTURE END LIST*
D10*
%TO.P,L1,1*%
%TO.N,/OUT*%
X123450000Y-115800000D03*
%TO.P,L1,2*%
%TO.N,+5V*%
X131750000Y-115800000D03*
%TD*%
D11*
%TO.P,SW2,3,C*%
%TO.N,ESP-01_GPIO1*%
X145800000Y-109340000D03*
%TO.P,SW2,2,B*%
%TO.N,+3.3V*%
X145800000Y-106800000D03*
%TO.P,SW2,1,A*%
%TO.N,ESP-01_EN*%
X145800000Y-104260000D03*
%TD*%
D12*
%TO.P,R4,1*%
%TO.N,Net-(Q1-G)*%
X111912500Y-119600000D03*
%TO.P,R4,2*%
%TO.N,GND*%
X110087500Y-119600000D03*
%TD*%
D13*
%TO.P,Q2,1,C*%
%TO.N,LOAD_OUT*%
X110730000Y-127760000D03*
D14*
%TO.P,Q2,2,B*%
%TO.N,Net-(Q2-B)*%
X112000000Y-127760000D03*
%TO.P,Q2,3,E*%
%TO.N,GND*%
X113270000Y-127760000D03*
%TD*%
D12*
%TO.P,R6,1*%
%TO.N,Net-(Q3-S)*%
X117512500Y-126800000D03*
%TO.P,R6,2*%
%TO.N,Net-(Q2-B)*%
X115687500Y-126800000D03*
%TD*%
D15*
%TO.P,Q1,1,D*%
%TO.N,LOAD_OUT*%
X110050000Y-123675000D03*
%TO.P,Q1,2,G*%
%TO.N,Net-(Q1-G)*%
X111950000Y-123675000D03*
%TO.P,Q1,3,S*%
%TO.N,GND*%
X111000000Y-121800000D03*
%TD*%
D16*
%TO.P,R8,1*%
%TO.N,ESP-01_GPIO1*%
X123600000Y-126687500D03*
%TO.P,R8,2*%
%TO.N,GND*%
X123600000Y-128512500D03*
%TD*%
D17*
%TO.P,C2,1*%
%TO.N,+5V*%
X125700000Y-106000000D03*
%TO.P,C2,2*%
%TO.N,GND*%
X120300000Y-106000000D03*
%TD*%
D18*
%TO.P,C1,1*%
%TO.N,VDC*%
X115397349Y-119400000D03*
D19*
%TO.P,C1,2*%
%TO.N,GND*%
X119197349Y-119400000D03*
%TD*%
D20*
%TO.P,C4,1*%
%TO.N,Net-(U2-CV)*%
X142800000Y-114062500D03*
%TO.P,C4,2*%
%TO.N,GND*%
X142800000Y-112337500D03*
%TD*%
D12*
%TO.P,R5,1*%
%TO.N,+5V*%
X123512500Y-101200000D03*
%TO.P,R5,2*%
%TO.N,/FB*%
X121687500Y-101200000D03*
%TD*%
D21*
%TO.P,C7,1*%
%TO.N,+5V*%
X130800000Y-102137500D03*
%TO.P,C7,2*%
%TO.N,GND*%
X130800000Y-103862500D03*
%TD*%
D22*
%TO.P,R1,1*%
%TO.N,GND*%
X117975000Y-101200000D03*
%TO.P,R1,2*%
%TO.N,/FB*%
X119800000Y-101200000D03*
%TD*%
D23*
%TO.P,SW1,1,A*%
%TO.N,VDC*%
X111000000Y-116675000D03*
D24*
%TO.P,SW1,2,B*%
%TO.N,Net-(J1-Pin_1)*%
X111000000Y-114135000D03*
%TD*%
D25*
%TO.P,J1,1,Pin_1*%
%TO.N,Net-(J1-Pin_1)*%
X105200000Y-118100000D03*
D26*
%TO.P,J1,2,Pin_2*%
%TO.N,GND*%
X105200000Y-114600000D03*
%TD*%
D27*
%TO.P,U3,3,VI*%
%TO.N,+5V*%
X133100000Y-101450000D03*
D28*
%TO.P,U3,2,VO*%
%TO.N,+3.3V*%
X135400000Y-107750000D03*
D27*
X135400000Y-101450000D03*
%TO.P,U3,1,GND*%
%TO.N,GND*%
X137700000Y-101450000D03*
%TD*%
D29*
%TO.P,C5,1*%
%TO.N,Net-(U2-THR)*%
X139262500Y-123200000D03*
%TO.P,C5,2*%
%TO.N,GND*%
X137537500Y-123200000D03*
%TD*%
D30*
%TO.P,D1,1,K*%
%TO.N,/OUT*%
X119200000Y-113400000D03*
%TO.P,D1,2,A*%
%TO.N,GND*%
X115200000Y-113400000D03*
%TD*%
D31*
%TO.P,D3,1,K*%
%TO.N,Net-(D2-A)*%
X139000000Y-117950000D03*
%TO.P,D3,2,A*%
%TO.N,Net-(D3-A)*%
X139000000Y-121250000D03*
%TD*%
D23*
%TO.P,U4,1,UTXD*%
%TO.N,ESP-01_GPIO1*%
X153200000Y-111420000D03*
D24*
%TO.P,U4,2,GND*%
%TO.N,GND*%
X150660000Y-111420000D03*
%TO.P,U4,3,CH_PD*%
%TO.N,ESP-01_EN*%
X153200000Y-108880000D03*
%TO.P,U4,4,GPIO2*%
X150660000Y-108880000D03*
%TO.P,U4,5,RST*%
%TO.N,unconnected-(U4-RST-Pad5)*%
X153200000Y-106340000D03*
%TO.P,U4,6,GPIO0*%
%TO.N,ESP-01_EN*%
X150660000Y-106340000D03*
%TO.P,U4,7,VCC*%
X153200000Y-103800000D03*
%TO.P,U4,8,URXD*%
%TO.N,unconnected-(U4-URXD-Pad8)*%
X150660000Y-103800000D03*
%TD*%
D32*
%TO.P,U2,1,GND*%
%TO.N,GND*%
X135725000Y-111295000D03*
%TO.P,U2,2,TR*%
%TO.N,Net-(U2-THR)*%
X135725000Y-112565000D03*
%TO.P,U2,3,Q*%
%TO.N,PWM*%
X135725000Y-113835000D03*
%TO.P,U2,4,R*%
%TO.N,+5V*%
X135725000Y-115105000D03*
%TO.P,U2,5,CV*%
%TO.N,Net-(U2-CV)*%
X140675000Y-115105000D03*
%TO.P,U2,6,THR*%
%TO.N,Net-(U2-THR)*%
X140675000Y-113835000D03*
%TO.P,U2,7,DIS*%
%TO.N,Net-(D2-A)*%
X140675000Y-112565000D03*
%TO.P,U2,8,VCC*%
%TO.N,+5V*%
X140675000Y-111295000D03*
%TD*%
D20*
%TO.P,C8,1*%
%TO.N,+3.3V*%
X140000000Y-105525000D03*
%TO.P,C8,2*%
%TO.N,GND*%
X140000000Y-103800000D03*
%TD*%
D21*
%TO.P,C6,2*%
%TO.N,GND*%
X129000000Y-103862500D03*
%TO.P,C6,1*%
%TO.N,+5V*%
X129000000Y-102137500D03*
%TD*%
D33*
%TO.P,Q3,1,D*%
%TO.N,PWM*%
X119525000Y-124650000D03*
%TO.P,Q3,2,G*%
%TO.N,ESP-01_GPIO1*%
X119525000Y-126550000D03*
%TO.P,Q3,3,S*%
%TO.N,Net-(Q3-S)*%
X121400000Y-125600000D03*
%TD*%
D20*
%TO.P,C9,1*%
%TO.N,+3.3V*%
X141800000Y-105525000D03*
%TO.P,C9,2*%
%TO.N,GND*%
X141800000Y-103800000D03*
%TD*%
D22*
%TO.P,R7,1*%
%TO.N,Net-(Q2-B)*%
X115687500Y-129000000D03*
%TO.P,R7,2*%
%TO.N,GND*%
X117512500Y-129000000D03*
%TD*%
D34*
%TO.P,D2,1,K*%
%TO.N,Net-(D2-K)*%
X139200000Y-125600000D03*
%TO.P,D2,2,A*%
%TO.N,Net-(D2-A)*%
X135900000Y-125600000D03*
%TD*%
D26*
%TO.P,J2,2,Pin_2*%
%TO.N,VDC*%
X105200000Y-123800000D03*
D25*
%TO.P,J2,1,Pin_1*%
%TO.N,LOAD_OUT*%
X105200000Y-127300000D03*
%TD*%
D35*
%TO.P,U1,1,VIN*%
%TO.N,VDC*%
X114400000Y-109200000D03*
%TO.P,U1,2,OUT*%
%TO.N,/OUT*%
X114400000Y-107500000D03*
%TO.P,U1,3,GND*%
%TO.N,GND*%
X114400000Y-105800000D03*
D36*
X107675000Y-108575000D03*
X107675000Y-103025000D03*
D37*
X105250000Y-105800000D03*
D36*
X102825000Y-108575000D03*
X102825000Y-103025000D03*
D35*
%TO.P,U1,4,FB*%
%TO.N,/FB*%
X114400000Y-104100000D03*
%TO.P,U1,5,~{ON}/OFF*%
%TO.N,GND*%
X114400000Y-102400000D03*
%TD*%
D38*
%TO.P,R2,1*%
%TO.N,+5V*%
X135600000Y-117200000D03*
%TO.P,R2,2*%
%TO.N,Net-(D2-A)*%
X135600000Y-119200000D03*
%TD*%
D39*
%TO.P,RV1,*%
%TO.N,*%
X148600000Y-118700000D03*
X148600000Y-127500000D03*
D40*
%TO.P,RV1,1,1*%
%TO.N,Net-(D2-K)*%
X141600000Y-125600000D03*
%TO.P,RV1,2,2*%
%TO.N,Net-(U2-THR)*%
X141600000Y-123100000D03*
%TO.P,RV1,3,3*%
%TO.N,Net-(D3-A)*%
X141600000Y-120600000D03*
%TD*%
D12*
%TO.P,R3,1*%
%TO.N,Net-(Q3-S)*%
X117512500Y-124600000D03*
%TO.P,R3,2*%
%TO.N,Net-(Q1-G)*%
X115687500Y-124600000D03*
%TD*%
D41*
%TO.N,GND*%
X117600000Y-106600000D03*
X112200000Y-101000000D03*
X109200000Y-100800000D03*
X107200000Y-100800000D03*
X105200000Y-100800000D03*
X103200000Y-100800000D03*
X101200000Y-100800000D03*
X101200000Y-102800000D03*
X103200000Y-102800000D03*
X105200000Y-102800000D03*
X107200000Y-102800000D03*
X109200000Y-102800000D03*
X109200000Y-105200000D03*
X107200000Y-105200000D03*
X105200000Y-105200000D03*
X103200000Y-105200000D03*
X101200000Y-105200000D03*
X101200000Y-107600000D03*
X103200000Y-107600000D03*
X105200000Y-107600000D03*
X107200000Y-107600000D03*
X109200000Y-107600000D03*
X109200000Y-110000000D03*
X107200000Y-110000000D03*
X105200000Y-110000000D03*
X103200000Y-110000000D03*
X101200000Y-110000000D03*
X108600000Y-111800000D03*
X107600000Y-111800000D03*
X106600000Y-111800000D03*
X105600000Y-111800000D03*
X104600000Y-111800000D03*
X103600000Y-111800000D03*
X102600000Y-111800000D03*
X101600000Y-111800000D03*
X100600000Y-111800000D03*
X109000000Y-121400000D03*
X110000000Y-122000000D03*
X110000000Y-121000000D03*
X139200000Y-100600000D03*
X139200000Y-101600000D03*
X139200000Y-102600000D03*
X140200000Y-102600000D03*
X141200000Y-102600000D03*
X142200000Y-102600000D03*
X148400000Y-110400000D03*
X148400000Y-111400000D03*
X148400000Y-112400000D03*
%TO.N,Net-(D2-A)*%
X137996773Y-114534500D03*
X138000000Y-113135500D03*
%TO.N,GND*%
X137400000Y-111295000D03*
X137000000Y-122000000D03*
X117800000Y-119400000D03*
X109000000Y-119400000D03*
X109000000Y-120400000D03*
X112800000Y-126400000D03*
X118800000Y-128000000D03*
X122200000Y-127800000D03*
X114400000Y-111800000D03*
X117400000Y-102625000D03*
X117600000Y-105400000D03*
X129000000Y-105000000D03*
X130800000Y-105000000D03*
X142800000Y-111200000D03*
%TD*%
D42*
%TO.N,ESP-01_GPIO1*%
X147100000Y-113900000D02*
X146800000Y-113600000D01*
D43*
X146500000Y-113900000D02*
X147100000Y-113900000D01*
D42*
X147800000Y-114600000D02*
X147100000Y-113900000D01*
D43*
X146400000Y-114000000D02*
X146500000Y-113900000D01*
X146500000Y-113900000D02*
X146500000Y-113300000D01*
D42*
X146500000Y-113300000D02*
X145800000Y-112600000D01*
X146800000Y-113600000D02*
X146500000Y-113300000D01*
D43*
X146400000Y-114000000D02*
X146800000Y-113600000D01*
X144800000Y-115600000D02*
X146400000Y-114000000D01*
X144800000Y-126200000D02*
X144800000Y-115600000D01*
X125200000Y-123800000D02*
X130000000Y-123800000D01*
X143000000Y-128000000D02*
X144800000Y-126200000D01*
X123600000Y-125400000D02*
X125200000Y-123800000D01*
X130000000Y-123800000D02*
X134200000Y-128000000D01*
X134200000Y-128000000D02*
X143000000Y-128000000D01*
X123600000Y-126687500D02*
X123600000Y-125400000D01*
D42*
X145800000Y-112600000D02*
X145800000Y-109340000D01*
X151200000Y-114600000D02*
X147800000Y-114600000D01*
X153200000Y-111420000D02*
X153200000Y-112600000D01*
X153200000Y-112600000D02*
X151200000Y-114600000D01*
D43*
%TO.N,GND*%
X137400000Y-111295000D02*
X135725000Y-111295000D01*
%TO.N,Net-(D2-A)*%
X139000000Y-116800000D02*
X139000000Y-117950000D01*
X137996773Y-115796773D02*
X139000000Y-116800000D01*
X137996773Y-114534500D02*
X137996773Y-115796773D01*
X137996773Y-114447883D02*
X137977767Y-114428877D01*
X137996773Y-114534500D02*
X137996773Y-114447883D01*
X138000000Y-113135500D02*
X138570500Y-112565000D01*
X138570500Y-112565000D02*
X140675000Y-112565000D01*
%TO.N,Net-(U2-THR)*%
X136365000Y-112565000D02*
X135725000Y-112565000D01*
X137635000Y-113835000D02*
X136365000Y-112565000D01*
X139000000Y-113835000D02*
X137635000Y-113835000D01*
D42*
%TO.N,/OUT*%
X120600000Y-115800000D02*
X123450000Y-115800000D01*
X119200000Y-114400000D02*
X120600000Y-115800000D01*
X119200000Y-113400000D02*
X119200000Y-114400000D01*
X116700000Y-107500000D02*
X119200000Y-110000000D01*
X114400000Y-107500000D02*
X116700000Y-107500000D01*
X119200000Y-110000000D02*
X119200000Y-113400000D01*
D43*
%TO.N,GND*%
X113270000Y-126870000D02*
X113270000Y-127760000D01*
X112800000Y-126400000D02*
X113270000Y-126870000D01*
X117400000Y-102625000D02*
X117975000Y-102050000D01*
X117975000Y-102050000D02*
X117975000Y-101200000D01*
D42*
%TO.N,VDC*%
X113200000Y-110400000D02*
X114400000Y-109200000D01*
X113200000Y-115000000D02*
X113200000Y-110400000D01*
X115397349Y-117197349D02*
X113200000Y-115000000D01*
X115397349Y-119400000D02*
X115397349Y-117197349D01*
D43*
%TO.N,GND*%
X114400000Y-112600000D02*
X115200000Y-113400000D01*
X114400000Y-111800000D02*
X114400000Y-112600000D01*
D42*
%TO.N,Net-(J1-Pin_1)*%
X110165000Y-114135000D02*
X106200000Y-118100000D01*
X106200000Y-118100000D02*
X105200000Y-118100000D01*
X111000000Y-114135000D02*
X110165000Y-114135000D01*
%TO.N,VDC*%
X107400000Y-121600000D02*
X105200000Y-123800000D01*
X109325000Y-116675000D02*
X107400000Y-118600000D01*
X107400000Y-118600000D02*
X107400000Y-121600000D01*
X111000000Y-116675000D02*
X109325000Y-116675000D01*
D43*
%TO.N,GND*%
X129000000Y-105000000D02*
X129000000Y-103862500D01*
X130800000Y-105000000D02*
X130800000Y-103862500D01*
D42*
%TO.N,+5V*%
X127200000Y-103000000D02*
X128062500Y-102137500D01*
X127200000Y-104500000D02*
X127200000Y-103000000D01*
X128062500Y-102137500D02*
X129000000Y-102137500D01*
X125700000Y-106000000D02*
X127200000Y-104500000D01*
D43*
%TO.N,GND*%
X137537500Y-122537500D02*
X137000000Y-122000000D01*
X137537500Y-123200000D02*
X137537500Y-122537500D01*
X119197349Y-119400000D02*
X117800000Y-119400000D01*
X122912500Y-128512500D02*
X122200000Y-127800000D01*
X123600000Y-128512500D02*
X122912500Y-128512500D01*
X117800000Y-129000000D02*
X118800000Y-128000000D01*
X117512500Y-129000000D02*
X117800000Y-129000000D01*
X120300000Y-106000000D02*
X118800000Y-106000000D01*
X142800000Y-112337500D02*
X142800000Y-111200000D01*
%TO.N,Net-(U2-CV)*%
X141757500Y-115105000D02*
X142800000Y-114062500D01*
X140675000Y-115105000D02*
X141757500Y-115105000D01*
%TO.N,PWM*%
X120150000Y-124650000D02*
X119525000Y-124650000D01*
X122400000Y-122400000D02*
X120150000Y-124650000D01*
X133600000Y-122400000D02*
X122400000Y-122400000D01*
X134200000Y-118400000D02*
X134200000Y-121800000D01*
X134200000Y-121800000D02*
X133600000Y-122400000D01*
X134400000Y-118200000D02*
X134200000Y-118400000D01*
X137200000Y-117600000D02*
X136600000Y-118200000D01*
X137200000Y-114270000D02*
X137200000Y-117600000D01*
X136600000Y-118200000D02*
X134400000Y-118200000D01*
X136765000Y-113835000D02*
X137200000Y-114270000D01*
X135725000Y-113835000D02*
X136765000Y-113835000D01*
D42*
%TO.N,+5V*%
X134000000Y-114800000D02*
X134000000Y-109800000D01*
X134000000Y-109800000D02*
X138200000Y-109800000D01*
X133800000Y-109800000D02*
X134000000Y-109800000D01*
X135725000Y-115105000D02*
X134305000Y-115105000D01*
X134305000Y-115105000D02*
X134000000Y-114800000D01*
D43*
%TO.N,Net-(U2-THR)*%
X139000000Y-115600000D02*
X139000000Y-113835000D01*
X140675000Y-113835000D02*
X139000000Y-113835000D01*
X140000000Y-116600000D02*
X139000000Y-115600000D01*
X142000000Y-116600000D02*
X140000000Y-116600000D01*
X143200000Y-117800000D02*
X142000000Y-116600000D01*
X142500000Y-123100000D02*
X143200000Y-122400000D01*
X143200000Y-122400000D02*
X143200000Y-117800000D01*
X141600000Y-123100000D02*
X142500000Y-123100000D01*
D42*
%TO.N,VDC*%
X113600000Y-118800000D02*
X113600000Y-117602651D01*
X111000000Y-116675000D02*
X112672349Y-116675000D01*
X115397349Y-119400000D02*
X114200000Y-119400000D01*
X113600000Y-117602651D02*
X112672349Y-116675000D01*
X114200000Y-119400000D02*
X113600000Y-118800000D01*
%TO.N,+5V*%
X124600000Y-102287500D02*
X123512500Y-101200000D01*
X133012500Y-101537500D02*
X133100000Y-101450000D01*
X131750000Y-115750000D02*
X131750000Y-115800000D01*
X139695000Y-111295000D02*
X140675000Y-111295000D01*
X125700000Y-106000000D02*
X124600000Y-104900000D01*
X125800000Y-109800000D02*
X131750000Y-115750000D01*
X124600000Y-104900000D02*
X124600000Y-102287500D01*
X125700000Y-106000000D02*
X125800000Y-106100000D01*
X135725000Y-115105000D02*
X135725000Y-117075000D01*
X133800000Y-109800000D02*
X131800000Y-109800000D01*
X135725000Y-117075000D02*
X135600000Y-117200000D01*
X131800000Y-109800000D02*
X128000000Y-106000000D01*
X138200000Y-109800000D02*
X139695000Y-111295000D01*
X128000000Y-106000000D02*
X125700000Y-106000000D01*
X125800000Y-106100000D02*
X125800000Y-109800000D01*
D43*
%TO.N,/FB*%
X119000000Y-102600000D02*
X119000000Y-103400000D01*
X119800000Y-101200000D02*
X119800000Y-101800000D01*
X119800000Y-101800000D02*
X119000000Y-102600000D01*
X118300000Y-104100000D02*
X114400000Y-104100000D01*
X119000000Y-103400000D02*
X118300000Y-104100000D01*
X121687500Y-101200000D02*
X119800000Y-101200000D01*
%TO.N,Net-(U2-CV)*%
X140780000Y-115000000D02*
X140675000Y-115105000D01*
%TO.N,Net-(U2-THR)*%
X139262500Y-123200000D02*
X141500000Y-123200000D01*
X141500000Y-123200000D02*
X141600000Y-123100000D01*
X140840000Y-114000000D02*
X140675000Y-113835000D01*
%TO.N,Net-(D2-K)*%
X139200000Y-125600000D02*
X141600000Y-125600000D01*
%TO.N,Net-(D2-A)*%
X136800000Y-119200000D02*
X138050000Y-117950000D01*
X135600000Y-119200000D02*
X136800000Y-119200000D01*
X135900000Y-119500000D02*
X135600000Y-119200000D01*
X135900000Y-125600000D02*
X135900000Y-119500000D01*
X138050000Y-117950000D02*
X139000000Y-117950000D01*
%TO.N,Net-(D3-A)*%
X139000000Y-121250000D02*
X140950000Y-121250000D01*
X140950000Y-121250000D02*
X141600000Y-120600000D01*
D42*
%TO.N,LOAD_OUT*%
X105200000Y-127300000D02*
X106425000Y-127300000D01*
X110730000Y-127760000D02*
X105660000Y-127760000D01*
X106425000Y-127300000D02*
X110050000Y-123675000D01*
X105660000Y-127760000D02*
X105200000Y-127300000D01*
D43*
%TO.N,Net-(Q1-G)*%
X111950000Y-123675000D02*
X112875000Y-124600000D01*
X111950000Y-123675000D02*
X111950000Y-119637500D01*
X111950000Y-119637500D02*
X111912500Y-119600000D01*
X112875000Y-124600000D02*
X115687500Y-124600000D01*
%TO.N,ESP-01_GPIO1*%
X123462500Y-126550000D02*
X123600000Y-126687500D01*
X119525000Y-126550000D02*
X123462500Y-126550000D01*
%TO.N,Net-(Q3-S)*%
X121400000Y-125600000D02*
X117512500Y-125600000D01*
X117512500Y-125600000D02*
X117512500Y-126800000D01*
X117512500Y-124600000D02*
X117512500Y-125600000D01*
%TO.N,Net-(Q2-B)*%
X112000000Y-128506325D02*
X112000000Y-127760000D01*
X115687500Y-129000000D02*
X112493675Y-129000000D01*
X115687500Y-126800000D02*
X115687500Y-129000000D01*
X112493675Y-129000000D02*
X112000000Y-128506325D01*
%TD*%
%TA.AperFunction,Conductor*%
%TO.N,GND*%
G36*
X148826614Y-110019685D02*
G01*
X148863890Y-110056960D01*
X148929170Y-110158537D01*
X148929179Y-110158548D01*
X148974923Y-110211340D01*
X148974926Y-110211343D01*
X148974930Y-110211347D01*
X149083664Y-110305567D01*
X149083667Y-110305568D01*
X149083668Y-110305569D01*
X149169957Y-110344977D01*
X149214541Y-110365338D01*
X149259357Y-110378497D01*
X149281575Y-110385022D01*
X149281580Y-110385023D01*
X149281584Y-110385024D01*
X149424000Y-110405500D01*
X149424003Y-110405500D01*
X151676000Y-110405500D01*
X151743039Y-110425185D01*
X151788794Y-110477989D01*
X151800000Y-110529500D01*
X151800000Y-112876000D01*
X151780315Y-112943039D01*
X151727511Y-112988794D01*
X151676000Y-113000000D01*
X147924000Y-113000000D01*
X147856961Y-112980315D01*
X147811206Y-112927511D01*
X147800000Y-112876000D01*
X147800000Y-110124000D01*
X147819685Y-110056961D01*
X147872489Y-110011206D01*
X147924000Y-110000000D01*
X148759575Y-110000000D01*
X148826614Y-110019685D01*
G37*
%TD.AperFunction*%
%TD*%
%TA.AperFunction,Conductor*%
%TO.N,GND*%
G36*
X139629495Y-100219685D02*
G01*
X139631239Y-100220826D01*
X142544784Y-102163189D01*
X142589644Y-102216753D01*
X142600000Y-102266362D01*
X142600000Y-104276000D01*
X142580315Y-104343039D01*
X142527511Y-104388794D01*
X142476000Y-104400000D01*
X139324000Y-104400000D01*
X139256961Y-104380315D01*
X139211206Y-104327511D01*
X139200000Y-104276000D01*
X139200000Y-104000000D01*
X137800000Y-102600000D01*
X137166247Y-102600000D01*
X137099208Y-102580315D01*
X137078566Y-102563681D01*
X137076280Y-102561395D01*
X137009819Y-102494934D01*
X136996608Y-102482634D01*
X136969600Y-102459232D01*
X136964017Y-102454733D01*
X136945273Y-102435990D01*
X136942890Y-102433033D01*
X136940755Y-102430383D01*
X136930030Y-102418007D01*
X136917353Y-102403378D01*
X136905060Y-102390175D01*
X136836319Y-102321434D01*
X136802834Y-102260111D01*
X136800000Y-102233753D01*
X136800000Y-100324000D01*
X136819685Y-100256961D01*
X136872489Y-100211206D01*
X136924000Y-100200000D01*
X139562456Y-100200000D01*
X139629495Y-100219685D01*
G37*
%TD.AperFunction*%
%TD*%
%TA.AperFunction,Conductor*%
%TO.N,+3.3V*%
G36*
X136143039Y-100219685D02*
G01*
X136188794Y-100272489D01*
X136200000Y-100324000D01*
X136200000Y-102400000D01*
X136541240Y-102741240D01*
X136552826Y-102754610D01*
X136592454Y-102807546D01*
X136592457Y-102807548D01*
X136645388Y-102847173D01*
X136658758Y-102858758D01*
X138800000Y-105000000D01*
X142558667Y-105000000D01*
X142625706Y-105019685D01*
X142633062Y-105024796D01*
X143400000Y-105600000D01*
X143523842Y-105600000D01*
X143590881Y-105619685D01*
X143626330Y-105655134D01*
X143626518Y-105654994D01*
X143627492Y-105656295D01*
X143628156Y-105656959D01*
X143629168Y-105658533D01*
X143629179Y-105658548D01*
X143674923Y-105711340D01*
X143674926Y-105711343D01*
X143674930Y-105711347D01*
X143783664Y-105805567D01*
X143914541Y-105865338D01*
X143959357Y-105878497D01*
X143981575Y-105885022D01*
X143981580Y-105885023D01*
X143981584Y-105885024D01*
X144124000Y-105905500D01*
X146876000Y-105905500D01*
X146943039Y-105925185D01*
X146988794Y-105977989D01*
X147000000Y-106029500D01*
X147000000Y-107876000D01*
X146980315Y-107943039D01*
X146927511Y-107988794D01*
X146876000Y-108000000D01*
X145846300Y-108000000D01*
X145840897Y-107999764D01*
X145814299Y-107997437D01*
X145800001Y-107996186D01*
X145799999Y-107996186D01*
X145785700Y-107997437D01*
X145759102Y-107999764D01*
X145753700Y-108000000D01*
X143676636Y-108000000D01*
X143609597Y-107980315D01*
X143565727Y-107931454D01*
X142600001Y-106000001D01*
X142600000Y-106000000D01*
X142599999Y-106000000D01*
X138800001Y-106000000D01*
X138800000Y-106000000D01*
X138799999Y-106000000D01*
X138799998Y-106000001D01*
X137434273Y-108731454D01*
X137386686Y-108782613D01*
X137323364Y-108800000D01*
X133524000Y-108800000D01*
X133456961Y-108780315D01*
X133411206Y-108727511D01*
X133400000Y-108676000D01*
X133400000Y-106419112D01*
X133405756Y-106381772D01*
X133533267Y-105977989D01*
X134600000Y-102600000D01*
X134600000Y-100324000D01*
X134619685Y-100256961D01*
X134672489Y-100211206D01*
X134724000Y-100200000D01*
X136076000Y-100200000D01*
X136143039Y-100219685D01*
G37*
%TD.AperFunction*%
%TD*%
%TA.AperFunction,Conductor*%
%TO.N,+5V*%
G36*
X133943039Y-100219685D02*
G01*
X133988794Y-100272489D01*
X134000000Y-100324000D01*
X134000000Y-102676000D01*
X133980315Y-102743039D01*
X133927511Y-102788794D01*
X133876000Y-102800000D01*
X131600000Y-102800000D01*
X128324000Y-102800000D01*
X128256961Y-102780315D01*
X128211206Y-102727511D01*
X128200000Y-102676000D01*
X128200000Y-101524000D01*
X128219685Y-101456961D01*
X128272489Y-101411206D01*
X128324000Y-101400000D01*
X131399999Y-101400000D01*
X131400000Y-101400000D01*
X131771737Y-100284787D01*
X131811611Y-100227413D01*
X131876175Y-100200705D01*
X131889374Y-100200000D01*
X133876000Y-100200000D01*
X133943039Y-100219685D01*
G37*
%TD.AperFunction*%
%TD*%
%TA.AperFunction,Conductor*%
%TO.N,GND*%
G36*
X110743039Y-118819685D02*
G01*
X110788794Y-118872489D01*
X110800000Y-118924000D01*
X110800000Y-120600000D01*
X111214712Y-120738237D01*
X111272087Y-120778111D01*
X111298795Y-120842675D01*
X111299500Y-120855874D01*
X111299500Y-122476000D01*
X111279815Y-122543039D01*
X111227011Y-122588794D01*
X111175500Y-122600000D01*
X110683745Y-122600000D01*
X110616706Y-122580315D01*
X110607746Y-122573980D01*
X110601867Y-122569420D01*
X110460396Y-122485755D01*
X110460393Y-122485754D01*
X110302573Y-122439902D01*
X110302567Y-122439901D01*
X110265696Y-122437000D01*
X110265694Y-122437000D01*
X109834306Y-122437000D01*
X109834301Y-122437000D01*
X109823037Y-122437886D01*
X109754660Y-122423519D01*
X109741239Y-122415171D01*
X108651926Y-121637090D01*
X108608816Y-121582106D01*
X108600000Y-121536187D01*
X108600000Y-118924000D01*
X108619685Y-118856961D01*
X108672489Y-118811206D01*
X108724000Y-118800000D01*
X110676000Y-118800000D01*
X110743039Y-118819685D01*
G37*
%TD.AperFunction*%
%TD*%
%TA.AperFunction,Conductor*%
%TO.N,GND*%
G36*
X118543039Y-100020185D02*
G01*
X118588794Y-100072989D01*
X118600000Y-100124500D01*
X118600000Y-101948638D01*
X118580315Y-102015677D01*
X118563681Y-102036319D01*
X117636319Y-102963681D01*
X117574996Y-102997166D01*
X117548638Y-103000000D01*
X110800000Y-103000000D01*
X110800000Y-105200000D01*
X122076000Y-105200000D01*
X122143039Y-105219685D01*
X122188794Y-105272489D01*
X122200000Y-105324000D01*
X122200000Y-106876000D01*
X122180315Y-106943039D01*
X122127511Y-106988794D01*
X122076000Y-107000000D01*
X117451362Y-107000000D01*
X117384323Y-106980315D01*
X117363681Y-106963681D01*
X116800000Y-106400000D01*
X110800000Y-106400000D01*
X110800000Y-110346664D01*
X110780315Y-110413703D01*
X110761280Y-110436682D01*
X107000000Y-113999999D01*
X107000000Y-115999119D01*
X106980315Y-116066158D01*
X106927511Y-116111913D01*
X106858353Y-116121857D01*
X106832669Y-116115302D01*
X106807481Y-116105908D01*
X106807483Y-116105908D01*
X106747883Y-116099501D01*
X106747881Y-116099500D01*
X106747873Y-116099500D01*
X106747864Y-116099500D01*
X103652129Y-116099500D01*
X103652123Y-116099501D01*
X103592516Y-116105908D01*
X103567331Y-116115302D01*
X103497639Y-116120285D01*
X103436316Y-116086798D01*
X103402833Y-116025474D01*
X103400000Y-115999119D01*
X103400000Y-114000000D01*
X100061629Y-112036252D01*
X100013826Y-111985295D01*
X100000500Y-111929372D01*
X100000500Y-100124500D01*
X100020185Y-100057461D01*
X100072989Y-100011706D01*
X100124500Y-100000500D01*
X118476000Y-100000500D01*
X118543039Y-100020185D01*
G37*
%TD.AperFunction*%
%TD*%
%TA.AperFunction,Conductor*%
%TO.N,ESP-01_EN*%
G36*
X149697670Y-102554263D02*
G01*
X149764514Y-102574584D01*
X149809764Y-102627821D01*
X149819048Y-102697071D01*
X149789419Y-102760347D01*
X149784166Y-102765937D01*
X149621503Y-102928600D01*
X149485965Y-103122169D01*
X149485964Y-103122171D01*
X149386098Y-103336335D01*
X149386094Y-103336344D01*
X149324938Y-103564586D01*
X149324936Y-103564596D01*
X149304341Y-103799999D01*
X149304341Y-103800000D01*
X149324936Y-104035403D01*
X149324938Y-104035413D01*
X149386094Y-104263655D01*
X149386096Y-104263659D01*
X149386097Y-104263663D01*
X149485965Y-104477830D01*
X149485967Y-104477834D01*
X149594281Y-104632521D01*
X149621505Y-104671401D01*
X149788599Y-104838495D01*
X149885384Y-104906265D01*
X149982165Y-104974032D01*
X149982167Y-104974033D01*
X149982170Y-104974035D01*
X150196337Y-105073903D01*
X150424592Y-105135063D01*
X150612918Y-105151539D01*
X150659999Y-105155659D01*
X150660000Y-105155659D01*
X150660001Y-105155659D01*
X150699234Y-105152226D01*
X150895408Y-105135063D01*
X151123663Y-105073903D01*
X151337830Y-104974035D01*
X151531401Y-104838495D01*
X151698495Y-104671401D01*
X151834035Y-104477830D01*
X151933903Y-104263663D01*
X151995063Y-104035408D01*
X152015659Y-103800000D01*
X151995063Y-103564592D01*
X151933903Y-103336337D01*
X151834035Y-103122171D01*
X151698495Y-102928599D01*
X151698494Y-102928597D01*
X151554363Y-102784466D01*
X151520878Y-102723143D01*
X151525862Y-102653451D01*
X151567734Y-102597518D01*
X151633198Y-102573101D01*
X151643184Y-102572792D01*
X154378852Y-102598846D01*
X154445701Y-102619168D01*
X154490951Y-102672405D01*
X154501659Y-102721142D01*
X154539779Y-105503919D01*
X154521015Y-105571221D01*
X154468843Y-105617695D01*
X154399827Y-105628585D01*
X154335879Y-105600433D01*
X154314216Y-105576740D01*
X154238494Y-105468597D01*
X154071402Y-105301506D01*
X154071395Y-105301501D01*
X153877834Y-105165967D01*
X153877830Y-105165965D01*
X153855729Y-105155659D01*
X153663663Y-105066097D01*
X153663659Y-105066096D01*
X153663655Y-105066094D01*
X153435413Y-105004938D01*
X153435403Y-105004936D01*
X153200001Y-104984341D01*
X153199999Y-104984341D01*
X152964596Y-105004936D01*
X152964586Y-105004938D01*
X152736344Y-105066094D01*
X152736335Y-105066098D01*
X152522171Y-105165964D01*
X152522169Y-105165965D01*
X152328597Y-105301505D01*
X152161505Y-105468597D01*
X152025965Y-105662169D01*
X152025964Y-105662171D01*
X151926098Y-105876335D01*
X151926094Y-105876344D01*
X151864938Y-106104586D01*
X151864936Y-106104596D01*
X151844341Y-106339999D01*
X151844341Y-106340000D01*
X151864936Y-106575403D01*
X151864938Y-106575413D01*
X151926094Y-106803655D01*
X151926096Y-106803659D01*
X151926097Y-106803663D01*
X152025965Y-107017830D01*
X152025967Y-107017834D01*
X152049851Y-107051943D01*
X152161505Y-107211401D01*
X152328599Y-107378495D01*
X152425384Y-107446265D01*
X152522165Y-107514032D01*
X152522167Y-107514033D01*
X152522170Y-107514035D01*
X152736337Y-107613903D01*
X152964592Y-107675063D01*
X153152918Y-107691539D01*
X153199999Y-107695659D01*
X153200000Y-107695659D01*
X153200001Y-107695659D01*
X153239234Y-107692226D01*
X153435408Y-107675063D01*
X153663663Y-107613903D01*
X153877830Y-107514035D01*
X154071401Y-107378495D01*
X154238495Y-107211401D01*
X154336638Y-107071237D01*
X154391214Y-107027614D01*
X154460712Y-107020420D01*
X154523067Y-107051943D01*
X154558481Y-107112172D01*
X154562200Y-107140663D01*
X154598278Y-109774301D01*
X154579514Y-109841604D01*
X154527342Y-109888078D01*
X154474290Y-109900000D01*
X149424000Y-109900000D01*
X149356961Y-109880315D01*
X149311206Y-109827511D01*
X149300000Y-109776000D01*
X149300000Y-106300000D01*
X149299999Y-106299999D01*
X147000001Y-105400000D01*
X147000000Y-105400000D01*
X144124000Y-105400000D01*
X144056961Y-105380315D01*
X144011206Y-105327511D01*
X144000000Y-105276000D01*
X144000000Y-102625186D01*
X144019685Y-102558147D01*
X144072489Y-102512392D01*
X144125180Y-102501192D01*
X149697670Y-102554263D01*
G37*
%TD.AperFunction*%
%TD*%
M02*
